AnekGujarati-ExtraBold.ufo
<glyph name="dollar" format="2">
  <advance width="1093"/>
  <unicode hex="0024"/>
  <anchor x="538" y="0" name="bottom"/>
  <anchor x="538" y="1278" name="top"/>
  <outline>
    <contour>
      <point x="688" y="1123" type="line"/>
      <point x="688" y="1474" type="line"/>
      <point x="391" y="1474" type="line"/>
      <point x="391" y="1123" type="line"/>
    </contour>
    <contour>
      <point x="688" y="-200" type="line"/>
      <point x="688" y="162" type="line"/>
      <point x="391" y="162" type="line"/>
      <point x="391" y="-200" type="line"/>
    </contour>
    <component base="S"/>
  </outline>
</glyph>
<glyph name="Doubledanda.gj" format="2">
  <advance width="1090"/>
  <unicode hex="0965"/>
  <anchor x="786" y="-64" name="Bottom"/>
  <anchor x="765" y="1277" name="Top"/>
  <anchor x="817" y="1277" name="Top2"/>
  <outline>
    <contour>
      <point x="96" y="450" type="line"/>
      <point x="449" y="450" type="line"/>
      <point x="449" y="1207" type="line"/>
      <point x="96" y="1207" type="line"/>
    </contour>
    <contour>
      <point x="96" y="0" type="line"/>
      <point x="449" y="0" type="line"/>
      <point x="449" y="546" type="line"/>
      <point x="96" y="546" type="line"/>
    </contour>
    <contour>
      <point x="641" y="450" type="line"/>
      <point x="994" y="450" type="line"/>
      <point x="994" y="1207" type="line"/>
      <point x="641" y="1207" type="line"/>
    </contour>
    <contour>
      <point x="641" y="0" type="line"/>
      <point x="994" y="0" type="line"/>
      <point x="994" y="546" type="line"/>
      <point x="641" y="546" type="line"/>
    </contour>
  </outline>
</glyph>
<glyph name="Chandrabindu.gj" format="2">
  <unicode hex="0A81"/>
  <guideline x="530" y="1738" angle="90"/>
  <guideline x="984" y="1277" angle="0"/>
  <anchor x="530" y="1277" name="_Top2"/>
  <outline>
    <contour>
      <point x="530" y="1327" type="curve" smooth="yes"/>
      <point x="817" y="1327"/>
      <point x="963" y="1438"/>
      <point x="963" y="1662" type="curve" smooth="yes"/>
      <point x="963" y="1676"/>
      <point x="962" y="1694"/>
      <point x="959" y="1724" type="curve"/>
      <point x="725" y="1724" type="line"/>
      <point x="725" y="1696" type="line" smooth="yes"/>
      <point x="725" y="1588"/>
      <point x="664" y="1534"/>
      <point x="530" y="1534" type="curve" smooth="yes"/>
      <point x="396" y="1534"/>
      <point x="335" y="1588"/>
      <point x="335" y="1696" type="curve" smooth="yes"/>
      <point x="335" y="1724" type="line"/>
      <point x="101" y="1724" type="line"/>
      <point x="97" y="1693"/>
      <point x="97" y="1676"/>
      <point x="97" y="1662" type="curve" smooth="yes"/>
      <point x="97" y="1438"/>
      <point x="239" y="1327"/>
    </contour>
    <contour>
      <point x="530" y="1599" type="curve" smooth="yes"/>
      <point x="619" y="1599"/>
      <point x="655" y="1653"/>
      <point x="655" y="1736" type="curve" smooth="yes"/>
      <point x="655" y="1745" type="line" smooth="yes"/>
      <point x="655" y="1826"/>
      <point x="619" y="1882"/>
      <point x="530" y="1882" type="curve" smooth="yes"/>
      <point x="440" y="1882"/>
      <point x="405" y="1826"/>
      <point x="405" y="1745" type="curve" smooth="yes"/>
      <point x="405" y="1736" type="line" smooth="yes"/>
      <point x="405" y="1653"/>
      <point x="440" y="1599"/>
    </contour>
  </outline>
</glyph>
<glyph name="Bindu.gj" format="2">
  <unicode hex="0A82"/>
  <guideline x="100" y="1507" angle="90"/>
  <guideline x="297" y="1701" angle="0"/>
  <guideline x="494" y="1506" angle="270"/>
  <anchor x="297" y="1277" name="_Top2"/>
  <outline>
    <contour>
      <point x="297" y="1322" type="curve" smooth="yes"/>
      <point x="428" y="1322"/>
      <point x="486" y="1391"/>
      <point x="486" y="1500" type="curve" smooth="yes"/>
      <point x="486" y="1510" type="line" smooth="yes"/>
      <point x="486" y="1619"/>
      <point x="424" y="1688"/>
      <point x="297" y="1688" type="curve" smooth="yes"/>
      <point x="170" y="1688"/>
      <point x="108" y="1617"/>
      <point x="108" y="1510" type="curve" smooth="yes"/>
      <point x="108" y="1500" type="line" smooth="yes"/>
      <point x="108" y="1391"/>
      <point x="167" y="1322"/>
    </contour>
  </outline>
</glyph>
<glyph name="Visarga.gj" format="2">
  <advance width="547"/>
  <unicode hex="0A83"/>
  <anchor x="274" y="85" name="_Top2"/>
  <outline>
    <contour>
      <point x="274" y="130" type="curve" smooth="yes"/>
      <point x="405" y="130"/>
      <point x="463" y="199"/>
      <point x="463" y="308" type="curve" smooth="yes"/>
      <point x="463" y="318" type="line" smooth="yes"/>
      <point x="463" y="427"/>
      <point x="401" y="496"/>
      <point x="274" y="496" type="curve" smooth="yes"/>
      <point x="147" y="496"/>
      <point x="85" y="425"/>
      <point x="85" y="318" type="curve" smooth="yes"/>
      <point x="85" y="308" type="line" smooth="yes"/>
      <point x="85" y="199"/>
      <point x="144" y="130"/>
    </contour>
    <contour>
      <point x="274" y="694" type="curve" smooth="yes"/>
      <point x="405" y="694"/>
      <point x="463" y="763"/>
      <point x="463" y="872" type="curve" smooth="yes"/>
      <point x="463" y="882" type="line" smooth="yes"/>
      <point x="463" y="991"/>
      <point x="401" y="1060"/>
      <point x="274" y="1060" type="curve" smooth="yes"/>
      <point x="147" y="1060"/>
      <point x="85" y="989"/>
      <point x="85" y="882" type="curve" smooth="yes"/>
      <point x="85" y="872" type="line" smooth="yes"/>
      <point x="85" y="763"/>
      <point x="144" y="694"/>
    </contour>
  </outline>
</glyph>
<glyph name="VowelA.gj" format="2">
  <advance width="1817"/>
  <unicode hex="0A85"/>
  <anchor x="1513" y="-64" name="Bottom"/>
  <anchor x="1492" y="1277" name="Top"/>
  <anchor x="1544" y="1277" name="Top2"/>
  <outline>
    <contour>
      <point x="703" y="46" type="curve" smooth="yes"/>
      <point x="1023" y="46"/>
      <point x="1194" y="200"/>
      <point x="1194" y="496" type="curve" smooth="yes"/>
      <point x="1194" y="1024" type="line"/>
      <point x="852" y="1024" type="line"/>
      <point x="852" y="504" type="line" smooth="yes"/>
      <point x="852" y="394"/>
      <point x="798" y="341"/>
      <point x="701" y="341" type="curve" smooth="yes"/>
      <point x="604" y="341"/>
      <point x="547" y="389"/>
      <point x="541" y="494" type="curve" smooth="yes"/>
      <point x="538" y="562" type="line"/>
      <point x="200" y="523" type="line"/>
      <point x="203" y="459" type="line" smooth="yes"/>
      <point x="219" y="183"/>
      <point x="387" y="46"/>
    </contour>
    <contour>
      <point x="292" y="377" type="line"/>
      <point x="292" y="440" type="line"/>
      <point x="385" y="440" type="line"/>
      <point x="598" y="440"/>
      <point x="724" y="571"/>
      <point x="724" y="810" type="curve" smooth="yes"/>
      <point x="724" y="856" type="line" smooth="yes"/>
      <point x="724" y="1117"/>
      <point x="577" y="1239"/>
      <point x="328" y="1239" type="curve" smooth="yes"/>
      <point x="237" y="1239"/>
      <point x="157" y="1221"/>
      <point x="102" y="1195" type="curve"/>
      <point x="78" y="923" type="line"/>
      <point x="127" y="940"/>
      <point x="183" y="953"/>
      <point x="245" y="953" type="curve" smooth="yes"/>
      <point x="329" y="953"/>
      <point x="376" y="915"/>
      <point x="376" y="835" type="curve" smooth="yes"/>
      <point x="376" y="819" type="line" smooth="yes"/>
      <point x="376" y="733"/>
      <point x="322" y="691"/>
      <point x="226" y="690" type="curve" smooth="yes"/>
      <point x="55" y="688" type="line"/>
      <point x="55" y="427" type="line"/>
    </contour>
    <contour>
      <point x="1368" y="450" type="line"/>
      <point x="1721" y="450" type="line"/>
      <point x="1721" y="1207" type="line"/>
      <point x="1368" y="1207" type="line"/>
    </contour>
    <contour>
      <point x="1368" y="0" type="line"/>
      <point x="1721" y="0" type="line"/>
      <point x="1721" y="546" type="line"/>
      <point x="1368" y="546" type="line"/>
    </contour>
    <contour>
      <point x="1047" y="472" type="line"/>
      <point x="1537" y="472" type="line"/>
      <point x="1513" y="759" type="line"/>
      <point x="1047" y="759" type="line"/>
    </contour>
  </outline>
</glyph>
<glyph name="VowelI.gj" format="2">
  <advance width="1360"/>
  <unicode hex="0A87"/>
  <anchor x="526" y="1277" name="Top2"/>
  <outline>
    <contour>
      <point x="921" y="692" type="line"/>
      <point x="1273" y="692" type="line"/>
      <point x="1273" y="1652" type="line"/>
      <point x="921" y="1610" type="line"/>
    </contour>
    <contour>
      <point x="643" y="-29" type="curve" smooth="yes"/>
      <point x="1062" y="-29"/>
      <point x="1274" y="147"/>
      <point x="1274" y="499" type="curve" smooth="yes"/>
      <point x="1274" y="727" type="line"/>
      <point x="921" y="727" type="line"/>
      <point x="921" y="505" type="line" smooth="yes"/>
      <point x="921" y="342"/>
      <point x="830" y="260"/>
      <point x="643" y="260" type="curve" smooth="yes"/>
      <point x="488" y="260"/>
      <point x="434" y="297"/>
      <point x="434" y="374" type="curve" smooth="yes"/>
      <point x="434" y="381" type="line" smooth="yes"/>
      <point x="434" y="442"/>
      <point x="470" y="478"/>
      <point x="567" y="482" type="curve" smooth="yes"/>
      <point x="741" y="489" type="line"/>
      <point x="741" y="762" type="line"/>
      <point x="564" y="770" type="line" smooth="yes"/>
      <point x="465" y="774"/>
      <point x="432" y="803"/>
      <point x="432" y="857" type="curve" smooth="yes"/>
      <point x="432" y="860" type="line" smooth="yes"/>
      <point x="432" y="923"/>
      <point x="489" y="953"/>
      <point x="603" y="953" type="curve" smooth="yes"/>
      <point x="674" y="953"/>
      <point x="733" y="943"/>
      <point x="781" y="930" type="curve"/>
      <point x="754" y="1205" type="line"/>
      <point x="696" y="1223"/>
      <point x="610" y="1239"/>
      <point x="515" y="1239" type="curve" smooth="yes"/>
      <point x="234" y="1239"/>
      <point x="68" y="1136"/>
      <point x="68" y="911" type="curve" smooth="yes"/>
      <point x="68" y="902" type="line" smooth="yes"/>
      <point x="68" y="735"/>
      <point x="147" y="649"/>
      <point x="334" y="628" type="curve"/>
      <point x="334" y="621" type="line"/>
      <point x="152" y="599"/>
      <point x="70" y="506"/>
      <point x="70" y="350" type="curve" smooth="yes"/>
      <point x="70" y="336" type="line" smooth="yes"/>
      <point x="70" y="110"/>
      <point x="246" y="-29"/>
    </contour>
  </outline>
</glyph>
<glyph name="VowelIi.gj" format="2">
  <advance width="1360"/>
  <unicode hex="0A88"/>
  <anchor x="526" y="1277" name="Top2"/>
  <outline>
    <contour>
      <point x="921" y="658" type="line"/>
      <point x="1273" y="658" type="line"/>
      <point x="1273" y="1287" type="line" smooth="yes"/>
      <point x="1273" y="1376"/>
      <point x="1302" y="1411"/>
      <point x="1372" y="1411" type="curve" smooth="yes"/>
      <point x="1398" y="1411"/>
      <point x="1419" y="1409"/>
      <point x="1443" y="1404" type="curve"/>
      <point x="1419" y="1671" type="line"/>
      <point x="1372" y="1685"/>
      <point x="1326" y="1691"/>
      <point x="1258" y="1691" type="curve" smooth="yes"/>
      <point x="1034" y="1691"/>
      <point x="921" y="1563"/>
      <point x="921" y="1307" type="curve" smooth="yes"/>
    </contour>
    <contour>
      <point x="643" y="-29" type="curve" smooth="yes"/>
      <point x="1062" y="-29"/>
      <point x="1274" y="147"/>
      <point x="1274" y="499" type="curve" smooth="yes"/>
      <point x="1274" y="727" type="line"/>
      <point x="921" y="727" type="line"/>
      <point x="921" y="505" type="line" smooth="yes"/>
      <point x="921" y="342"/>
      <point x="830" y="260"/>
      <point x="643" y="260" type="curve" smooth="yes"/>
      <point x="488" y="260"/>
      <point x="434" y="297"/>
      <point x="434" y="374" type="curve" smooth="yes"/>
      <point x="434" y="381" type="line" smooth="yes"/>
      <point x="434" y="442"/>
      <point x="470" y="478"/>
      <point x="567" y="482" type="curve" smooth="yes"/>
      <point x="741" y="489" type="line"/>
      <point x="741" y="762" type="line"/>
      <point x="564" y="770" type="line" smooth="yes"/>
      <point x="465" y="774"/>
      <point x="432" y="803"/>
      <point x="432" y="857" type="curve" smooth="yes"/>
      <point x="432" y="860" type="line" smooth="yes"/>
      <point x="432" y="923"/>
      <point x="489" y="953"/>
      <point x="603" y="953" type="curve" smooth="yes"/>
      <point x="674" y="953"/>
      <point x="733" y="943"/>
      <point x="781" y="930" type="curve"/>
      <point x="754" y="1205" type="line"/>
      <point x="696" y="1223"/>
      <point x="610" y="1239"/>
      <point x="515" y="1239" type="curve" smooth="yes"/>
      <point x="234" y="1239"/>
      <point x="68" y="1136"/>
      <point x="68" y="911" type="curve" smooth="yes"/>
      <point x="68" y="902" type="line" smooth="yes"/>
      <point x="68" y="735"/>
      <point x="147" y="649"/>
      <point x="334" y="628" type="curve"/>
      <point x="334" y="621" type="line"/>
      <point x="152" y="599"/>
      <point x="70" y="506"/>
      <point x="70" y="350" type="curve" smooth="yes"/>
      <point x="70" y="336" type="line" smooth="yes"/>
      <point x="70" y="110"/>
      <point x="246" y="-29"/>
    </contour>
  </outline>
</glyph>
<glyph name="VowelU.gj" format="2">
  <advance width="1364"/>
  <unicode hex="0A89"/>
  <guideline x="849" y="1692" angle="0"/>
  <anchor x="825" y="1731" name="Top2"/>
  <outline>
    <contour>
      <point x="78" y="739" type="line"/>
      <point x="441" y="739" type="line"/>
      <point x="441" y="881" type="line" smooth="yes"/>
      <point x="441" y="1233"/>
      <point x="592" y="1406"/>
      <point x="893" y="1406" type="curve" smooth="yes"/>
      <point x="967" y="1406"/>
      <point x="1028" y="1397"/>
      <point x="1081" y="1386" type="curve"/>
      <point x="1053" y="1661" type="line"/>
      <point x="1003" y="1678"/>
      <point x="921" y="1692"/>
      <point x="849" y="1692" type="curve" smooth="yes"/>
      <point x="369" y="1692"/>
      <point x="78" y="1426"/>
      <point x="78" y="884" type="curve" smooth="yes"/>
    </contour>
    <contour>
      <point x="750" y="-29" type="curve" smooth="yes"/>
      <point x="1131" y="-29"/>
      <point x="1302" y="110"/>
      <point x="1302" y="336" type="curve" smooth="yes"/>
      <point x="1302" y="350" type="line" smooth="yes"/>
      <point x="1302" y="506"/>
      <point x="1217" y="599"/>
      <point x="1031" y="621" type="curve"/>
      <point x="1031" y="628" type="line"/>
      <point x="1214" y="649"/>
      <point x="1293" y="735"/>
      <point x="1293" y="901" type="curve" smooth="yes"/>
      <point x="1293" y="915" type="line" smooth="yes"/>
      <point x="1293" y="1137"/>
      <point x="1135" y="1239"/>
      <point x="865" y="1239" type="curve" smooth="yes"/>
      <point x="764" y="1239"/>
      <point x="676" y="1222"/>
      <point x="614" y="1199" type="curve"/>
      <point x="589" y="925" type="line"/>
      <point x="642" y="941"/>
      <point x="702" y="953"/>
      <point x="772" y="953" type="curve" smooth="yes"/>
      <point x="876" y="953"/>
      <point x="928" y="925"/>
      <point x="928" y="864" type="curve" smooth="yes"/>
      <point x="928" y="859" type="line" smooth="yes"/>
      <point x="928" y="803"/>
      <point x="896" y="773"/>
      <point x="795" y="768" type="curve" smooth="yes"/>
      <point x="623" y="760" type="line"/>
      <point x="623" y="487" type="line"/>
      <point x="792" y="480" type="line" smooth="yes"/>
      <point x="899" y="476"/>
      <point x="937" y="441"/>
      <point x="937" y="380" type="curve" smooth="yes"/>
      <point x="937" y="374" type="line" smooth="yes"/>
      <point x="937" y="297"/>
      <point x="888" y="260"/>
      <point x="751" y="260" type="curve" smooth="yes"/>
      <point x="539" y="260"/>
      <point x="441" y="393"/>
      <point x="441" y="658" type="curve" smooth="yes"/>
      <point x="441" y="772" type="line"/>
      <point x="78" y="772" type="line"/>
      <point x="78" y="658" type="line" smooth="yes"/>
      <point x="78" y="200"/>
      <point x="298" y="-29"/>
    </contour>
  </outline>
</glyph>
<glyph name="VowelRu.gj" format="2">
  <advance width="1903"/>
  <unicode hex="0A8B"/>
  <anchor x="942" y="-64" name="Bottom"/>
  <anchor x="920" y="1277" name="Top"/>
  <anchor x="973" y="1277" name="Top2"/>
  <outline>
    <contour>
      <point x="1503" y="64" type="curve" smooth="yes"/>
      <point x="1736" y="64"/>
      <point x="1851" y="165"/>
      <point x="1851" y="379" type="curve" smooth="yes"/>
      <point x="1851" y="392" type="line" smooth="yes"/>
      <point x="1851" y="527"/>
      <point x="1797" y="632"/>
      <point x="1647" y="715" type="curve"/>
      <point x="1405" y="603" type="line"/>
      <point x="1486" y="557"/>
      <point x="1509" y="507"/>
      <point x="1509" y="447" type="curve" smooth="yes"/>
      <point x="1509" y="443" type="line" smooth="yes"/>
      <point x="1509" y="377"/>
      <point x="1470" y="340"/>
      <point x="1399" y="340" type="curve" smooth="yes"/>
      <point x="1364" y="340"/>
      <point x="1326" y="349"/>
      <point x="1292" y="362" type="curve"/>
      <point x="1317" y="97" type="line"/>
      <point x="1371" y="75"/>
      <point x="1440" y="64"/>
    </contour>
    <contour>
      <point x="225" y="436" type="curve"/>
      <point x="553" y="497" type="line"/>
      <point x="534" y="550" type="line"/>
      <point x="614" y="596"/>
      <point x="663" y="663"/>
      <point x="663" y="765" type="curve" smooth="yes"/>
      <point x="663" y="775" type="line" smooth="yes"/>
      <point x="663" y="972"/>
      <point x="559" y="1083"/>
      <point x="336" y="1083" type="curve" smooth="yes"/>
      <point x="242" y="1083"/>
      <point x="150" y="1062"/>
      <point x="96" y="1037" type="curve"/>
      <point x="70" y="760" type="line"/>
      <point x="108" y="779"/>
      <point x="155" y="793"/>
      <point x="200" y="793" type="curve" smooth="yes"/>
      <point x="283" y="793"/>
      <point x="317" y="747"/>
      <point x="317" y="644" type="curve" smooth="yes"/>
      <point x="317" y="634" type="line" smooth="yes"/>
      <point x="317" y="538"/>
      <point x="292" y="483"/>
    </contour>
    <contour>
      <point x="72" y="78" type="line"/>
      <point x="861" y="367" type="line"/>
      <point x="861" y="666" type="line"/>
      <point x="685" y="600" type="line" smooth="yes"/>
      <point x="613" y="573"/>
      <point x="547" y="541"/>
      <point x="480" y="507" type="curve"/>
      <point x="463" y="521" type="line"/>
      <point x="72" y="385" type="line"/>
    </contour>
    <contour>
      <point x="1076" y="426" type="line"/>
      <point x="1610" y="637" type="line"/>
      <point x="1512" y="890" type="line"/>
      <point x="1076" y="725" type="line"/>
    </contour>
    <contour>
      <point x="1367" y="642" type="line"/>
      <point x="1682" y="690" type="line"/>
      <point x="1771" y="801" type="line"/>
      <point x="1756" y="900"/>
      <point x="1719" y="1001"/>
      <point x="1666" y="1073" type="curve"/>
      <point x="1367" y="1073" type="line"/>
    </contour>
    <contour>
      <point x="797" y="450" type="line"/>
      <point x="1150" y="450" type="line"/>
      <point x="1150" y="1207" type="line"/>
      <point x="797" y="1207" type="line"/>
    </contour>
    <contour>
      <point x="797" y="0" type="line"/>
      <point x="1150" y="0" type="line"/>
      <point x="1150" y="546" type="line"/>
      <point x="797" y="546" type="line"/>
    </contour>
  </outline>
</glyph>
<glyph name="Ka.gj" format="2">
  <advance width="1151"/>
  <unicode hex="0A95"/>
  <anchor x="591" y="-64" name="Bottom"/>
  <anchor x="700" y="1277" name="Top"/>
  <anchor x="567" y="1277" name="Top2"/>
  <outline>
    <contour>
      <point x="459" y="658" type="curve"/>
      <point x="643" y="741" type="line"/>
      <point x="514" y="750"/>
      <point x="472" y="789"/>
      <point x="472" y="840" type="curve" smooth="yes"/>
      <point x="472" y="844" type="line" smooth="yes"/>
      <point x="472" y="906"/>
      <point x="525" y="946"/>
      <point x="673" y="946" type="curve" smooth="yes"/>
      <point x="773" y="946"/>
      <point x="874" y="931"/>
      <point x="958" y="911" type="curve"/>
      <point x="929" y="1185" type="line"/>
      <point x="850" y="1214"/>
      <point x="729" y="1239"/>
      <point x="593" y="1239" type="curve" smooth="yes"/>
      <point x="275" y="1239"/>
      <point x="109" y="1133"/>
      <point x="109" y="928" type="curve" smooth="yes"/>
      <point x="109" y="919" type="line" smooth="yes"/>
      <point x="109" y="746"/>
      <point x="246" y="661"/>
    </contour>
    <contour>
      <point x="537" y="-29" type="curve" smooth="yes"/>
      <point x="854" y="-29"/>
      <point x="1049" y="76"/>
      <point x="1049" y="297" type="curve" smooth="yes"/>
      <point x="1049" y="307" type="line" smooth="yes"/>
      <point x="1049" y="478"/>
      <point x="924" y="570"/>
      <point x="712" y="569" type="curve"/>
      <point x="531" y="493" type="line"/>
      <point x="649" y="481"/>
      <point x="684" y="443"/>
      <point x="684" y="380" type="curve" smooth="yes"/>
      <point x="684" y="376" type="line" smooth="yes"/>
      <point x="684" y="301"/>
      <point x="615" y="268"/>
      <point x="479" y="268" type="curve" smooth="yes"/>
      <point x="337" y="268"/>
      <point x="219" y="284"/>
      <point x="107" y="308" type="curve"/>
      <point x="135" y="22" type="line"/>
      <point x="236" y="-6"/>
      <point x="371" y="-29"/>
    </contour>
    <contour>
      <point x="50" y="371" type="line"/>
      <point x="705" y="487" type="line"/>
      <point x="511" y="715" type="line"/>
      <point x="50" y="658" type="line"/>
    </contour>
    <contour>
      <point x="440" y="734" type="line"/>
      <point x="536" y="507" type="line"/>
      <point x="1116" y="578" type="line"/>
      <point x="1116" y="861" type="line"/>
    </contour>
  </outline>
</glyph>
<glyph name="Kha.gj" format="2">
  <advance width="1670"/>
  <unicode hex="0A96"/>
  <anchor x="1366" y="-64" name="Bottom"/>
  <anchor x="1345" y="1277" name="Top"/>
  <anchor x="1397" y="1277" name="Top2"/>
  <outline>
    <contour>
      <point x="134" y="760" type="line"/>
      <point x="487" y="760" type="line"/>
      <point x="487" y="925" type="line" smooth="yes"/>
      <point x="487" y="1130"/>
      <point x="396" y="1223"/>
      <point x="209" y="1223" type="curve" smooth="yes"/>
      <point x="142" y="1223"/>
      <point x="88" y="1213"/>
      <point x="40" y="1197" type="curve"/>
      <point x="19" y="941" type="line"/>
      <point x="35" y="945"/>
      <point x="54" y="948"/>
      <point x="73" y="948" type="curve" smooth="yes"/>
      <point x="118" y="948"/>
      <point x="134" y="922"/>
      <point x="134" y="873" type="curve" smooth="yes"/>
    </contour>
    <contour>
      <point x="580" y="103" type="curve" smooth="yes"/>
      <point x="877" y="103"/>
      <point x="1027" y="242"/>
      <point x="1027" y="538" type="curve" smooth="yes"/>
      <point x="1027" y="1024" type="line"/>
      <point x="681" y="1024" type="line"/>
      <point x="681" y="520" type="line" smooth="yes"/>
      <point x="681" y="441"/>
      <point x="648" y="399"/>
      <point x="584" y="399" type="curve" smooth="yes"/>
      <point x="519" y="399"/>
      <point x="487" y="441"/>
      <point x="487" y="520" type="curve" smooth="yes"/>
      <point x="487" y="788" type="line"/>
      <point x="134" y="788" type="line"/>
      <point x="134" y="538" type="line" smooth="yes"/>
      <point x="134" y="242"/>
      <point x="283" y="103"/>
    </contour>
    <contour>
      <point x="891" y="489" type="line"/>
      <point x="1547" y="489" type="line"/>
      <point x="1523" y="776" type="line"/>
      <point x="891" y="776" type="line"/>
    </contour>
    <contour>
      <point x="1221" y="450" type="line"/>
      <point x="1574" y="450" type="line"/>
      <point x="1574" y="1207" type="line"/>
      <point x="1221" y="1207" type="line"/>
    </contour>
    <contour>
      <point x="1221" y="0" type="line"/>
      <point x="1574" y="0" type="line"/>
      <point x="1574" y="546" type="line"/>
      <point x="1221" y="546" type="line"/>
    </contour>
  </outline>
</glyph>
<glyph name="Gha.gj" format="2">
  <advance width="1351"/>
  <unicode hex="0A98"/>
  <anchor x="1047" y="-64" name="Bottom"/>
  <anchor x="1026" y="1277" name="Top"/>
  <anchor x="1078" y="1277" name="Top2"/>
  <outline>
    <contour>
      <point x="509" y="58" type="curve" smooth="yes"/>
      <point x="745" y="58"/>
      <point x="853" y="139"/>
      <point x="890" y="261" type="curve"/>
      <point x="926" y="261" type="line"/>
      <point x="908" y="481" type="line"/>
      <point x="889" y="406"/>
      <point x="800" y="349"/>
      <point x="630" y="349" type="curve" smooth="yes"/>
      <point x="488" y="349"/>
      <point x="438" y="378"/>
      <point x="438" y="436" type="curve" smooth="yes"/>
      <point x="438" y="439" type="line" smooth="yes"/>
      <point x="438" y="488"/>
      <point x="472" y="514"/>
      <point x="556" y="517" type="curve" smooth="yes"/>
      <point x="708" y="523" type="line"/>
      <point x="708" y="791" type="line"/>
      <point x="556" y="797" type="line" smooth="yes"/>
      <point x="461" y="801"/>
      <point x="428" y="826"/>
      <point x="428" y="872" type="curve" smooth="yes"/>
      <point x="428" y="874" type="line" smooth="yes"/>
      <point x="428" y="927"/>
      <point x="478" y="953"/>
      <point x="581" y="953" type="curve" smooth="yes"/>
      <point x="650" y="953"/>
      <point x="707" y="942"/>
      <point x="757" y="928" type="curve"/>
      <point x="730" y="1200" type="line"/>
      <point x="669" y="1222"/>
      <point x="581" y="1239"/>
      <point x="483" y="1239" type="curve" smooth="yes"/>
      <point x="218" y="1239"/>
      <point x="63" y="1138"/>
      <point x="63" y="933" type="curve" smooth="yes"/>
      <point x="63" y="927" type="line" smooth="yes"/>
      <point x="63" y="763"/>
      <point x="139" y="679"/>
      <point x="322" y="660" type="curve"/>
      <point x="322" y="653" type="line"/>
      <point x="150" y="632"/>
      <point x="73" y="541"/>
      <point x="73" y="386" type="curve" smooth="yes"/>
      <point x="73" y="377" type="line" smooth="yes"/>
      <point x="73" y="182"/>
      <point x="212" y="58"/>
    </contour>
    <contour>
      <point x="902" y="450" type="line"/>
      <point x="1255" y="450" type="line"/>
      <point x="1255" y="1207" type="line"/>
      <point x="902" y="1207" type="line"/>
    </contour>
    <contour>
      <point x="902" y="0" type="line"/>
      <point x="1255" y="0" type="line"/>
      <point x="1255" y="546" type="line"/>
      <point x="902" y="546" type="line"/>
    </contour>
  </outline>
</glyph>
<glyph name="Ca.gj" format="2">
  <advance width="1387"/>
  <unicode hex="0A9A"/>
  <guideline x="612" y="83" angle="0"/>
  <anchor x="1083" y="-64" name="Bottom"/>
  <anchor x="1062" y="1277" name="Top"/>
  <anchor x="1114" y="1277" name="Top2"/>
  <outline>
    <contour>
      <point x="733" y="380" type="curve" smooth="yes"/>
      <point x="612" y="380"/>
      <point x="546" y="425"/>
      <point x="543" y="510" type="curve" smooth="yes"/>
      <point x="541" y="567" type="line"/>
      <point x="184" y="537" type="line"/>
      <point x="186" y="485" type="line" smooth="yes"/>
      <point x="198" y="216"/>
      <point x="340" y="83"/>
      <point x="612" y="83" type="curve" smooth="yes"/>
      <point x="814" y="83"/>
      <point x="896" y="169"/>
      <point x="926" y="286" type="curve"/>
      <point x="956" y="286" type="line"/>
      <point x="947" y="506" type="line"/>
      <point x="920" y="442"/>
      <point x="857" y="380"/>
    </contour>
    <contour>
      <point x="938" y="450" type="line"/>
      <point x="1291" y="450" type="line"/>
      <point x="1291" y="1207" type="line"/>
      <point x="938" y="1207" type="line"/>
    </contour>
    <contour>
      <point x="938" y="0" type="line"/>
      <point x="1291" y="0" type="line"/>
      <point x="1291" y="546" type="line"/>
      <point x="938" y="546" type="line"/>
    </contour>
    <contour>
      <point x="288" y="395" type="line"/>
      <point x="301" y="454" type="line"/>
      <point x="401" y="454" type="line" smooth="yes"/>
      <point x="625" y="455"/>
      <point x="756" y="586"/>
      <point x="756" y="822" type="curve" smooth="yes"/>
      <point x="756" y="846" type="line" smooth="yes"/>
      <point x="756" y="1112"/>
      <point x="608" y="1239"/>
      <point x="351" y="1239" type="curve" smooth="yes"/>
      <point x="246" y="1239"/>
      <point x="154" y="1219"/>
      <point x="92" y="1195" type="curve"/>
      <point x="67" y="923" type="line"/>
      <point x="122" y="940"/>
      <point x="184" y="953"/>
      <point x="254" y="953" type="curve" smooth="yes"/>
      <point x="348" y="953"/>
      <point x="400" y="916"/>
      <point x="400" y="837" type="curve" smooth="yes"/>
      <point x="400" y="827" type="line" smooth="yes"/>
      <point x="400" y="747"/>
      <point x="342" y="710"/>
      <point x="239" y="709" type="curve" smooth="yes"/>
      <point x="43" y="707" type="line"/>
      <point x="43" y="449" type="line"/>
    </contour>
  </outline>
</glyph>
<glyph name="Cha.gj" format="2">
  <advance width="1594"/>
  <unicode hex="0A9B"/>
  <guideline x="1185" y="620" angle="90"/>
  <anchor x="752" y="-64" name="Bottom"/>
  <anchor x="1206" y="1277" name="Top"/>
  <anchor x="1116" y="1277" name="Top2"/>
  <outline>
    <contour>
      <point x="742" y="-29" type="curve" smooth="yes"/>
      <point x="1246" y="-29"/>
      <point x="1527" y="212"/>
      <point x="1527" y="647" type="curve" smooth="yes"/>
      <point x="1527" y="683" type="line"/>
      <point x="1185" y="683" type="line"/>
      <point x="1185" y="620" type="line" smooth="yes"/>
      <point x="1185" y="397"/>
      <point x="1024" y="268"/>
      <point x="742" y="268" type="curve" smooth="yes"/>
      <point x="515" y="268"/>
      <point x="432" y="308"/>
      <point x="432" y="390" type="curve" smooth="yes"/>
      <point x="432" y="393" type="line" smooth="yes"/>
      <point x="432" y="451"/>
      <point x="465" y="482"/>
      <point x="546" y="486" type="curve" smooth="yes"/>
      <point x="655" y="492" type="line"/>
      <point x="655" y="768" type="line"/>
      <point x="543" y="774" type="line" smooth="yes"/>
      <point x="462" y="778"/>
      <point x="434" y="809"/>
      <point x="434" y="862" type="curve" smooth="yes"/>
      <point x="434" y="866" type="line" smooth="yes"/>
      <point x="434" y="926"/>
      <point x="473" y="953"/>
      <point x="552" y="953" type="curve" smooth="yes"/>
      <point x="601" y="953"/>
      <point x="642" y="945"/>
      <point x="676" y="933" type="curve"/>
      <point x="649" y="1205" type="line"/>
      <point x="601" y="1224"/>
      <point x="532" y="1239"/>
      <point x="453" y="1239" type="curve" smooth="yes"/>
      <point x="210" y="1239"/>
      <point x="69" y="1134"/>
      <point x="69" y="917" type="curve" smooth="yes"/>
      <point x="69" y="908" type="line" smooth="yes"/>
      <point x="69" y="738"/>
      <point x="143" y="654"/>
      <point x="319" y="633" type="curve"/>
      <point x="319" y="626" type="line"/>
      <point x="145" y="604"/>
      <point x="67" y="513"/>
      <point x="67" y="358" type="curve" smooth="yes"/>
      <point x="67" y="350" type="line" smooth="yes"/>
      <point x="67" y="115"/>
      <point x="275" y="-29"/>
    </contour>
    <contour>
      <point x="974" y="453" type="curve" smooth="yes"/>
      <point x="1088" y="453"/>
      <point x="1149" y="517"/>
      <point x="1174" y="613" type="curve"/>
      <point x="1196" y="613" type="line"/>
      <point x="1197" y="745" type="line"/>
      <point x="1181" y="720"/>
      <point x="1155" y="702"/>
      <point x="1121" y="702" type="curve" smooth="yes"/>
      <point x="1070" y="702"/>
      <point x="1047" y="733"/>
      <point x="1047" y="796" type="curve" smooth="yes"/>
      <point x="1047" y="874" type="line" smooth="yes"/>
      <point x="1047" y="936"/>
      <point x="1072" y="968"/>
      <point x="1117" y="968" type="curve" smooth="yes"/>
      <point x="1166" y="968"/>
      <point x="1190" y="932"/>
      <point x="1190" y="855" type="curve" smooth="yes"/>
      <point x="1190" y="672" type="line"/>
      <point x="1527" y="672" type="line"/>
      <point x="1527" y="800" type="line" smooth="yes"/>
      <point x="1527" y="1095"/>
      <point x="1392" y="1239"/>
      <point x="1115" y="1239" type="curve" smooth="yes"/>
      <point x="859" y="1239"/>
      <point x="728" y="1117"/>
      <point x="728" y="872" type="curve" smooth="yes"/>
      <point x="728" y="754" type="line" smooth="yes"/>
      <point x="728" y="544"/>
      <point x="828" y="453"/>
    </contour>
  </outline>
</glyph>
<glyph name="Ja.gj" format="2">
  <advance width="1558"/>
  <unicode hex="0A9C"/>
  <anchor x="962" y="-64" name="Bottom"/>
  <anchor x="1166" y="1277" name="Top"/>
  <anchor x="1370" y="1277" name="Top2"/>
  <outline>
    <contour>
      <point x="1092" y="656" type="line"/>
      <point x="1577" y="1181" type="line"/>
      <point x="1577" y="1207" type="line"/>
      <point x="1169" y="1207" type="line"/>
      <point x="863" y="821" type="line"/>
    </contour>
    <contour>
      <point x="414" y="409" type="line"/>
      <point x="414" y="863" type="line" smooth="yes"/>
      <point x="414" y="926"/>
      <point x="435" y="959"/>
      <point x="482" y="959" type="curve" smooth="yes"/>
      <point x="518" y="959"/>
      <point x="543" y="940"/>
      <point x="590" y="886" type="curve" smooth="yes"/>
      <point x="848" y="588" type="line"/>
      <point x="1111" y="764" type="line"/>
      <point x="861" y="1048" type="line" smooth="yes"/>
      <point x="755" y="1169"/>
      <point x="646" y="1239"/>
      <point x="461" y="1239" type="curve" smooth="yes"/>
      <point x="205" y="1239"/>
      <point x="72" y="1102"/>
      <point x="72" y="844" type="curve" smooth="yes"/>
      <point x="72" y="463" type="line"/>
    </contour>
    <contour>
      <point x="947" y="-29" type="curve" smooth="yes"/>
      <point x="1246" y="-29"/>
      <point x="1407" y="91"/>
      <point x="1407" y="324" type="curve" smooth="yes"/>
      <point x="1407" y="333" type="line" smooth="yes"/>
      <point x="1407" y="477"/>
      <point x="1324" y="579"/>
      <point x="1209" y="702" type="curve" smooth="yes"/>
      <point x="1092" y="827" type="line"/>
      <point x="857" y="642" type="line"/>
      <point x="950" y="538" type="line" smooth="yes"/>
      <point x="1007" y="474"/>
      <point x="1054" y="420"/>
      <point x="1054" y="360" type="curve" smooth="yes"/>
      <point x="1054" y="352" type="line" smooth="yes"/>
      <point x="1054" y="284"/>
      <point x="1017" y="252"/>
      <point x="947" y="252" type="curve" smooth="yes"/>
      <point x="874" y="252"/>
      <point x="837" y="284"/>
      <point x="837" y="352" type="curve" smooth="yes"/>
      <point x="837" y="360" type="line" smooth="yes"/>
      <point x="837" y="426"/>
      <point x="874" y="472"/>
      <point x="937" y="539" type="curve" smooth="yes"/>
      <point x="1046" y="660" type="line"/>
      <point x="806" y="830" type="line"/>
      <point x="685" y="708" type="line" smooth="yes"/>
      <point x="562" y="570"/>
      <point x="484" y="483"/>
      <point x="484" y="333" type="curve" smooth="yes"/>
      <point x="484" y="324" type="line" smooth="yes"/>
      <point x="484" y="91"/>
      <point x="646" y="-29"/>
    </contour>
  </outline>
</glyph>
<glyph name="Jha.gj" format="2">
  <advance width="1485"/>
  <unicode hex="0A9D"/>
  <anchor x="1036" y="-64" name="Bottom"/>
  <anchor x="1045" y="1277" name="Top"/>
  <anchor x="1229" y="1277" name="Top2"/>
  <outline>
    <contour>
      <point x="342" y="105" type="curve" smooth="yes"/>
      <point x="630" y="105"/>
      <point x="803" y="254"/>
      <point x="803" y="596" type="curve" smooth="yes"/>
      <point x="803" y="756" type="line" smooth="yes"/>
      <point x="803" y="1091"/>
      <point x="632" y="1239"/>
      <point x="348" y="1239" type="curve" smooth="yes"/>
      <point x="254" y="1239"/>
      <point x="161" y="1219"/>
      <point x="91" y="1185" type="curve"/>
      <point x="66" y="901" type="line"/>
      <point x="125" y="927"/>
      <point x="188" y="944"/>
      <point x="258" y="944" type="curve" smooth="yes"/>
      <point x="378" y="944"/>
      <point x="440" y="880"/>
      <point x="440" y="744" type="curve" smooth="yes"/>
      <point x="440" y="608" type="line" smooth="yes"/>
      <point x="440" y="470"/>
      <point x="379" y="402"/>
      <point x="254" y="402" type="curve" smooth="yes"/>
      <point x="176" y="402"/>
      <point x="114" y="417"/>
      <point x="48" y="444" type="curve"/>
      <point x="74" y="166" type="line"/>
      <point x="141" y="127"/>
      <point x="237" y="105"/>
    </contour>
    <contour>
      <point x="1026" y="-29" type="curve" smooth="yes"/>
      <point x="1300" y="-29"/>
      <point x="1424" y="101"/>
      <point x="1424" y="370" type="curve" smooth="yes"/>
      <point x="1424" y="409" type="line" smooth="yes"/>
      <point x="1424" y="654"/>
      <point x="1274" y="777"/>
      <point x="1037" y="782" type="curve"/>
      <point x="1019" y="802" type="line"/>
      <point x="764" y="802" type="line"/>
      <point x="764" y="545" type="line"/>
      <point x="909" y="545" type="line" smooth="yes"/>
      <point x="1019" y="545"/>
      <point x="1072" y="507"/>
      <point x="1072" y="408" type="curve" smooth="yes"/>
      <point x="1072" y="386" type="line" smooth="yes"/>
      <point x="1072" y="298"/>
      <point x="1031" y="254"/>
      <point x="940" y="254" type="curve" smooth="yes"/>
      <point x="888" y="254"/>
      <point x="840" y="263"/>
      <point x="795" y="279" type="curve"/>
      <point x="821" y="8" type="line"/>
      <point x="879" y="-15"/>
      <point x="950" y="-29"/>
    </contour>
    <contour>
      <point x="1094" y="692" type="line"/>
      <point x="1165" y="765"/>
      <point x="1221" y="837"/>
      <point x="1269" y="923" type="curve" smooth="yes"/>
      <point x="1433" y="1192" type="line"/>
      <point x="1433" y="1207" type="line"/>
      <point x="1025" y="1207" type="line"/>
      <point x="833" y="750" type="line"/>
    </contour>
  </outline>
</glyph>
<glyph name="Nya.gj" format="2">
  <advance width="1428"/>
  <unicode hex="0A9E"/>
  <anchor x="1124" y="-64" name="Bottom"/>
  <anchor x="1103" y="1277" name="Top"/>
  <anchor x="1155" y="1277" name="Top2"/>
  <outline>
    <contour>
      <point x="344" y="142" type="curve" smooth="yes"/>
      <point x="622" y="142"/>
      <point x="784" y="284"/>
      <point x="784" y="610" type="curve" smooth="yes"/>
      <point x="784" y="721" type="line" smooth="yes"/>
      <point x="784" y="1045"/>
      <point x="623" y="1188"/>
      <point x="348" y="1188" type="curve" smooth="yes"/>
      <point x="253" y="1188"/>
      <point x="160" y="1168"/>
      <point x="89" y="1134" type="curve"/>
      <point x="64" y="851" type="line"/>
      <point x="122" y="877"/>
      <point x="183" y="894"/>
      <point x="252" y="894" type="curve" smooth="yes"/>
      <point x="365" y="894"/>
      <point x="419" y="835"/>
      <point x="419" y="707" type="curve" smooth="yes"/>
      <point x="419" y="631" type="line" smooth="yes"/>
      <point x="419" y="502"/>
      <point x="364" y="439"/>
      <point x="250" y="439" type="curve" smooth="yes"/>
      <point x="173" y="439"/>
      <point x="112" y="454"/>
      <point x="48" y="481" type="curve"/>
      <point x="74" y="203" type="line"/>
      <point x="142" y="164"/>
      <point x="238" y="142"/>
    </contour>
    <contour>
      <point x="675" y="509" type="line"/>
      <point x="1099" y="509" type="line"/>
      <point x="1075" y="796" type="line"/>
      <point x="675" y="796" type="line"/>
    </contour>
    <contour>
      <point x="979" y="450" type="line"/>
      <point x="1332" y="450" type="line"/>
      <point x="1332" y="1207" type="line"/>
      <point x="979" y="1207" type="line"/>
    </contour>
    <contour>
      <point x="979" y="0" type="line"/>
      <point x="1332" y="0" type="line"/>
      <point x="1332" y="546" type="line"/>
      <point x="979" y="546" type="line"/>
    </contour>
  </outline>
</glyph>
<glyph name="Tta.gj" format="2">
  <advance width="1086"/>
  <unicode hex="0A9F"/>
  <anchor x="626" y="-64" name="Bottom"/>
  <anchor x="703" y="1277" name="Top"/>
  <anchor x="597" y="1277" name="Top2"/>
  <outline>
    <contour>
      <point x="616" y="-29" type="curve" smooth="yes"/>
      <point x="758" y="-29"/>
      <point x="894" y="-2"/>
      <point x="997" y="36" type="curve"/>
      <point x="1027" y="340" type="line"/>
      <point x="919" y="299"/>
      <point x="767" y="268"/>
      <point x="645" y="268" type="curve" smooth="yes"/>
      <point x="483" y="268"/>
      <point x="416" y="300"/>
      <point x="416" y="373" type="curve" smooth="yes"/>
      <point x="416" y="377" type="line" smooth="yes"/>
      <point x="416" y="439"/>
      <point x="452" y="477"/>
      <point x="565" y="500" type="curve" smooth="yes"/>
      <point x="731" y="534" type="line" smooth="yes"/>
      <point x="932" y="575"/>
      <point x="1025" y="686"/>
      <point x="1025" y="862" type="curve" smooth="yes"/>
      <point x="1025" y="874" type="line" smooth="yes"/>
      <point x="1025" y="1125"/>
      <point x="850" y="1239"/>
      <point x="542" y="1239" type="curve" smooth="yes"/>
      <point x="412" y="1239"/>
      <point x="279" y="1210"/>
      <point x="196" y="1176" type="curve"/>
      <point x="160" y="891" type="line"/>
      <point x="268" y="922"/>
      <point x="387" y="946"/>
      <point x="488" y="946" type="curve" smooth="yes"/>
      <point x="616" y="946"/>
      <point x="662" y="925"/>
      <point x="662" y="872" type="curve" smooth="yes"/>
      <point x="662" y="868" type="line" smooth="yes"/>
      <point x="662" y="827"/>
      <point x="636" y="801"/>
      <point x="555" y="784" type="curve" smooth="yes"/>
      <point x="443" y="761" type="line" smooth="yes"/>
      <point x="146" y="700"/>
      <point x="51" y="578"/>
      <point x="51" y="384" type="curve" smooth="yes"/>
      <point x="51" y="366" type="line" smooth="yes"/>
      <point x="51" y="110"/>
      <point x="228" y="-29"/>
    </contour>
  </outline>
</glyph>
<glyph name="Dda.gj" format="2">
  <advance width="1076"/>
  <unicode hex="0AA1"/>
  <anchor x="570" y="-64" name="Bottom"/>
  <anchor x="673" y="1277" name="Top"/>
  <anchor x="542" y="1277" name="Top2"/>
  <outline>
    <contour>
      <point x="512" y="-29" type="curve" smooth="yes"/>
      <point x="828" y="-29"/>
      <point x="1017" y="88"/>
      <point x="1017" y="350" type="curve" smooth="yes"/>
      <point x="1017" y="366" type="line" smooth="yes"/>
      <point x="1017" y="578"/>
      <point x="913" y="676"/>
      <point x="658" y="735" type="curve" smooth="yes"/>
      <point x="559" y="758" type="line" smooth="yes"/>
      <point x="471" y="778"/>
      <point x="432" y="807"/>
      <point x="432" y="853" type="curve" smooth="yes"/>
      <point x="432" y="857" type="line" smooth="yes"/>
      <point x="432" y="914"/>
      <point x="480" y="946"/>
      <point x="621" y="946" type="curve" smooth="yes"/>
      <point x="733" y="946"/>
      <point x="849" y="920"/>
      <point x="943" y="883" type="curve"/>
      <point x="913" y="1171" type="line"/>
      <point x="827" y="1208"/>
      <point x="701" y="1239"/>
      <point x="553" y="1239" type="curve" smooth="yes"/>
      <point x="231" y="1239"/>
      <point x="69" y="1115"/>
      <point x="69" y="871" type="curve" smooth="yes"/>
      <point x="69" y="859" type="line" smooth="yes"/>
      <point x="69" y="672"/>
      <point x="168" y="551"/>
      <point x="424" y="498" type="curve" smooth="yes"/>
      <point x="511" y="480" type="line" smooth="yes"/>
      <point x="623" y="457"/>
      <point x="654" y="427"/>
      <point x="654" y="374" type="curve" smooth="yes"/>
      <point x="654" y="370" type="line" smooth="yes"/>
      <point x="654" y="305"/>
      <point x="593" y="268"/>
      <point x="454" y="268" type="curve" smooth="yes"/>
      <point x="309" y="268"/>
      <point x="175" y="313"/>
      <point x="69" y="359" type="curve"/>
      <point x="99" y="53" type="line"/>
      <point x="202" y="9"/>
      <point x="346" y="-29"/>
    </contour>
  </outline>
</glyph>
<glyph name="Ddha.gj" format="2">
  <advance width="1238"/>
  <unicode hex="0AA2"/>
  <anchor x="666" y="-64" name="Bottom"/>
  <anchor x="771" y="1277" name="Top"/>
  <anchor x="637" y="1277" name="Top2"/>
  <outline>
    <contour>
      <point x="650" y="-29" type="curve" smooth="yes"/>
      <point x="978" y="-29"/>
      <point x="1195" y="75"/>
      <point x="1195" y="308" type="curve" smooth="yes"/>
      <point x="1195" y="318" type="line" smooth="yes"/>
      <point x="1195" y="507"/>
      <point x="1068" y="597"/>
      <point x="841" y="597" type="curve" smooth="yes"/>
      <point x="609" y="597"/>
      <point x="487" y="520"/>
      <point x="487" y="384" type="curve" smooth="yes"/>
      <point x="487" y="378" type="line" smooth="yes"/>
      <point x="487" y="296"/>
      <point x="529" y="251"/>
      <point x="635" y="220" type="curve"/>
      <point x="635" y="191" type="line"/>
      <point x="832" y="207" type="line"/>
      <point x="791" y="232"/>
      <point x="764" y="260"/>
      <point x="764" y="300" type="curve" smooth="yes"/>
      <point x="764" y="306" type="line" smooth="yes"/>
      <point x="764" y="346"/>
      <point x="786" y="366"/>
      <point x="827" y="366" type="curve" smooth="yes"/>
      <point x="869" y="366"/>
      <point x="891" y="347"/>
      <point x="891" y="306" type="curve" smooth="yes"/>
      <point x="891" y="300" type="line" smooth="yes"/>
      <point x="891" y="262"/>
      <point x="861" y="229"/>
      <point x="741" y="220" type="curve"/>
      <point x="723" y="233" type="line"/>
      <point x="700" y="218"/>
      <point x="673" y="213"/>
      <point x="632" y="213" type="curve" smooth="yes"/>
      <point x="467" y="213"/>
      <point x="383" y="284"/>
      <point x="383" y="404" type="curve" smooth="yes"/>
      <point x="383" y="415" type="line" smooth="yes"/>
      <point x="383" y="536"/>
      <point x="445" y="596"/>
      <point x="585" y="619" type="curve" smooth="yes"/>
      <point x="791" y="653" type="line" smooth="yes"/>
      <point x="997" y="687"/>
      <point x="1070" y="774"/>
      <point x="1070" y="942" type="curve" smooth="yes"/>
      <point x="1070" y="948" type="line" smooth="yes"/>
      <point x="1070" y="1134"/>
      <point x="926" y="1239"/>
      <point x="606" y="1239" type="curve" smooth="yes"/>
      <point x="474" y="1239"/>
      <point x="339" y="1211"/>
      <point x="255" y="1179" type="curve"/>
      <point x="222" y="917" type="line"/>
      <point x="332" y="946"/>
      <point x="454" y="969"/>
      <point x="557" y="969" type="curve" smooth="yes"/>
      <point x="689" y="969"/>
      <point x="716" y="955"/>
      <point x="716" y="925" type="curve" smooth="yes"/>
      <point x="716" y="923" type="line" smooth="yes"/>
      <point x="716" y="897"/>
      <point x="692" y="884"/>
      <point x="633" y="874" type="curve" smooth="yes"/>
      <point x="447" y="844" type="line" smooth="yes"/>
      <point x="191" y="803"/>
      <point x="51" y="674"/>
      <point x="51" y="422" type="curve" smooth="yes"/>
      <point x="51" y="404" type="line" smooth="yes"/>
      <point x="51" y="127"/>
      <point x="263" y="-29"/>
    </contour>
  </outline>
</glyph>
<glyph name="Nna.gj" format="2">
  <advance width="1793"/>
  <unicode hex="0AA3"/>
  <anchor x="1489" y="-64" name="Bottom"/>
  <anchor x="1468" y="1277" name="Top"/>
  <anchor x="1520" y="1277" name="Top2"/>
  <outline>
    <contour>
      <point x="1344" y="450" type="line"/>
      <point x="1697" y="450" type="line"/>
      <point x="1697" y="1207" type="line"/>
      <point x="1344" y="1207" type="line"/>
    </contour>
    <contour>
      <point x="1344" y="0" type="line"/>
      <point x="1697" y="0" type="line"/>
      <point x="1697" y="546" type="line"/>
      <point x="1344" y="546" type="line"/>
    </contour>
    <contour>
      <point x="832" y="395" type="curve" smooth="yes"/>
      <point x="1070" y="395"/>
      <point x="1213" y="519"/>
      <point x="1213" y="789" type="curve" smooth="yes"/>
      <point x="1213" y="846" type="line" smooth="yes"/>
      <point x="1213" y="1118"/>
      <point x="1071" y="1239"/>
      <point x="834" y="1239" type="curve" smooth="yes"/>
      <point x="747" y="1239"/>
      <point x="662" y="1223"/>
      <point x="597" y="1195" type="curve"/>
      <point x="573" y="929" type="line"/>
      <point x="624" y="948"/>
      <point x="679" y="961"/>
      <point x="740" y="961" type="curve" smooth="yes"/>
      <point x="818" y="961"/>
      <point x="863" y="924"/>
      <point x="863" y="835" type="curve" smooth="yes"/>
      <point x="863" y="801" type="line" smooth="yes"/>
      <point x="863" y="710"/>
      <point x="817" y="673"/>
      <point x="737" y="673" type="curve" smooth="yes"/>
      <point x="672" y="673"/>
      <point x="621" y="686"/>
      <point x="566" y="710" type="curve"/>
      <point x="591" y="451" type="line"/>
      <point x="652" y="415"/>
      <point x="737" y="395"/>
    </contour>
    <contour>
      <point x="724" y="-29" type="curve" smooth="yes"/>
      <point x="882" y="-29"/>
      <point x="1033" y="-3"/>
      <point x="1130" y="31" type="curve"/>
      <point x="1158" y="324" type="line"/>
      <point x="1038" y="290"/>
      <point x="899" y="268"/>
      <point x="782" y="268" type="curve" smooth="yes"/>
      <point x="549" y="268"/>
      <point x="442" y="347"/>
      <point x="442" y="532" type="curve" smooth="yes"/>
      <point x="442" y="1207" type="line"/>
      <point x="89" y="1207" type="line"/>
      <point x="89" y="504" type="line" smooth="yes"/>
      <point x="89" y="134"/>
      <point x="300" y="-29"/>
    </contour>
  </outline>
</glyph>
<glyph name="Ta.gj" format="2">
  <advance width="1212"/>
  <unicode hex="0AA4"/>
  <anchor x="908" y="-64" name="Bottom"/>
  <anchor x="887" y="1277" name="Top"/>
  <anchor x="939" y="1277" name="Top2"/>
  <outline>
    <contour>
      <point x="763" y="450" type="line"/>
      <point x="1116" y="450" type="line"/>
      <point x="1116" y="1207" type="line"/>
      <point x="763" y="1207" type="line"/>
    </contour>
    <contour>
      <point x="763" y="0" type="line"/>
      <point x="1116" y="0" type="line"/>
      <point x="1116" y="546" type="line"/>
      <point x="763" y="546" type="line"/>
    </contour>
    <contour>
      <point x="201" y="0" type="curve"/>
      <point x="560" y="0" type="line"/>
      <point x="471" y="196"/>
      <point x="419" y="356"/>
      <point x="419" y="486" type="curve" smooth="yes"/>
      <point x="419" y="602"/>
      <point x="471" y="659"/>
      <point x="595" y="659" type="curve" smooth="yes"/>
      <point x="936" y="659" type="line"/>
      <point x="936" y="946" type="line"/>
      <point x="502" y="946" type="line" smooth="yes"/>
      <point x="191" y="946"/>
      <point x="56" y="798"/>
      <point x="56" y="540" type="curve" smooth="yes"/>
      <point x="56" y="361"/>
      <point x="109" y="181"/>
    </contour>
  </outline>
</glyph>
<glyph name="Tha.gj" format="2">
  <advance width="1426"/>
  <unicode hex="0AA5"/>
  <anchor x="1122" y="-64" name="Bottom"/>
  <anchor x="1101" y="1277" name="Top"/>
  <anchor x="1153" y="1277" name="Top2"/>
  <outline>
    <contour>
      <point x="581" y="62" type="curve" smooth="yes"/>
      <point x="817" y="62"/>
      <point x="929" y="151"/>
      <point x="966" y="276" type="curve"/>
      <point x="997" y="276" type="line"/>
      <point x="986" y="496" type="line"/>
      <point x="949" y="418"/>
      <point x="860" y="354"/>
      <point x="670" y="354" type="curve" smooth="yes"/>
      <point x="473" y="354"/>
      <point x="407" y="432"/>
      <point x="407" y="548" type="curve" smooth="yes"/>
      <point x="407" y="573"/>
      <point x="407" y="597"/>
      <point x="407" y="622" type="curve"/>
      <point x="238" y="447" type="line"/>
      <point x="437" y="448" type="line" smooth="yes"/>
      <point x="735" y="449"/>
      <point x="872" y="586"/>
      <point x="872" y="854" type="curve" smooth="yes"/>
      <point x="872" y="870" type="line" smooth="yes"/>
      <point x="872" y="1112"/>
      <point x="729" y="1239"/>
      <point x="463" y="1239" type="curve" smooth="yes"/>
      <point x="205" y="1239"/>
      <point x="70" y="1131"/>
      <point x="70" y="930" type="curve" smooth="yes"/>
      <point x="70" y="875"/>
      <point x="81" y="820"/>
      <point x="98" y="778" type="curve"/>
      <point x="380" y="778" type="line"/>
      <point x="380" y="811"/>
      <point x="380" y="838"/>
      <point x="380" y="877" type="curve" smooth="yes"/>
      <point x="380" y="943"/>
      <point x="408" y="976"/>
      <point x="462" y="976" type="curve" smooth="yes"/>
      <point x="517" y="976"/>
      <point x="543" y="940"/>
      <point x="543" y="872" type="curve" smooth="yes"/>
      <point x="543" y="858" type="line" smooth="yes"/>
      <point x="543" y="745"/>
      <point x="482" y="690"/>
      <point x="312" y="688" type="curve" smooth="yes"/>
      <point x="79" y="687" type="line"/>
      <point x="72" y="645"/>
      <point x="68" y="602"/>
      <point x="68" y="537" type="curve" smooth="yes"/>
      <point x="68" y="237"/>
      <point x="234" y="62"/>
    </contour>
    <contour>
      <point x="977" y="450" type="line"/>
      <point x="1330" y="450" type="line"/>
      <point x="1330" y="1207" type="line"/>
      <point x="977" y="1207" type="line"/>
    </contour>
    <contour>
      <point x="977" y="0" type="line"/>
      <point x="1330" y="0" type="line"/>
      <point x="1330" y="546" type="line"/>
      <point x="977" y="546" type="line"/>
    </contour>
  </outline>
</glyph>
<glyph name="Da.gj" format="2">
  <advance width="994"/>
  <unicode hex="0AA6"/>
  <anchor x="583" y="-64" name="Bottom"/>
  <anchor x="672" y="1277" name="Top"/>
  <anchor x="554" y="1277" name="Top2"/>
  <outline>
    <contour>
      <point x="565" y="-29" type="curve" smooth="yes"/>
      <point x="703" y="-29"/>
      <point x="828" y="-2"/>
      <point x="913" y="37" type="curve"/>
      <point x="941" y="331" type="line"/>
      <point x="841" y="292"/>
      <point x="744" y="265"/>
      <point x="622" y="265" type="curve" smooth="yes"/>
      <point x="496" y="265"/>
      <point x="433" y="298"/>
      <point x="433" y="365" type="curve" smooth="yes"/>
      <point x="433" y="370" type="line" smooth="yes"/>
      <point x="433" y="434"/>
      <point x="479" y="464"/>
      <point x="584" y="468" type="curve" smooth="yes"/>
      <point x="829" y="477" type="line"/>
      <point x="829" y="753" type="line"/>
      <point x="581" y="759" type="line" smooth="yes"/>
      <point x="488" y="761"/>
      <point x="446" y="795"/>
      <point x="446" y="848" type="curve" smooth="yes"/>
      <point x="446" y="852" type="line" smooth="yes"/>
      <point x="446" y="915"/>
      <point x="506" y="949"/>
      <point x="621" y="949" type="curve" smooth="yes"/>
      <point x="725" y="949"/>
      <point x="834" y="927"/>
      <point x="921" y="894" type="curve"/>
      <point x="891" y="1179" type="line"/>
      <point x="810" y="1212"/>
      <point x="692" y="1239"/>
      <point x="553" y="1239" type="curve" smooth="yes"/>
      <point x="256" y="1239"/>
      <point x="81" y="1127"/>
      <point x="81" y="901" type="curve" smooth="yes"/>
      <point x="81" y="891" type="line" smooth="yes"/>
      <point x="81" y="724"/>
      <point x="162" y="635"/>
      <point x="339" y="617" type="curve"/>
      <point x="339" y="610" type="line"/>
      <point x="156" y="585"/>
      <point x="68" y="488"/>
      <point x="68" y="323" type="curve" smooth="yes"/>
      <point x="68" y="311" type="line" smooth="yes"/>
      <point x="68" y="93"/>
      <point x="242" y="-29"/>
    </contour>
  </outline>
</glyph>
<glyph name="Dha.gj" format="2">
  <advance width="1294"/>
  <unicode hex="0AA7"/>
  <anchor x="990" y="-64" name="Bottom"/>
  <anchor x="969" y="1277" name="Top"/>
  <anchor x="1021" y="1277" name="Top2"/>
  <outline>
    <contour>
      <point x="477" y="58" type="curve" smooth="yes"/>
      <point x="694" y="58"/>
      <point x="793" y="141"/>
      <point x="833" y="261" type="curve"/>
      <point x="869" y="261" type="line"/>
      <point x="850" y="480" type="line"/>
      <point x="832" y="406"/>
      <point x="745" y="349"/>
      <point x="607" y="349" type="curve" smooth="yes"/>
      <point x="478" y="349"/>
      <point x="429" y="383"/>
      <point x="429" y="455" type="curve" smooth="yes"/>
      <point x="429" y="458" type="line" smooth="yes"/>
      <point x="429" y="520"/>
      <point x="465" y="554"/>
      <point x="552" y="557" type="curve" smooth="yes"/>
      <point x="716" y="563" type="line"/>
      <point x="716" y="830" type="line"/>
      <point x="552" y="836" type="line" smooth="yes"/>
      <point x="465" y="839"/>
      <point x="427" y="875"/>
      <point x="427" y="937" type="curve" smooth="yes"/>
      <point x="427" y="941" type="line" smooth="yes"/>
      <point x="427" y="1042"/>
      <point x="501" y="1143"/>
      <point x="613" y="1271" type="curve"/>
      <point x="613" y="1284" type="line"/>
      <point x="215" y="1284" type="line"/>
      <point x="109" y="1168"/>
      <point x="63" y="1071"/>
      <point x="63" y="954" type="curve" smooth="yes"/>
      <point x="63" y="948" type="line" smooth="yes"/>
      <point x="63" y="799"/>
      <point x="137" y="718"/>
      <point x="313" y="700" type="curve"/>
      <point x="313" y="692" type="line"/>
      <point x="141" y="671"/>
      <point x="64" y="574"/>
      <point x="64" y="411" type="curve" smooth="yes"/>
      <point x="64" y="401" type="line" smooth="yes"/>
      <point x="64" y="191"/>
      <point x="197" y="58"/>
    </contour>
    <contour>
      <point x="845" y="450" type="line"/>
      <point x="1198" y="450" type="line"/>
      <point x="1198" y="1207" type="line"/>
      <point x="845" y="1207" type="line"/>
    </contour>
    <contour>
      <point x="845" y="0" type="line"/>
      <point x="1198" y="0" type="line"/>
      <point x="1198" y="546" type="line"/>
      <point x="845" y="546" type="line"/>
    </contour>
  </outline>
</glyph>
<glyph name="Na.gj" format="2">
  <advance width="1197"/>
  <unicode hex="0AA8"/>
  <anchor x="893" y="-64" name="Bottom"/>
  <anchor x="872" y="1277" name="Top"/>
  <anchor x="924" y="1277" name="Top2"/>
  <outline>
    <contour>
      <point x="748" y="450" type="line"/>
      <point x="1101" y="450" type="line"/>
      <point x="1101" y="1207" type="line"/>
      <point x="748" y="1207" type="line"/>
    </contour>
    <contour>
      <point x="748" y="0" type="line"/>
      <point x="1101" y="0" type="line"/>
      <point x="1101" y="546" type="line"/>
      <point x="748" y="546" type="line"/>
    </contour>
    <contour>
      <point x="180" y="185" type="curve"/>
      <point x="474" y="185" type="line"/>
      <point x="474" y="892" type="line"/>
      <point x="175" y="892" type="line"/>
      <point x="29" y="802" type="line"/>
      <point x="38" y="562"/>
      <point x="97" y="346"/>
    </contour>
    <contour>
      <point x="387" y="605" type="line"/>
      <point x="899" y="605" type="line"/>
      <point x="875" y="892" type="line"/>
      <point x="387" y="892" type="line"/>
    </contour>
  </outline>
</glyph>
<glyph name="Pa.gj" format="2">
  <advance width="1247"/>
  <unicode hex="0AAA"/>
  <guideline x="1151" y="1260" angle="90"/>
  <guideline x="25" y="773" angle="90"/>
  <guideline x="20" y="773" angle="90"/>
  <anchor x="943" y="-64" name="Bottom"/>
  <anchor x="922" y="1277" name="Top"/>
  <anchor x="974" y="1277" name="Top2"/>
  <outline>
    <contour>
      <point x="498" y="187" type="curve" smooth="yes"/>
      <point x="673" y="187"/>
      <point x="761" y="271"/>
      <point x="786" y="386" type="curve"/>
      <point x="818" y="386" type="line"/>
      <point x="805" y="610" type="line"/>
      <point x="792" y="537"/>
      <point x="736" y="485"/>
      <point x="640" y="485" type="curve" smooth="yes"/>
      <point x="539" y="485"/>
      <point x="488" y="541"/>
      <point x="488" y="656" type="curve" smooth="yes"/>
      <point x="488" y="806" type="line"/>
      <point x="135" y="806" type="line"/>
      <point x="135" y="611" type="line" smooth="yes"/>
      <point x="135" y="342"/>
      <point x="242" y="187"/>
    </contour>
    <contour>
      <point x="135" y="760" type="line"/>
      <point x="488" y="760" type="line"/>
      <point x="488" y="925" type="line" smooth="yes"/>
      <point x="488" y="1130"/>
      <point x="397" y="1223"/>
      <point x="210" y="1223" type="curve" smooth="yes"/>
      <point x="143" y="1223"/>
      <point x="89" y="1213"/>
      <point x="41" y="1197" type="curve"/>
      <point x="20" y="941" type="line"/>
      <point x="36" y="945"/>
      <point x="55" y="948"/>
      <point x="74" y="948" type="curve" smooth="yes"/>
      <point x="119" y="948"/>
      <point x="135" y="922"/>
      <point x="135" y="873" type="curve" smooth="yes"/>
    </contour>
    <contour>
      <point x="798" y="450" type="line"/>
      <point x="1151" y="450" type="line"/>
      <point x="1151" y="1207" type="line"/>
      <point x="798" y="1207" type="line"/>
    </contour>
    <contour>
      <point x="798" y="0" type="line"/>
      <point x="1151" y="0" type="line"/>
      <point x="1151" y="546" type="line"/>
      <point x="798" y="546" type="line"/>
    </contour>
  </outline>
</glyph>
<glyph name="Pha.gj" format="2">
  <advance width="1151"/>
  <unicode hex="0AAB"/>
  <anchor x="649" y="-376" name="Bottom"/>
  <anchor x="700" y="1277" name="Top"/>
  <anchor x="567" y="1277" name="Top2"/>
  <outline>
    <contour>
      <point x="537" y="-21" type="curve" smooth="yes"/>
      <point x="854" y="-21"/>
      <point x="1049" y="84"/>
      <point x="1049" y="305" type="curve" smooth="yes"/>
      <point x="1049" y="315" type="line" smooth="yes"/>
      <point x="1049" y="486"/>
      <point x="924" y="578"/>
      <point x="712" y="577" type="curve"/>
      <point x="531" y="501" type="line"/>
      <point x="649" y="489"/>
      <point x="684" y="451"/>
      <point x="684" y="388" type="curve" smooth="yes"/>
      <point x="684" y="384" type="line" smooth="yes"/>
      <point x="684" y="309"/>
      <point x="615" y="276"/>
      <point x="479" y="276" type="curve" smooth="yes"/>
      <point x="337" y="276"/>
      <point x="219" y="292"/>
      <point x="107" y="316" type="curve"/>
      <point x="135" y="30" type="line"/>
      <point x="236" y="2"/>
      <point x="371" y="-21"/>
    </contour>
    <contour>
      <point x="459" y="658" type="curve"/>
      <point x="643" y="741" type="line"/>
      <point x="514" y="750"/>
      <point x="472" y="789"/>
      <point x="472" y="840" type="curve" smooth="yes"/>
      <point x="472" y="844" type="line" smooth="yes"/>
      <point x="472" y="906"/>
      <point x="525" y="946"/>
      <point x="673" y="946" type="curve" smooth="yes"/>
      <point x="773" y="946"/>
      <point x="874" y="931"/>
      <point x="958" y="911" type="curve"/>
      <point x="929" y="1185" type="line"/>
      <point x="850" y="1214"/>
      <point x="729" y="1239"/>
      <point x="593" y="1239" type="curve" smooth="yes"/>
      <point x="275" y="1239"/>
      <point x="109" y="1133"/>
      <point x="109" y="928" type="curve" smooth="yes"/>
      <point x="109" y="919" type="line" smooth="yes"/>
      <point x="109" y="746"/>
      <point x="246" y="661"/>
    </contour>
    <contour>
      <point x="50" y="376" type="line"/>
      <point x="705" y="492" type="line"/>
      <point x="511" y="720" type="line"/>
      <point x="50" y="663" type="line"/>
    </contour>
    <contour>
      <point x="448" y="-330" type="line"/>
      <point x="881" y="-330" type="line"/>
      <point x="881" y="-321" type="line"/>
      <point x="768" y="-189" type="line" smooth="yes"/>
      <point x="711" y="-117"/>
      <point x="620" y="-33"/>
      <point x="459" y="48" type="curve"/>
      <point x="241" y="43" type="line"/>
    </contour>
    <contour>
      <point x="440" y="739" type="line"/>
      <point x="536" y="512" type="line"/>
      <point x="1116" y="583" type="line"/>
      <point x="1116" y="866" type="line"/>
    </contour>
  </outline>
</glyph>
<glyph name="Ba.gj" format="2">
  <advance width="1636"/>
  <unicode hex="0AAC"/>
  <anchor x="1332" y="-64" name="Bottom"/>
  <anchor x="1311" y="1277" name="Top"/>
  <anchor x="1363" y="1277" name="Top2"/>
  <outline>
    <contour>
      <point x="1187" y="450" type="line"/>
      <point x="1540" y="450" type="line"/>
      <point x="1540" y="1207" type="line"/>
      <point x="1187" y="1207" type="line"/>
    </contour>
    <contour>
      <point x="1187" y="0" type="line"/>
      <point x="1540" y="0" type="line"/>
      <point x="1540" y="546" type="line"/>
      <point x="1187" y="546" type="line"/>
    </contour>
    <contour>
      <point x="850" y="489" type="line"/>
      <point x="1405" y="489" type="line"/>
      <point x="1381" y="776" type="line"/>
      <point x="850" y="776" type="line"/>
    </contour>
    <contour>
      <point x="536" y="103" type="curve" smooth="yes"/>
      <point x="835" y="103"/>
      <point x="989" y="244"/>
      <point x="989" y="537" type="curve" smooth="yes"/>
      <point x="989" y="1024" type="line"/>
      <point x="642" y="1024" type="line"/>
      <point x="642" y="526" type="line" smooth="yes"/>
      <point x="642" y="442"/>
      <point x="609" y="399"/>
      <point x="540" y="399" type="curve" smooth="yes"/>
      <point x="457" y="399"/>
      <point x="424" y="456"/>
      <point x="424" y="566" type="curve" smooth="yes"/>
      <point x="424" y="737" type="line" smooth="yes"/>
      <point x="424" y="917"/>
      <point x="469" y="1078"/>
      <point x="552" y="1207" type="curve"/>
      <point x="195" y="1207" type="line"/>
      <point x="104" y="1089"/>
      <point x="61" y="918"/>
      <point x="61" y="730" type="curve" smooth="yes"/>
      <point x="61" y="577" type="line" smooth="yes"/>
      <point x="61" y="254"/>
      <point x="218" y="103"/>
    </contour>
  </outline>
</glyph>
<glyph name="Bha.gj" format="2">
  <advance width="1729"/>
  <unicode hex="0AAD"/>
  <anchor x="1425" y="-64" name="Bottom"/>
  <anchor x="1404" y="1277" name="Top"/>
  <anchor x="1456" y="1277" name="Top2"/>
  <outline>
    <contour>
      <point x="1280" y="450" type="line"/>
      <point x="1633" y="450" type="line"/>
      <point x="1633" y="1207" type="line"/>
      <point x="1280" y="1207" type="line"/>
    </contour>
    <contour>
      <point x="1280" y="0" type="line"/>
      <point x="1633" y="0" type="line"/>
      <point x="1633" y="546" type="line"/>
      <point x="1280" y="546" type="line"/>
    </contour>
    <contour>
      <point x="918" y="427" type="line"/>
      <point x="1430" y="427" type="line"/>
      <point x="1406" y="714" type="line"/>
      <point x="918" y="714" type="line"/>
    </contour>
    <contour>
      <point x="222" y="0" type="curve"/>
      <point x="595" y="0" type="line"/>
      <point x="482" y="159"/>
      <point x="423" y="339"/>
      <point x="423" y="543" type="curve" smooth="yes"/>
      <point x="423" y="672" type="line" smooth="yes"/>
      <point x="423" y="855"/>
      <point x="503" y="943"/>
      <point x="651" y="943" type="curve" smooth="yes"/>
      <point x="682" y="943"/>
      <point x="720" y="937"/>
      <point x="755" y="919" type="curve"/>
      <point x="699" y="1020" type="line"/>
      <point x="699" y="587" type="line"/>
      <point x="1047" y="587" type="line"/>
      <point x="1047" y="1163" type="line"/>
      <point x="922" y="1216"/>
      <point x="792" y="1239"/>
      <point x="652" y="1239" type="curve" smooth="yes"/>
      <point x="252" y="1239"/>
      <point x="60" y="1046"/>
      <point x="60" y="673" type="curve" smooth="yes"/>
      <point x="60" y="547" type="line" smooth="yes"/>
      <point x="60" y="339"/>
      <point x="118" y="130"/>
    </contour>
    <contour>
      <point x="732" y="161" type="curve"/>
      <point x="1042" y="161" type="line"/>
      <point x="1042" y="701" type="line"/>
      <point x="718" y="701" type="line"/>
      <point x="572" y="611" type="line"/>
      <point x="582" y="434"/>
      <point x="643" y="278"/>
    </contour>
  </outline>
</glyph>
<glyph name="Ya.gj" format="2">
  <advance width="1360"/>
  <unicode hex="0AAF"/>
  <anchor x="1056" y="-64" name="Bottom"/>
  <anchor x="1035" y="1277" name="Top"/>
  <anchor x="1087" y="1277" name="Top2"/>
  <outline>
    <contour>
      <point x="546" y="65" type="curve" smooth="yes"/>
      <point x="773" y="65"/>
      <point x="869" y="158"/>
      <point x="899" y="279" type="curve"/>
      <point x="930" y="279" type="line"/>
      <point x="919" y="499" type="line"/>
      <point x="889" y="422"/>
      <point x="813" y="362"/>
      <point x="662" y="362" type="curve" smooth="yes"/>
      <point x="502" y="362"/>
      <point x="418" y="433"/>
      <point x="418" y="559" type="curve" smooth="yes"/>
      <point x="418" y="601"/>
      <point x="419" y="619"/>
      <point x="421" y="661" type="curve"/>
      <point x="280" y="481" type="line"/>
      <point x="417" y="481" type="line" smooth="yes"/>
      <point x="628" y="481"/>
      <point x="754" y="609"/>
      <point x="754" y="832" type="curve" smooth="yes"/>
      <point x="754" y="855" type="line" smooth="yes"/>
      <point x="754" y="1117"/>
      <point x="606" y="1239"/>
      <point x="355" y="1239" type="curve" smooth="yes"/>
      <point x="255" y="1239"/>
      <point x="171" y="1221"/>
      <point x="111" y="1195" type="curve"/>
      <point x="87" y="923" type="line"/>
      <point x="140" y="940"/>
      <point x="197" y="953"/>
      <point x="264" y="953" type="curve" smooth="yes"/>
      <point x="350" y="953"/>
      <point x="398" y="919"/>
      <point x="398" y="841" type="curve" smooth="yes"/>
      <point x="398" y="829" type="line" smooth="yes"/>
      <point x="398" y="752"/>
      <point x="342" y="719"/>
      <point x="244" y="718" type="curve" smooth="yes"/>
      <point x="71" y="717" type="line"/>
      <point x="64" y="670"/>
      <point x="61" y="624"/>
      <point x="61" y="561" type="curve" smooth="yes"/>
      <point x="61" y="254"/>
      <point x="228" y="65"/>
    </contour>
    <contour>
      <point x="911" y="450" type="line"/>
      <point x="1264" y="450" type="line"/>
      <point x="1264" y="1207" type="line"/>
      <point x="911" y="1207" type="line"/>
    </contour>
    <contour>
      <point x="911" y="0" type="line"/>
      <point x="1264" y="0" type="line"/>
      <point x="1264" y="546" type="line"/>
      <point x="911" y="546" type="line"/>
    </contour>
  </outline>
</glyph>
<glyph name="Ra.gj" format="2">
  <advance width="927"/>
  <unicode hex="0AB0"/>
  <guideline x="406" y="423" angle="180"/>
  <guideline x="860" y="855" angle="0"/>
  <anchor x="663" y="-64" name="Bottom"/>
  <anchor x="526" y="1277" name="Top"/>
  <anchor x="478" y="1277" name="Top2"/>
  <outline>
    <contour>
      <point x="347" y="347" type="line"/>
      <point x="351" y="411" type="line"/>
      <point x="460" y="411" type="line" smooth="yes"/>
      <point x="719" y="411"/>
      <point x="865" y="554"/>
      <point x="865" y="809" type="curve" smooth="yes"/>
      <point x="865" y="833" type="line" smooth="yes"/>
      <point x="865" y="1110"/>
      <point x="692" y="1239"/>
      <point x="406" y="1239" type="curve" smooth="yes"/>
      <point x="288" y="1239"/>
      <point x="187" y="1222"/>
      <point x="109" y="1191" type="curve"/>
      <point x="84" y="914" type="line"/>
      <point x="159" y="936"/>
      <point x="245" y="949"/>
      <point x="323" y="949" type="curve" smooth="yes"/>
      <point x="438" y="949"/>
      <point x="499" y="910"/>
      <point x="499" y="818" type="curve" smooth="yes"/>
      <point x="499" y="807" type="line" smooth="yes"/>
      <point x="499" y="715"/>
      <point x="433" y="676"/>
      <point x="313" y="675" type="curve" smooth="yes"/>
      <point x="43" y="673" type="line"/>
      <point x="43" y="413" type="line"/>
    </contour>
    <contour>
      <point x="660" y="-29" type="curve" smooth="yes"/>
      <point x="724" y="-29"/>
      <point x="778" y="-20"/>
      <point x="831" y="-3" type="curve"/>
      <point x="857" y="282" type="line"/>
      <point x="833" y="274"/>
      <point x="778" y="264"/>
      <point x="735" y="264" type="curve" smooth="yes"/>
      <point x="623" y="264"/>
      <point x="527" y="297"/>
      <point x="502" y="431" type="curve" smooth="yes"/>
      <point x="478" y="559" type="line"/>
      <point x="143" y="528" type="line"/>
      <point x="169" y="375" type="line" smooth="yes"/>
      <point x="219" y="82"/>
      <point x="403" y="-29"/>
    </contour>
  </outline>
</glyph>
<glyph name="Lla.gj" format="2">
  <advance width="1628"/>
  <unicode hex="0AB3"/>
  <anchor x="1324" y="-64" name="Bottom"/>
  <anchor x="1141" y="1277" name="Top"/>
  <anchor x="1081" y="1277" name="Top2"/>
  <outline>
    <contour>
      <point x="1179" y="0" type="line"/>
      <point x="1532" y="0" type="line"/>
      <point x="1532" y="804" type="line" smooth="yes"/>
      <point x="1532" y="1100"/>
      <point x="1382" y="1239"/>
      <point x="1083" y="1239" type="curve" smooth="yes"/>
      <point x="787" y="1239"/>
      <point x="634" y="1100"/>
      <point x="634" y="811" type="curve" smooth="yes"/>
      <point x="634" y="705"/>
      <point x="642" y="630"/>
      <point x="642" y="522" type="curve" smooth="yes"/>
      <point x="642" y="440"/>
      <point x="609" y="399"/>
      <point x="541" y="399" type="curve" smooth="yes"/>
      <point x="459" y="399"/>
      <point x="424" y="455"/>
      <point x="424" y="564" type="curve" smooth="yes"/>
      <point x="424" y="737" type="line" smooth="yes"/>
      <point x="424" y="917"/>
      <point x="469" y="1078"/>
      <point x="552" y="1207" type="curve"/>
      <point x="195" y="1207" type="line"/>
      <point x="104" y="1089"/>
      <point x="61" y="918"/>
      <point x="61" y="730" type="curve" smooth="yes"/>
      <point x="61" y="573" type="line" smooth="yes"/>
      <point x="61" y="253"/>
      <point x="218" y="103"/>
      <point x="538" y="103" type="curve" smooth="yes"/>
      <point x="837" y="103"/>
      <point x="992" y="241"/>
      <point x="992" y="531" type="curve" smooth="yes"/>
      <point x="992" y="656"/>
      <point x="984" y="731"/>
      <point x="984" y="818" type="curve" smooth="yes"/>
      <point x="984" y="900"/>
      <point x="1016" y="943"/>
      <point x="1081" y="943" type="curve" smooth="yes"/>
      <point x="1145" y="943"/>
      <point x="1179" y="900"/>
      <point x="1179" y="818" type="curve" smooth="yes"/>
    </contour>
  </outline>
</glyph>
<glyph name="Ssa.gj" format="2">
  <advance width="1274"/>
  <unicode hex="0AB7"/>
  <anchor x="970" y="-64" name="Bottom"/>
  <anchor x="949" y="1277" name="Top"/>
  <anchor x="1001" y="1277" name="Top2"/>
  <outline>
    <contour>
      <point x="808" y="505" type="line"/>
      <point x="917" y="640" type="line"/>
      <point x="418" y="1151" type="line"/>
      <point x="355" y="1038" type="line"/>
      <point x="425" y="915"/>
      <point x="484" y="827"/>
      <point x="557" y="755" type="curve" smooth="yes"/>
    </contour>
    <contour>
      <point x="512" y="151" type="curve" smooth="yes"/>
      <point x="695" y="151"/>
      <point x="788" y="235"/>
      <point x="813" y="350" type="curve"/>
      <point x="845" y="350" type="line"/>
      <point x="832" y="574" type="line"/>
      <point x="819" y="501"/>
      <point x="758" y="449"/>
      <point x="654" y="449" type="curve" smooth="yes"/>
      <point x="543" y="449"/>
      <point x="488" y="506"/>
      <point x="488" y="623" type="curve" smooth="yes"/>
      <point x="488" y="770" type="line"/>
      <point x="135" y="770" type="line"/>
      <point x="135" y="580" type="line" smooth="yes"/>
      <point x="135" y="308"/>
      <point x="246" y="151"/>
    </contour>
    <contour>
      <point x="135" y="760" type="line"/>
      <point x="488" y="760" type="line"/>
      <point x="488" y="925" type="line" smooth="yes"/>
      <point x="488" y="1130"/>
      <point x="397" y="1223"/>
      <point x="210" y="1223" type="curve" smooth="yes"/>
      <point x="143" y="1223"/>
      <point x="89" y="1213"/>
      <point x="41" y="1197" type="curve"/>
      <point x="20" y="941" type="line"/>
      <point x="36" y="945"/>
      <point x="55" y="948"/>
      <point x="74" y="948" type="curve" smooth="yes"/>
      <point x="119" y="948"/>
      <point x="135" y="922"/>
      <point x="135" y="873" type="curve" smooth="yes"/>
    </contour>
    <contour>
      <point x="825" y="450" type="line"/>
      <point x="1178" y="450" type="line"/>
      <point x="1178" y="1207" type="line"/>
      <point x="825" y="1207" type="line"/>
    </contour>
    <contour>
      <point x="825" y="0" type="line"/>
      <point x="1178" y="0" type="line"/>
      <point x="1178" y="546" type="line"/>
      <point x="825" y="546" type="line"/>
    </contour>
  </outline>
</glyph>
<glyph name="Ha.gj" format="2">
  <advance width="1138"/>
  <unicode hex="0AB9"/>
  <anchor x="659" y="-106" name="Bottom"/>
  <anchor x="706" y="1277" name="Top"/>
  <anchor x="588" y="1277" name="Top2"/>
  <outline>
    <contour>
      <point x="662" y="-71" type="curve" smooth="yes"/>
      <point x="803" y="-71"/>
      <point x="933" y="-49"/>
      <point x="1041" y="-16" type="curve"/>
      <point x="1069" y="277" type="line"/>
      <point x="961" y="247"/>
      <point x="843" y="226"/>
      <point x="720" y="226" type="curve" smooth="yes"/>
      <point x="530" y="226"/>
      <point x="421" y="287"/>
      <point x="421" y="420" type="curve" smooth="yes"/>
      <point x="421" y="448"/>
      <point x="421" y="478"/>
      <point x="421" y="503" type="curve"/>
      <point x="75" y="503" type="line"/>
      <point x="63" y="454"/>
      <point x="56" y="399"/>
      <point x="56" y="349" type="curve" smooth="yes"/>
      <point x="56" y="69"/>
      <point x="267" y="-71"/>
    </contour>
    <contour>
      <point x="720" y="341" type="curve"/>
      <point x="1049" y="341" type="line"/>
      <point x="1073" y="398"/>
      <point x="1086" y="460"/>
      <point x="1086" y="521" type="curve" smooth="yes"/>
      <point x="1086" y="692"/>
      <point x="999" y="784"/>
      <point x="783" y="795" type="curve" smooth="yes"/>
      <point x="584" y="805" type="line" smooth="yes"/>
      <point x="497" y="809"/>
      <point x="461" y="833"/>
      <point x="461" y="871" type="curve" smooth="yes"/>
      <point x="461" y="875" type="line" smooth="yes"/>
      <point x="461" y="919"/>
      <point x="512" y="948"/>
      <point x="647" y="948" type="curve" smooth="yes"/>
      <point x="770" y="948"/>
      <point x="892" y="925"/>
      <point x="988" y="892" type="curve"/>
      <point x="958" y="1175" type="line"/>
      <point x="869" y="1210"/>
      <point x="738" y="1239"/>
      <point x="583" y="1239" type="curve" smooth="yes"/>
      <point x="260" y="1239"/>
      <point x="98" y="1119"/>
      <point x="98" y="882" type="curve" smooth="yes"/>
      <point x="98" y="871" type="line" smooth="yes"/>
      <point x="98" y="665"/>
      <point x="228" y="561"/>
      <point x="446" y="553" type="curve" smooth="yes"/>
      <point x="596" y="547" type="line" smooth="yes"/>
      <point x="697" y="543"/>
      <point x="729" y="504"/>
      <point x="729" y="421" type="curve" smooth="yes"/>
      <point x="729" y="394"/>
      <point x="725" y="369"/>
    </contour>
  </outline>
</glyph>
<glyph name="Nukta.gj" format="2">
  <unicode hex="0ABC"/>
  <anchor x="266" y="-64" name="_Bottom"/>
  <outline>
    <contour>
      <point x="297" y="-430" type="curve" smooth="yes"/>
      <point x="428" y="-430"/>
      <point x="486" y="-361"/>
      <point x="486" y="-252" type="curve" smooth="yes"/>
      <point x="486" y="-242" type="line" smooth="yes"/>
      <point x="486" y="-133"/>
      <point x="424" y="-64"/>
      <point x="297" y="-64" type="curve" smooth="yes"/>
      <point x="170" y="-64"/>
      <point x="108" y="-135"/>
      <point x="108" y="-242" type="curve" smooth="yes"/>
      <point x="108" y="-252" type="line" smooth="yes"/>
      <point x="108" y="-361"/>
      <point x="167" y="-430"/>
    </contour>
  </outline>
</glyph>
<glyph name="Avagraha.gj" format="2">
  <advance width="1076"/>
  <unicode hex="0ABD"/>
  <outline>
    <contour>
      <point x="512" y="-29" type="curve" smooth="yes"/>
      <point x="828" y="-29"/>
      <point x="1017" y="88"/>
      <point x="1017" y="350" type="curve" smooth="yes"/>
      <point x="1017" y="366" type="line" smooth="yes"/>
      <point x="1017" y="578"/>
      <point x="913" y="676"/>
      <point x="658" y="735" type="curve" smooth="yes"/>
      <point x="559" y="758" type="line" smooth="yes"/>
      <point x="471" y="778"/>
      <point x="432" y="804"/>
      <point x="432" y="847" type="curve" smooth="yes"/>
      <point x="432" y="851" type="line" smooth="yes"/>
      <point x="432" y="899"/>
      <point x="467" y="926"/>
      <point x="571" y="926" type="curve" smooth="yes"/>
      <point x="942" y="926" type="line"/>
      <point x="911" y="1207" type="line"/>
      <point x="523" y="1207" type="line" smooth="yes"/>
      <point x="221" y="1207"/>
      <point x="69" y="1090"/>
      <point x="69" y="861" type="curve" smooth="yes"/>
      <point x="69" y="849" type="line" smooth="yes"/>
      <point x="69" y="667"/>
      <point x="168" y="551"/>
      <point x="424" y="498" type="curve" smooth="yes"/>
      <point x="511" y="480" type="line" smooth="yes"/>
      <point x="623" y="457"/>
      <point x="654" y="427"/>
      <point x="654" y="374" type="curve" smooth="yes"/>
      <point x="654" y="370" type="line" smooth="yes"/>
      <point x="654" y="305"/>
      <point x="593" y="268"/>
      <point x="454" y="268" type="curve" smooth="yes"/>
      <point x="309" y="268"/>
      <point x="175" y="313"/>
      <point x="69" y="359" type="curve"/>
      <point x="99" y="53" type="line"/>
      <point x="202" y="9"/>
      <point x="346" y="-29"/>
    </contour>
  </outline>
</glyph>
<glyph name="MatraA.gj" format="2">
  <advance width="545"/>
  <unicode hex="0ABE"/>
  <guideline x="96" y="1429" angle="270"/>
  <guideline x="220" y="1429" angle="270"/>
  <guideline x="273" y="0" angle="0"/>
  <anchor x="241" y="-64" name="Bottom"/>
  <anchor x="220" y="1277" name="Top"/>
  <anchor x="272" y="1277" name="Top2"/>
  <outline>
    <contour>
      <point x="96" y="450" type="line"/>
      <point x="449" y="450" type="line"/>
      <point x="449" y="1207" type="line"/>
      <point x="96" y="1207" type="line"/>
    </contour>
    <contour>
      <point x="96" y="0" type="line"/>
      <point x="449" y="0" type="line"/>
      <point x="449" y="546" type="line"/>
      <point x="96" y="546" type="line"/>
    </contour>
  </outline>
</glyph>
<glyph name="MatraI.gj" format="2">
  <advance width="544"/>
  <unicode hex="0ABF"/>
  <guideline x="1500" y="1372" angle="39.1682"/>
  <guideline x="1616" y="1475" angle="90"/>
  <anchor x="241" y="-64" name="Bottom"/>
  <anchor x="220" y="1277" name="Top"/>
  <anchor x="272" y="1277" name="Top2"/>
  <outline>
    <contour>
      <point x="96" y="1154" type="curve"/>
      <point x="449" y="1154" type="line"/>
      <point x="449" y="1211"/>
      <point x="449" y="1255"/>
      <point x="449" y="1288" type="curve" smooth="yes"/>
      <point x="449" y="1494"/>
      <point x="564" y="1578"/>
      <point x="779" y="1578" type="curve" smooth="yes"/>
      <point x="1033" y="1578"/>
      <point x="1240" y="1434"/>
      <point x="1384" y="1277" type="curve"/>
      <point x="1622" y="1472" type="line"/>
      <point x="1457" y="1678"/>
      <point x="1165" y="1864"/>
      <point x="773" y="1864" type="curve" smooth="yes"/>
      <point x="362" y="1864"/>
      <point x="96" y="1675"/>
      <point x="96" y="1288" type="curve" smooth="yes"/>
      <point x="96" y="1235"/>
      <point x="96" y="1196"/>
    </contour>
    <contour>
      <point x="96" y="450" type="line"/>
      <point x="449" y="450" type="line"/>
      <point x="449" y="1207" type="line"/>
      <point x="96" y="1207" type="line"/>
    </contour>
    <contour>
      <point x="96" y="0" type="line"/>
      <point x="449" y="0" type="line"/>
      <point x="449" y="546" type="line"/>
      <point x="96" y="546" type="line"/>
    </contour>
  </outline>
</glyph>
<glyph name="MatraIi.gj" format="2">
  <advance width="545"/>
  <unicode hex="0AC0"/>
  <guideline x="146" y="1580" angle="0"/>
  <guideline x="-383" y="1429" angle="0"/>
  <anchor x="241" y="-64" name="Bottom"/>
  <anchor x="220" y="1277" name="Top"/>
  <anchor x="272" y="1277" name="Top2"/>
  <outline>
    <contour>
      <point x="96" y="1100" type="line"/>
      <point x="449" y="1100" type="line"/>
      <point x="449" y="1434" type="line" smooth="yes"/>
      <point x="449" y="1717"/>
      <point x="275" y="1864"/>
      <point x="0" y="1864" type="curve" smooth="yes"/>
      <point x="-291" y="1864"/>
      <point x="-449" y="1724"/>
      <point x="-449" y="1434" type="curve" smooth="yes"/>
      <point x="-449" y="1277" type="line"/>
      <point x="-96" y="1277" type="line"/>
      <point x="-96" y="1456" type="line" smooth="yes"/>
      <point x="-96" y="1542"/>
      <point x="-70" y="1585"/>
      <point x="0" y="1585" type="curve" smooth="yes"/>
      <point x="70" y="1585"/>
      <point x="96" y="1542"/>
      <point x="96" y="1456" type="curve" smooth="yes"/>
    </contour>
    <contour>
      <point x="96" y="450" type="line"/>
      <point x="449" y="450" type="line"/>
      <point x="449" y="1207" type="line"/>
      <point x="96" y="1207" type="line"/>
    </contour>
    <contour>
      <point x="96" y="0" type="line"/>
      <point x="449" y="0" type="line"/>
      <point x="449" y="546" type="line"/>
      <point x="96" y="546" type="line"/>
    </contour>
  </outline>
</glyph>
<glyph name="MatraU.gj" format="2">
  <unicode hex="0AC1"/>
  <anchor x="806" y="-64" name="_Bottom"/>
  <outline>
    <contour>
      <point x="745" y="-729" type="curve" smooth="yes"/>
      <point x="1030" y="-729"/>
      <point x="1162" y="-601"/>
      <point x="1162" y="-398" type="curve" smooth="yes"/>
      <point x="1162" y="-387" type="line" smooth="yes"/>
      <point x="1162" y="-192"/>
      <point x="1044" y="-64"/>
      <point x="801" y="-64" type="curve" smooth="yes"/>
      <point x="709" y="-64"/>
      <point x="636" y="-79"/>
      <point x="569" y="-105" type="curve"/>
      <point x="544" y="-342" type="line"/>
      <point x="609" y="-318"/>
      <point x="671" y="-303"/>
      <point x="737" y="-303" type="curve" smooth="yes"/>
      <point x="830" y="-303"/>
      <point x="865" y="-339"/>
      <point x="865" y="-394" type="curve" smooth="yes"/>
      <point x="865" y="-398" type="line" smooth="yes"/>
      <point x="865" y="-455"/>
      <point x="822" y="-488"/>
      <point x="733" y="-488" type="curve" smooth="yes"/>
      <point x="582" y="-488"/>
      <point x="475" y="-405"/>
      <point x="421" y="-206" type="curve"/>
      <point x="100" y="-206" type="line"/>
      <point x="193" y="-566"/>
      <point x="411" y="-729"/>
    </contour>
  </outline>
</glyph>
<glyph name="MatraUu.gj" format="2">
  <unicode hex="0AC2"/>
  <anchor x="510" y="-64" name="_Bottom"/>
  <outline>
    <contour>
      <point x="810" y="-723" type="curve"/>
      <point x="1129" y="-723" type="line"/>
      <point x="1028" y="-297"/>
      <point x="883" y="-64"/>
      <point x="510" y="-64" type="curve" smooth="yes"/>
      <point x="246" y="-64"/>
      <point x="100" y="-186"/>
      <point x="100" y="-392" type="curve" smooth="yes"/>
      <point x="100" y="-404" type="line" smooth="yes"/>
      <point x="100" y="-618"/>
      <point x="251" y="-729"/>
      <point x="460" y="-729" type="curve" smooth="yes"/>
      <point x="530" y="-729"/>
      <point x="585" y="-721"/>
      <point x="627" y="-706" type="curve"/>
      <point x="654" y="-466" type="line"/>
      <point x="614" y="-481"/>
      <point x="570" y="-490"/>
      <point x="523" y="-490" type="curve" smooth="yes"/>
      <point x="438" y="-490"/>
      <point x="397" y="-461"/>
      <point x="397" y="-401" type="curve" smooth="yes"/>
      <point x="397" y="-395" type="line" smooth="yes"/>
      <point x="397" y="-338"/>
      <point x="440" y="-305"/>
      <point x="524" y="-305" type="curve" smooth="yes"/>
      <point x="675" y="-305"/>
      <point x="742" y="-407"/>
    </contour>
  </outline>
</glyph>
<glyph name="MatraRu.gj" format="2">
  <unicode hex="0AC3"/>
  <anchor x="543" y="-64" name="_Bottom"/>
  <outline>
    <contour>
      <point x="511" y="-729" type="curve" smooth="yes"/>
      <point x="630" y="-729"/>
      <point x="727" y="-712"/>
      <point x="804" y="-678" type="curve"/>
      <point x="827" y="-423" type="line"/>
      <point x="751" y="-457"/>
      <point x="662" y="-478"/>
      <point x="564" y="-478" type="curve" smooth="yes"/>
      <point x="452" y="-478"/>
      <point x="398" y="-453"/>
      <point x="398" y="-394" type="curve" smooth="yes"/>
      <point x="398" y="-388" type="line" smooth="yes"/>
      <point x="398" y="-330"/>
      <point x="438" y="-303"/>
      <point x="542" y="-303" type="curve" smooth="yes"/>
      <point x="751" y="-303" type="line"/>
      <point x="751" y="-64" type="line"/>
      <point x="502" y="-64" type="line" smooth="yes"/>
      <point x="234" y="-64"/>
      <point x="101" y="-172"/>
      <point x="101" y="-390" type="curve" smooth="yes"/>
      <point x="101" y="-402" type="line" smooth="yes"/>
      <point x="101" y="-617"/>
      <point x="265" y="-729"/>
    </contour>
  </outline>
</glyph>
<glyph name="MatraRuu.gj" format="2">
  <unicode hex="0AC4"/>
  <anchor x="507" y="-64" name="_Bottom"/>
  <outline>
    <contour>
      <point x="496" y="-632" type="curve" smooth="yes"/>
      <point x="599" y="-632"/>
      <point x="682" y="-617"/>
      <point x="748" y="-587" type="curve"/>
      <point x="768" y="-361" type="line"/>
      <point x="699" y="-390"/>
      <point x="616" y="-408"/>
      <point x="526" y="-408" type="curve" smooth="yes"/>
      <point x="419" y="-408"/>
      <point x="377" y="-387"/>
      <point x="377" y="-347" type="curve" smooth="yes"/>
      <point x="377" y="-344" type="line" smooth="yes"/>
      <point x="377" y="-304"/>
      <point x="411" y="-283"/>
      <point x="505" y="-283" type="curve" smooth="yes"/>
      <point x="703" y="-283" type="line"/>
      <point x="703" y="-64" type="line"/>
      <point x="471" y="-64" type="line" smooth="yes"/>
      <point x="224" y="-64"/>
      <point x="100" y="-155"/>
      <point x="100" y="-339" type="curve" smooth="yes"/>
      <point x="100" y="-347" type="line" smooth="yes"/>
      <point x="100" y="-461"/>
      <point x="167" y="-536"/>
      <point x="280" y="-574" type="curve"/>
      <point x="357" y="-619" type="line"/>
      <point x="398" y="-628"/>
      <point x="445" y="-632"/>
    </contour>
    <contour>
      <point x="493" y="-980" type="curve" smooth="yes"/>
      <point x="600" y="-980"/>
      <point x="686" y="-965"/>
      <point x="755" y="-935" type="curve"/>
      <point x="775" y="-711" type="line"/>
      <point x="706" y="-740"/>
      <point x="623" y="-758"/>
      <point x="533" y="-758" type="curve" smooth="yes"/>
      <point x="426" y="-758"/>
      <point x="384" y="-735"/>
      <point x="384" y="-694" type="curve" smooth="yes"/>
      <point x="384" y="-692" type="line" smooth="yes"/>
      <point x="384" y="-653"/>
      <point x="412" y="-629"/>
      <point x="500" y="-627" type="curve"/>
      <point x="253" y="-542" type="line"/>
      <point x="253" y="-578" type="line"/>
      <point x="164" y="-601"/>
      <point x="107" y="-662"/>
      <point x="107" y="-748" type="curve" smooth="yes"/>
      <point x="107" y="-752" type="line" smooth="yes"/>
      <point x="107" y="-903"/>
      <point x="256" y="-980"/>
    </contour>
  </outline>
</glyph>
<glyph name="MatraChandraE.gj" format="2">
  <unicode hex="0AC5"/>
  <anchor x="726" y="1277" name="_Top"/>
  <outline>
    <contour>
      <point x="826" y="1281" type="curve" smooth="yes"/>
      <point x="908" y="1281"/>
      <point x="974" y="1299"/>
      <point x="1016" y="1324" type="curve"/>
      <point x="1016" y="1599" type="line"/>
      <point x="990" y="1584"/>
      <point x="942" y="1564"/>
      <point x="875" y="1564" type="curve" smooth="yes"/>
      <point x="779" y="1564"/>
      <point x="696" y="1591"/>
      <point x="571" y="1685" type="curve" smooth="yes"/>
      <point x="301" y="1884" type="line"/>
      <point x="100" y="1609" type="line"/>
      <point x="357" y="1443" type="line" smooth="yes"/>
      <point x="567" y="1306"/>
      <point x="695" y="1281"/>
    </contour>
  </outline>
</glyph>
<glyph name="MatraE.gj" format="2">
  <unicode hex="0AC7"/>
  <anchor x="809" y="1277" name="_Top"/>
  <outline>
    <contour>
      <point x="809" y="1277" type="curve"/>
      <point x="931" y="1484" type="line"/>
      <point x="717" y="1616"/>
      <point x="503" y="1748"/>
      <point x="289" y="1880" type="curve"/>
      <point x="110" y="1564" type="line"/>
      <point x="343" y="1467"/>
      <point x="576" y="1371"/>
    </contour>
  </outline>
</glyph>
<glyph name="MatraAi.gj" format="2">
  <unicode hex="0AC8"/>
  <anchor x="822" y="1277" name="_Top"/>
  <outline>
    <contour>
      <point x="821" y="1277" type="line"/>
      <point x="981" y="1489" type="line"/>
      <point x="543" y="2074" type="line"/>
      <point x="336" y="1873" type="line"/>
      <point x="720" y="1515" type="line"/>
      <point x="716" y="1508" type="line"/>
      <point x="220" y="1733" type="line"/>
      <point x="102" y="1472" type="line"/>
    </contour>
  </outline>
</glyph>
<glyph name="MatraChandraO.gj" format="2">
  <advance width="545"/>
  <unicode hex="0AC9"/>
  <anchor x="241" y="-64" name="Bottom"/>
  <anchor x="220" y="1277" name="Top"/>
  <anchor x="272" y="1277" name="Top2"/>
  <outline>
    <contour>
      <point x="96" y="450" type="line"/>
      <point x="449" y="450" type="line"/>
      <point x="449" y="1207" type="line"/>
      <point x="96" y="1207" type="line"/>
    </contour>
    <contour>
      <point x="96" y="0" type="line"/>
      <point x="449" y="0" type="line"/>
      <point x="449" y="546" type="line"/>
      <point x="96" y="546" type="line"/>
    </contour>
    <contour>
      <point x="322" y="1281" type="curve" smooth="yes"/>
      <point x="404" y="1281"/>
      <point x="470" y="1299"/>
      <point x="512" y="1324" type="curve"/>
      <point x="512" y="1599" type="line"/>
      <point x="486" y="1584"/>
      <point x="438" y="1564"/>
      <point x="371" y="1564" type="curve" smooth="yes"/>
      <point x="275" y="1564"/>
      <point x="192" y="1591"/>
      <point x="67" y="1685" type="curve" smooth="yes"/>
      <point x="-203" y="1884" type="line"/>
      <point x="-404" y="1609" type="line"/>
      <point x="-147" y="1443" type="line" smooth="yes"/>
      <point x="63" y="1306"/>
      <point x="191" y="1281"/>
    </contour>
  </outline>
</glyph>
<glyph name="MatraO.gj" format="2">
  <advance width="545"/>
  <unicode hex="0ACB"/>
  <anchor x="241" y="-64" name="Bottom"/>
  <anchor x="220" y="1277" name="Top"/>
  <anchor x="272" y="1277" name="Top2"/>
  <outline>
    <contour>
      <point x="96" y="450" type="line"/>
      <point x="449" y="450" type="line"/>
      <point x="449" y="1207" type="line"/>
      <point x="96" y="1207" type="line"/>
    </contour>
    <contour>
      <point x="96" y="0" type="line"/>
      <point x="449" y="0" type="line"/>
      <point x="449" y="546" type="line"/>
      <point x="96" y="546" type="line"/>
    </contour>
    <contour>
      <point x="220" y="1277" type="curve"/>
      <point x="342" y="1484" type="line"/>
      <point x="128" y="1616"/>
      <point x="-86" y="1748"/>
      <point x="-300" y="1880" type="curve"/>
      <point x="-479" y="1564" type="line"/>
      <point x="-246" y="1467"/>
      <point x="-13" y="1371"/>
    </contour>
  </outline>
</glyph>
<glyph name="MatraAu.gj" format="2">
  <advance width="545"/>
  <unicode hex="0ACC"/>
  <guideline x="96" y="1429" angle="270"/>
  <guideline x="220" y="1429" angle="270"/>
  <anchor x="241" y="-64" name="Bottom"/>
  <anchor x="220" y="1277" name="Top"/>
  <anchor x="272" y="1277" name="Top2"/>
  <outline>
    <contour>
      <point x="96" y="450" type="line"/>
      <point x="449" y="450" type="line"/>
      <point x="449" y="1207" type="line"/>
      <point x="96" y="1207" type="line"/>
    </contour>
    <contour>
      <point x="96" y="0" type="line"/>
      <point x="449" y="0" type="line"/>
      <point x="449" y="546" type="line"/>
      <point x="96" y="546" type="line"/>
    </contour>
    <contour>
      <point x="220" y="1277" type="line"/>
      <point x="380" y="1489" type="line"/>
      <point x="-58" y="2074" type="line"/>
      <point x="-265" y="1873" type="line"/>
      <point x="119" y="1515" type="line"/>
      <point x="115" y="1508" type="line"/>
      <point x="-381" y="1733" type="line"/>
      <point x="-499" y="1472" type="line"/>
    </contour>
  </outline>
</glyph>
<glyph name="Halant.gj" format="2">
  <unicode hex="0ACD"/>
  <guideline x="696" y="-632" angle="47.9401"/>
  <guideline x="774" y="-493" angle="90"/>
  <anchor x="245" y="-64" name="_Bottom"/>
  <outline>
    <contour>
      <point x="617" y="-719" type="line"/>
      <point x="766" y="-562" type="line"/>
      <point x="317" y="-84" type="line"/>
      <point x="100" y="-317" type="line"/>
    </contour>
  </outline>
</glyph>
<glyph name="Om.gj" format="2">
  <advance width="1975"/>
  <unicode hex="0AD0"/>
  <anchor x="1282" y="1081" name="_Top2"/>
  <outline>
    <contour>
      <point x="1487" y="22" type="curve" smooth="yes"/>
      <point x="1785" y="22"/>
      <point x="1925" y="164"/>
      <point x="1925" y="465" type="curve" smooth="yes"/>
      <point x="1925" y="589" type="line" smooth="yes"/>
      <point x="1925" y="896"/>
      <point x="1779" y="1059"/>
      <point x="1475" y="1059" type="curve" smooth="yes"/>
      <point x="1233" y="1059"/>
      <point x="1122" y="952"/>
      <point x="1048" y="744" type="curve" smooth="yes"/>
      <point x="1033" y="702" type="line" smooth="yes"/>
      <point x="1002" y="615"/>
      <point x="974" y="564"/>
      <point x="898" y="563" type="curve" smooth="yes"/>
      <point x="860" y="563"/>
      <point x="819" y="572"/>
      <point x="774" y="584" type="curve"/>
      <point x="821" y="374" type="line"/>
      <point x="904" y="326"/>
      <point x="970" y="296"/>
      <point x="1062" y="296" type="curve" smooth="yes"/>
      <point x="1202" y="296"/>
      <point x="1276" y="399"/>
      <point x="1323" y="553" type="curve" smooth="yes"/>
      <point x="1342" y="615" type="line" smooth="yes"/>
      <point x="1376" y="733"/>
      <point x="1408" y="769"/>
      <point x="1465" y="769" type="curve" smooth="yes"/>
      <point x="1530" y="769"/>
      <point x="1562" y="727"/>
      <point x="1562" y="597" type="curve" smooth="yes"/>
      <point x="1562" y="468" type="line" smooth="yes"/>
      <point x="1562" y="361"/>
      <point x="1508" y="305"/>
      <point x="1401" y="305" type="curve" smooth="yes"/>
      <point x="1349" y="305"/>
      <point x="1301" y="314"/>
      <point x="1256" y="330" type="curve"/>
      <point x="1282" y="59" type="line"/>
      <point x="1340" y="36"/>
      <point x="1411" y="22"/>
    </contour>
    <contour>
      <point x="1282" y="1131" type="curve" smooth="yes"/>
      <point x="1569" y="1131"/>
      <point x="1715" y="1242"/>
      <point x="1715" y="1466" type="curve" smooth="yes"/>
      <point x="1715" y="1480"/>
      <point x="1714" y="1498"/>
      <point x="1711" y="1528" type="curve"/>
      <point x="1477" y="1528" type="line"/>
      <point x="1477" y="1500" type="line" smooth="yes"/>
      <point x="1477" y="1392"/>
      <point x="1416" y="1338"/>
      <point x="1282" y="1338" type="curve" smooth="yes"/>
      <point x="1148" y="1338"/>
      <point x="1087" y="1392"/>
      <point x="1087" y="1500" type="curve" smooth="yes"/>
      <point x="1087" y="1528" type="line"/>
      <point x="853" y="1528" type="line"/>
      <point x="849" y="1497"/>
      <point x="849" y="1480"/>
      <point x="849" y="1466" type="curve" smooth="yes"/>
      <point x="849" y="1242"/>
      <point x="991" y="1131"/>
    </contour>
    <contour>
      <point x="1282" y="1403" type="curve" smooth="yes"/>
      <point x="1371" y="1403"/>
      <point x="1407" y="1457"/>
      <point x="1407" y="1540" type="curve" smooth="yes"/>
      <point x="1407" y="1549" type="line" smooth="yes"/>
      <point x="1407" y="1630"/>
      <point x="1371" y="1686"/>
      <point x="1282" y="1686" type="curve" smooth="yes"/>
      <point x="1192" y="1686"/>
      <point x="1157" y="1630"/>
      <point x="1157" y="1549" type="curve" smooth="yes"/>
      <point x="1157" y="1540" type="line" smooth="yes"/>
      <point x="1157" y="1457"/>
      <point x="1192" y="1403"/>
    </contour>
    <contour>
      <point x="442" y="-29" type="curve" smooth="yes"/>
      <point x="770" y="-29"/>
      <point x="948" y="92"/>
      <point x="948" y="309" type="curve" smooth="yes"/>
      <point x="948" y="318" type="line" smooth="yes"/>
      <point x="948" y="486"/>
      <point x="862" y="585"/>
      <point x="680" y="610" type="curve"/>
      <point x="680" y="617" type="line"/>
      <point x="855" y="635"/>
      <point x="936" y="726"/>
      <point x="936" y="895" type="curve" smooth="yes"/>
      <point x="936" y="905" type="line" smooth="yes"/>
      <point x="936" y="1129"/>
      <point x="756" y="1239"/>
      <point x="454" y="1239" type="curve" smooth="yes"/>
      <point x="311" y="1239"/>
      <point x="189" y="1212"/>
      <point x="106" y="1179" type="curve"/>
      <point x="76" y="894" type="line"/>
      <point x="166" y="927"/>
      <point x="279" y="949"/>
      <point x="386" y="949" type="curve" smooth="yes"/>
      <point x="508" y="949"/>
      <point x="571" y="916"/>
      <point x="571" y="853" type="curve" smooth="yes"/>
      <point x="571" y="849" type="line" smooth="yes"/>
      <point x="571" y="796"/>
      <point x="531" y="761"/>
      <point x="440" y="759" type="curve" smooth="yes"/>
      <point x="173" y="753" type="line"/>
      <point x="173" y="477" type="line"/>
      <point x="438" y="468" type="line" smooth="yes"/>
      <point x="539" y="465"/>
      <point x="583" y="433"/>
      <point x="583" y="367" type="curve" smooth="yes"/>
      <point x="583" y="362" type="line" smooth="yes"/>
      <point x="583" y="297"/>
      <point x="517" y="265"/>
      <point x="384" y="265" type="curve" smooth="yes"/>
      <point x="258" y="265"/>
      <point x="159" y="292"/>
      <point x="55" y="331" type="curve"/>
      <point x="83" y="37" type="line"/>
      <point x="170" y="-2"/>
      <point x="300" y="-29"/>
    </contour>
  </outline>
</glyph>
<glyph name="VowelRuu.gj" format="2">
  <advance width="1947"/>
  <unicode hex="0AE0"/>
  <anchor x="942" y="-64" name="Bottom"/>
  <anchor x="921" y="1277" name="Top"/>
  <anchor x="973" y="1277" name="Top2"/>
  <outline>
    <contour>
      <point x="1671" y="-3" type="curve" smooth="yes"/>
      <point x="1750" y="-3"/>
      <point x="1814" y="9"/>
      <point x="1862" y="29" type="curve"/>
      <point x="1879" y="282" type="line"/>
      <point x="1833" y="268"/>
      <point x="1791" y="259"/>
      <point x="1734" y="259" type="curve" smooth="yes"/>
      <point x="1658" y="259"/>
      <point x="1626" y="276"/>
      <point x="1626" y="312" type="curve" smooth="yes"/>
      <point x="1626" y="316" type="line" smooth="yes"/>
      <point x="1626" y="358"/>
      <point x="1663" y="375"/>
      <point x="1836" y="376" type="curve"/>
      <point x="1836" y="584" type="line"/>
      <point x="1756" y="629"/>
      <point x="1690" y="693"/>
      <point x="1647" y="773" type="curve"/>
      <point x="1390" y="660" type="line"/>
      <point x="1428" y="593"/>
      <point x="1488" y="545"/>
      <point x="1542" y="515" type="curve"/>
      <point x="1542" y="508" type="line"/>
      <point x="1394" y="480"/>
      <point x="1322" y="407"/>
      <point x="1322" y="266" type="curve" smooth="yes"/>
      <point x="1322" y="257" type="line" smooth="yes"/>
      <point x="1322" y="82"/>
      <point x="1456" y="-3"/>
    </contour>
    <contour>
      <point x="225" y="436" type="curve"/>
      <point x="553" y="497" type="line"/>
      <point x="534" y="550" type="line"/>
      <point x="614" y="596"/>
      <point x="663" y="663"/>
      <point x="663" y="765" type="curve" smooth="yes"/>
      <point x="663" y="775" type="line" smooth="yes"/>
      <point x="663" y="972"/>
      <point x="559" y="1083"/>
      <point x="336" y="1083" type="curve" smooth="yes"/>
      <point x="242" y="1083"/>
      <point x="150" y="1062"/>
      <point x="96" y="1037" type="curve"/>
      <point x="70" y="760" type="line"/>
      <point x="108" y="779"/>
      <point x="155" y="793"/>
      <point x="200" y="793" type="curve" smooth="yes"/>
      <point x="283" y="793"/>
      <point x="317" y="747"/>
      <point x="317" y="644" type="curve" smooth="yes"/>
      <point x="317" y="634" type="line" smooth="yes"/>
      <point x="317" y="538"/>
      <point x="292" y="483"/>
    </contour>
    <contour>
      <point x="72" y="78" type="line"/>
      <point x="861" y="367" type="line"/>
      <point x="861" y="666" type="line"/>
      <point x="685" y="600" type="line" smooth="yes"/>
      <point x="613" y="573"/>
      <point x="547" y="541"/>
      <point x="480" y="507" type="curve"/>
      <point x="463" y="521" type="line"/>
      <point x="72" y="385" type="line"/>
    </contour>
    <contour>
      <point x="1076" y="426" type="line"/>
      <point x="1610" y="637" type="line"/>
      <point x="1512" y="890" type="line"/>
      <point x="1076" y="725" type="line"/>
    </contour>
    <contour>
      <point x="1367" y="642" type="line"/>
      <point x="1682" y="690" type="line"/>
      <point x="1771" y="801" type="line"/>
      <point x="1756" y="900"/>
      <point x="1719" y="1001"/>
      <point x="1666" y="1073" type="curve"/>
      <point x="1367" y="1073" type="line"/>
    </contour>
    <contour>
      <point x="797" y="450" type="line"/>
      <point x="1150" y="450" type="line"/>
      <point x="1150" y="1207" type="line"/>
      <point x="797" y="1207" type="line"/>
    </contour>
    <contour>
      <point x="797" y="0" type="line"/>
      <point x="1150" y="0" type="line"/>
      <point x="1150" y="546" type="line"/>
      <point x="797" y="546" type="line"/>
    </contour>
  </outline>
</glyph>
<glyph name="VowelLruu.gj" format="2">
  <advance width="1656"/>
  <unicode hex="0AE1"/>
  <anchor x="1193" y="1277" name="Top2"/>
  <outline>
    <contour>
      <point x="1285" y="-878" type="curve" smooth="yes"/>
      <point x="1382" y="-878"/>
      <point x="1470" y="-863"/>
      <point x="1536" y="-833" type="curve"/>
      <point x="1567" y="-545" type="line"/>
      <point x="1510" y="-575"/>
      <point x="1443" y="-594"/>
      <point x="1377" y="-594" type="curve" smooth="yes"/>
      <point x="1297" y="-594"/>
      <point x="1258" y="-568"/>
      <point x="1258" y="-519" type="curve" smooth="yes"/>
      <point x="1258" y="-516" type="line" smooth="yes"/>
      <point x="1258" y="-481"/>
      <point x="1282" y="-451"/>
      <point x="1330" y="-443" type="curve"/>
      <point x="1074" y="-375" type="line"/>
      <point x="1074" y="-405" type="line"/>
      <point x="956" y="-431"/>
      <point x="898" y="-504"/>
      <point x="898" y="-608" type="curve" smooth="yes"/>
      <point x="898" y="-613" type="line" smooth="yes"/>
      <point x="898" y="-776"/>
      <point x="1048" y="-878"/>
    </contour>
    <contour>
      <point x="1315" y="-447" type="curve" smooth="yes"/>
      <point x="1414" y="-447"/>
      <point x="1492" y="-432"/>
      <point x="1556" y="-404" type="curve"/>
      <point x="1586" y="-114" type="line"/>
      <point x="1532" y="-142"/>
      <point x="1464" y="-162"/>
      <point x="1389" y="-162" type="curve" smooth="yes"/>
      <point x="1309" y="-162"/>
      <point x="1274" y="-131"/>
      <point x="1274" y="-87" type="curve" smooth="yes"/>
      <point x="1274" y="-83" type="line" smooth="yes"/>
      <point x="1274" y="64"/>
      <point x="1597" y="180"/>
      <point x="1597" y="532" type="curve" smooth="yes"/>
      <point x="1597" y="550" type="line" smooth="yes"/>
      <point x="1597" y="833"/>
      <point x="1460" y="979"/>
      <point x="1169" y="979" type="curve" smooth="yes"/>
      <point x="962" y="979"/>
      <point x="858" y="878"/>
      <point x="837" y="740" type="curve"/>
      <point x="785" y="740" type="line"/>
      <point x="785" y="312" type="line"/>
      <point x="999" y="312" type="line"/>
      <point x="1008" y="527" type="line" smooth="yes"/>
      <point x="1013" y="644"/>
      <point x="1051" y="682"/>
      <point x="1121" y="682" type="curve" smooth="yes"/>
      <point x="1195" y="682"/>
      <point x="1230" y="641"/>
      <point x="1230" y="541" type="curve" smooth="yes"/>
      <point x="1230" y="524" type="line" smooth="yes"/>
      <point x="1230" y="291"/>
      <point x="910" y="198"/>
      <point x="910" y="-103" type="curve" smooth="yes"/>
      <point x="910" y="-109" type="line" smooth="yes"/>
      <point x="910" y="-327"/>
      <point x="1064" y="-447"/>
    </contour>
    <contour>
      <point x="228" y="0" type="curve"/>
      <point x="634" y="0" type="line"/>
      <point x="634" y="5" type="line"/>
      <point x="495" y="149"/>
      <point x="438" y="271"/>
      <point x="438" y="452" type="curve" smooth="yes"/>
      <point x="438" y="500" type="line" smooth="yes"/>
      <point x="438" y="632"/>
      <point x="479" y="682"/>
      <point x="555" y="682" type="curve" smooth="yes"/>
      <point x="629" y="682"/>
      <point x="654" y="640"/>
      <point x="658" y="527" type="curve" smooth="yes"/>
      <point x="666" y="312" type="line"/>
      <point x="829" y="312" type="line"/>
      <point x="829" y="740" type="line"/>
      <point x="807" y="877"/>
      <point x="706" y="979"/>
      <point x="492" y="979" type="curve" smooth="yes"/>
      <point x="213" y="979"/>
      <point x="74" y="818"/>
      <point x="74" y="508" type="curve" smooth="yes"/>
      <point x="74" y="450" type="line" smooth="yes"/>
      <point x="74" y="241"/>
      <point x="119" y="118"/>
    </contour>
    <contour>
      <point x="1017" y="799" type="line"/>
      <point x="1368" y="799" type="line"/>
      <point x="1368" y="1207" type="line"/>
      <point x="1017" y="1207" type="line"/>
    </contour>
  </outline>
</glyph>
<glyph name="MatraLru.gj" format="2">
  <unicode hex="0AE2"/>
  <anchor x="891" y="-64" name="_Bottom"/>
  <outline>
    <contour>
      <point x="221" y="-641" type="curve"/>
      <point x="524" y="-641" type="line"/>
      <point x="423" y="-544"/>
      <point x="378" y="-463"/>
      <point x="378" y="-379" type="curve" smooth="yes"/>
      <point x="378" y="-365" type="line" smooth="yes"/>
      <point x="378" y="-300"/>
      <point x="404" y="-274"/>
      <point x="447" y="-274" type="curve" smooth="yes"/>
      <point x="488" y="-274"/>
      <point x="504" y="-295"/>
      <point x="507" y="-357" type="curve" smooth="yes"/>
      <point x="513" y="-474" type="line"/>
      <point x="753" y="-474" type="line"/>
      <point x="758" y="-361" type="line" smooth="yes"/>
      <point x="761" y="-296"/>
      <point x="783" y="-274"/>
      <point x="825" y="-274" type="curve" smooth="yes"/>
      <point x="865" y="-274"/>
      <point x="886" y="-300"/>
      <point x="886" y="-343" type="curve" smooth="yes"/>
      <point x="886" y="-352" type="line"/>
      <point x="1173" y="-329" type="line"/>
      <point x="1173" y="-318" type="line" smooth="yes"/>
      <point x="1173" y="-166"/>
      <point x="1078" y="-64"/>
      <point x="889" y="-64" type="curve" smooth="yes"/>
      <point x="744" y="-64"/>
      <point x="667" y="-116"/>
      <point x="639" y="-203" type="curve"/>
      <point x="631" y="-203" type="line"/>
      <point x="606" y="-115"/>
      <point x="534" y="-64"/>
      <point x="390" y="-64" type="curve" smooth="yes"/>
      <point x="206" y="-64"/>
      <point x="100" y="-172"/>
      <point x="100" y="-354" type="curve" smooth="yes"/>
      <point x="100" y="-360" type="line" smooth="yes"/>
      <point x="100" y="-476"/>
      <point x="139" y="-561"/>
    </contour>
    <contour>
      <point x="1001" y="-852" type="curve" smooth="yes"/>
      <point x="1068" y="-852"/>
      <point x="1117" y="-842"/>
      <point x="1158" y="-823" type="curve"/>
      <point x="1169" y="-626" type="line"/>
      <point x="1139" y="-644"/>
      <point x="1103" y="-656"/>
      <point x="1062" y="-656" type="curve" smooth="yes"/>
      <point x="1019" y="-656"/>
      <point x="998" y="-642"/>
      <point x="998" y="-619" type="curve" smooth="yes"/>
      <point x="998" y="-592"/>
      <point x="1014" y="-578"/>
      <point x="1083" y="-514" type="curve" smooth="yes"/>
      <point x="1142" y="-460"/>
      <point x="1173" y="-403"/>
      <point x="1173" y="-329" type="curve" smooth="yes"/>
      <point x="1173" y="-322" type="line"/>
      <point x="886" y="-346" type="line"/>
      <point x="886" y="-348" type="line"/>
      <point x="886" y="-392"/>
      <point x="871" y="-414"/>
      <point x="817" y="-471" type="curve" smooth="yes"/>
      <point x="754" y="-538"/>
      <point x="734" y="-582"/>
      <point x="734" y="-651" type="curve" smooth="yes"/>
      <point x="734" y="-777"/>
      <point x="840" y="-852"/>
    </contour>
  </outline>
</glyph>
<glyph name="MatraLruu.gj" format="2">
  <unicode hex="0AE3"/>
  <anchor x="890" y="-64" name="_Bottom"/>
  <outline>
    <contour>
      <point x="221" y="-641" type="curve"/>
      <point x="524" y="-641" type="line"/>
      <point x="423" y="-544"/>
      <point x="378" y="-463"/>
      <point x="378" y="-379" type="curve" smooth="yes"/>
      <point x="378" y="-365" type="line" smooth="yes"/>
      <point x="378" y="-300"/>
      <point x="404" y="-274"/>
      <point x="447" y="-274" type="curve" smooth="yes"/>
      <point x="488" y="-274"/>
      <point x="504" y="-295"/>
      <point x="507" y="-357" type="curve" smooth="yes"/>
      <point x="513" y="-474" type="line"/>
      <point x="753" y="-474" type="line"/>
      <point x="758" y="-361" type="line" smooth="yes"/>
      <point x="761" y="-296"/>
      <point x="783" y="-274"/>
      <point x="825" y="-274" type="curve" smooth="yes"/>
      <point x="865" y="-274"/>
      <point x="886" y="-300"/>
      <point x="886" y="-343" type="curve" smooth="yes"/>
      <point x="886" y="-347" type="line"/>
      <point x="1173" y="-324" type="line"/>
      <point x="1173" y="-318" type="line" smooth="yes"/>
      <point x="1173" y="-166"/>
      <point x="1078" y="-64"/>
      <point x="889" y="-64" type="curve" smooth="yes"/>
      <point x="744" y="-64"/>
      <point x="667" y="-116"/>
      <point x="639" y="-203" type="curve"/>
      <point x="631" y="-203" type="line"/>
      <point x="606" y="-115"/>
      <point x="534" y="-64"/>
      <point x="390" y="-64" type="curve" smooth="yes"/>
      <point x="206" y="-64"/>
      <point x="100" y="-172"/>
      <point x="100" y="-354" type="curve" smooth="yes"/>
      <point x="100" y="-360" type="line" smooth="yes"/>
      <point x="100" y="-476"/>
      <point x="139" y="-561"/>
    </contour>
    <contour>
      <point x="997" y="-855" type="curve" smooth="yes"/>
      <point x="1066" y="-855"/>
      <point x="1122" y="-844"/>
      <point x="1160" y="-826" type="curve"/>
      <point x="1173" y="-635" type="line"/>
      <point x="1137" y="-654"/>
      <point x="1096" y="-667"/>
      <point x="1048" y="-667" type="curve"/>
      <point x="1006" y="-667"/>
      <point x="985" y="-654"/>
      <point x="985" y="-632" type="curve" smooth="yes"/>
      <point x="985" y="-608"/>
      <point x="1005" y="-594"/>
      <point x="1077" y="-530" type="curve" smooth="yes"/>
      <point x="1146" y="-466"/>
      <point x="1173" y="-411"/>
      <point x="1173" y="-330" type="curve" smooth="yes"/>
      <point x="1173" y="-322" type="line"/>
      <point x="886" y="-345" type="line"/>
      <point x="886" y="-351" type="line" smooth="yes"/>
      <point x="886" y="-405"/>
      <point x="870" y="-431"/>
      <point x="808" y="-488" type="curve" smooth="yes"/>
      <point x="742" y="-551"/>
      <point x="717" y="-594"/>
      <point x="717" y="-660" type="curve" smooth="yes"/>
      <point x="717" y="-784"/>
      <point x="828" y="-854"/>
    </contour>
    <contour>
      <point x="999" y="-1129" type="curve" smooth="yes"/>
      <point x="1075" y="-1129"/>
      <point x="1130" y="-1115"/>
      <point x="1168" y="-1097" type="curve"/>
      <point x="1179" y="-909" type="line"/>
      <point x="1136" y="-930"/>
      <point x="1096" y="-940"/>
      <point x="1047" y="-940" type="curve" smooth="yes"/>
      <point x="994" y="-940"/>
      <point x="969" y="-921"/>
      <point x="969" y="-895" type="curve" smooth="yes"/>
      <point x="969" y="-872"/>
      <point x="985" y="-855"/>
      <point x="1018" y="-848" type="curve"/>
      <point x="826" y="-806" type="line"/>
      <point x="826" y="-828" type="line"/>
      <point x="757" y="-845"/>
      <point x="725" y="-890"/>
      <point x="725" y="-952" type="curve" smooth="yes"/>
      <point x="726" y="-1066"/>
      <point x="840" y="-1130"/>
    </contour>
  </outline>
</glyph>
<glyph name="Zero.gj" format="2">
  <advance width="1268"/>
  <unicode hex="0AE6"/>
  <outline>
    <contour>
      <point x="634" y="1239" type="curve" smooth="yes"/>
      <point x="288" y="1239"/>
      <point x="83" y="1047"/>
      <point x="83" y="678" type="curve" smooth="yes"/>
      <point x="83" y="584" type="line"/>
      <point x="446" y="584" type="line"/>
      <point x="446" y="680" type="line" smooth="yes"/>
      <point x="446" y="857"/>
      <point x="512" y="942"/>
      <point x="634" y="942" type="curve" smooth="yes"/>
      <point x="754" y="942"/>
      <point x="822" y="857"/>
      <point x="822" y="680" type="curve" smooth="yes"/>
      <point x="822" y="584" type="line"/>
      <point x="1185" y="584" type="line"/>
      <point x="1185" y="678" type="line" smooth="yes"/>
      <point x="1185" y="1044"/>
      <point x="980" y="1239"/>
    </contour>
    <contour>
      <point x="634" y="-29" type="curve" smooth="yes"/>
      <point x="980" y="-29"/>
      <point x="1185" y="167"/>
      <point x="1185" y="532" type="curve" smooth="yes"/>
      <point x="1185" y="627" type="line"/>
      <point x="822" y="627" type="line"/>
      <point x="822" y="530" type="line" smooth="yes"/>
      <point x="822" y="353"/>
      <point x="754" y="268"/>
      <point x="634" y="268" type="curve" smooth="yes"/>
      <point x="512" y="268"/>
      <point x="446" y="353"/>
      <point x="446" y="530" type="curve" smooth="yes"/>
      <point x="446" y="627" type="line"/>
      <point x="83" y="627" type="line"/>
      <point x="83" y="532" type="line" smooth="yes"/>
      <point x="83" y="164"/>
      <point x="288" y="-29"/>
    </contour>
  </outline>
</glyph>
<glyph name="One.gj" format="2">
  <advance width="1170"/>
  <unicode hex="0AE7"/>
  <guideline x="336" y="741" angle="0"/>
  <guideline x="358" y="793" angle="0"/>
  <guideline x="690" y="450" angle="180"/>
  <guideline x="554" y="1049" angle="90"/>
  <guideline x="986" y="745" angle="90"/>
  <outline>
    <contour>
      <point x="413" y="319" type="curve" smooth="yes"/>
      <point x="564" y="319"/>
      <point x="654" y="389"/>
      <point x="678" y="501" type="curve"/>
      <point x="708" y="501" type="line"/>
      <point x="698" y="726" type="line"/>
      <point x="687" y="662"/>
      <point x="636" y="617"/>
      <point x="547" y="617" type="curve" smooth="yes"/>
      <point x="461" y="617"/>
      <point x="419" y="660"/>
      <point x="419" y="752" type="curve" smooth="yes"/>
      <point x="419" y="803" type="line" smooth="yes"/>
      <point x="419" y="902"/>
      <point x="463" y="946"/>
      <point x="554" y="946" type="curve" smooth="yes"/>
      <point x="646" y="946"/>
      <point x="690" y="893"/>
      <point x="690" y="780" type="curve" smooth="yes"/>
      <point x="690" y="561" type="line"/>
      <point x="1043" y="561" type="line"/>
      <point x="1043" y="755" type="line" smooth="yes"/>
      <point x="1043" y="1080"/>
      <point x="882" y="1239"/>
      <point x="551" y="1239" type="curve" smooth="yes"/>
      <point x="218" y="1239"/>
      <point x="56" y="1097"/>
      <point x="56" y="815" type="curve" smooth="yes"/>
      <point x="56" y="730" type="line" smooth="yes"/>
      <point x="56" y="469"/>
      <point x="165" y="319"/>
    </contour>
    <contour>
      <point x="968" y="-17" type="curve" smooth="yes"/>
      <point x="1035" y="-17"/>
      <point x="1089" y="-7"/>
      <point x="1137" y="9" type="curve"/>
      <point x="1158" y="265" type="line"/>
      <point x="1142" y="261"/>
      <point x="1123" y="258"/>
      <point x="1104" y="258" type="curve" smooth="yes"/>
      <point x="1059" y="258"/>
      <point x="1043" y="284"/>
      <point x="1043" y="333" type="curve" smooth="yes"/>
      <point x="1043" y="596" type="line"/>
      <point x="690" y="596" type="line"/>
      <point x="690" y="281" type="line" smooth="yes"/>
      <point x="690" y="76"/>
      <point x="781" y="-17"/>
    </contour>
  </outline>
</glyph>
<glyph name="Two.gj" format="2">
  <advance width="959"/>
  <unicode hex="0AE8"/>
  <guideline x="333" y="625" angle="0"/>
  <guideline x="895" y="796" angle="270"/>
  <guideline x="69" y="914" angle="90"/>
  <outline>
    <contour>
      <point x="362" y="297" type="line"/>
      <point x="366" y="361" type="line"/>
      <point x="475" y="361" type="line" smooth="yes"/>
      <point x="744" y="361"/>
      <point x="895" y="512"/>
      <point x="895" y="781" type="curve" smooth="yes"/>
      <point x="895" y="811" type="line" smooth="yes"/>
      <point x="895" y="1103"/>
      <point x="714" y="1239"/>
      <point x="414" y="1239" type="curve" smooth="yes"/>
      <point x="287" y="1239"/>
      <point x="178" y="1217"/>
      <point x="94" y="1177" type="curve"/>
      <point x="69" y="900" type="line"/>
      <point x="151" y="931"/>
      <point x="245" y="949"/>
      <point x="331" y="949" type="curve" smooth="yes"/>
      <point x="460" y="949"/>
      <point x="529" y="903"/>
      <point x="529" y="796" type="curve" smooth="yes"/>
      <point x="529" y="779" type="line" smooth="yes"/>
      <point x="529" y="672"/>
      <point x="458" y="626"/>
      <point x="328" y="625" type="curve" smooth="yes"/>
      <point x="58" y="623" type="line"/>
      <point x="58" y="363" type="line"/>
    </contour>
    <contour>
      <point x="454" y="0" type="line"/>
      <point x="892" y="0" type="line"/>
      <point x="892" y="13" type="line"/>
      <point x="721" y="198" type="line" smooth="yes"/>
      <point x="650" y="275"/>
      <point x="532" y="377"/>
      <point x="428" y="442" type="curve"/>
      <point x="153" y="371" type="line"/>
    </contour>
  </outline>
</glyph>
<glyph name="Three.gj" format="2">
  <advance width="1007"/>
  <unicode hex="0AE9"/>
  <outline>
    <contour>
      <point x="442" y="-29" type="curve" smooth="yes"/>
      <point x="770" y="-29"/>
      <point x="948" y="92"/>
      <point x="948" y="309" type="curve" smooth="yes"/>
      <point x="948" y="318" type="line" smooth="yes"/>
      <point x="948" y="486"/>
      <point x="862" y="585"/>
      <point x="680" y="610" type="curve"/>
      <point x="680" y="617" type="line"/>
      <point x="855" y="635"/>
      <point x="936" y="726"/>
      <point x="936" y="895" type="curve" smooth="yes"/>
      <point x="936" y="905" type="line" smooth="yes"/>
      <point x="936" y="1129"/>
      <point x="756" y="1239"/>
      <point x="454" y="1239" type="curve" smooth="yes"/>
      <point x="311" y="1239"/>
      <point x="189" y="1212"/>
      <point x="106" y="1179" type="curve"/>
      <point x="76" y="894" type="line"/>
      <point x="166" y="927"/>
      <point x="279" y="949"/>
      <point x="386" y="949" type="curve" smooth="yes"/>
      <point x="508" y="949"/>
      <point x="571" y="916"/>
      <point x="571" y="853" type="curve" smooth="yes"/>
      <point x="571" y="849" type="line" smooth="yes"/>
      <point x="571" y="796"/>
      <point x="531" y="761"/>
      <point x="440" y="759" type="curve" smooth="yes"/>
      <point x="173" y="753" type="line"/>
      <point x="173" y="477" type="line"/>
      <point x="438" y="468" type="line" smooth="yes"/>
      <point x="539" y="465"/>
      <point x="583" y="433"/>
      <point x="583" y="367" type="curve" smooth="yes"/>
      <point x="583" y="362" type="line" smooth="yes"/>
      <point x="583" y="297"/>
      <point x="517" y="265"/>
      <point x="384" y="265" type="curve" smooth="yes"/>
      <point x="258" y="265"/>
      <point x="159" y="292"/>
      <point x="55" y="331" type="curve"/>
      <point x="83" y="37" type="line"/>
      <point x="170" y="-2"/>
      <point x="300" y="-29"/>
    </contour>
  </outline>
</glyph>
<glyph name="Four.gj" format="2">
  <advance width="1264"/>
  <unicode hex="0AEA"/>
  <guideline x="655" y="345" angle="0"/>
  <guideline x="655" y="369" angle="0"/>
  <outline>
    <contour>
      <point x="634" y="-31" type="curve" smooth="yes"/>
      <point x="930" y="-31"/>
      <point x="1094" y="94"/>
      <point x="1094" y="325" type="curve" smooth="yes"/>
      <point x="1094" y="342" type="line" smooth="yes"/>
      <point x="1094" y="486"/>
      <point x="1016" y="590"/>
      <point x="903" y="711" type="curve" smooth="yes"/>
      <point x="786" y="836" type="line"/>
      <point x="555" y="666" type="line"/>
      <point x="646" y="552" type="line" smooth="yes"/>
      <point x="699" y="486"/>
      <point x="738" y="435"/>
      <point x="738" y="369" type="curve" smooth="yes"/>
      <point x="738" y="355" type="line" smooth="yes"/>
      <point x="738" y="283"/>
      <point x="698" y="250"/>
      <point x="634" y="250" type="curve" smooth="yes"/>
      <point x="570" y="250"/>
      <point x="530" y="286"/>
      <point x="530" y="355" type="curve" smooth="yes"/>
      <point x="530" y="369" type="line" smooth="yes"/>
      <point x="530" y="436"/>
      <point x="573" y="487"/>
      <point x="628" y="556" type="curve" smooth="yes"/>
      <point x="736" y="691" type="line"/>
      <point x="505" y="860" type="line"/>
      <point x="374" y="720" type="line" smooth="yes"/>
      <point x="248" y="585"/>
      <point x="174" y="493"/>
      <point x="174" y="342" type="curve" smooth="yes"/>
      <point x="174" y="325" type="line" smooth="yes"/>
      <point x="174" y="94"/>
      <point x="338" y="-31"/>
    </contour>
    <contour>
      <point x="489" y="622" type="line"/>
      <point x="718" y="787" type="line"/>
      <point x="384" y="1207" type="line"/>
      <point x="-19" y="1207" type="line"/>
      <point x="-19" y="1181" type="line"/>
    </contour>
    <contour>
      <point x="775" y="622" type="line"/>
      <point x="1283" y="1181" type="line"/>
      <point x="1283" y="1207" type="line"/>
      <point x="880" y="1207" type="line"/>
      <point x="517" y="732" type="line"/>
    </contour>
  </outline>
</glyph>
<glyph name="Five.gj" format="2">
  <advance width="1271"/>
  <unicode hex="0AEB"/>
  <outline>
    <contour>
      <point x="493" y="278" type="curve" smooth="yes"/>
      <point x="668" y="278"/>
      <point x="756" y="362"/>
      <point x="781" y="477" type="curve"/>
      <point x="813" y="477" type="line"/>
      <point x="796" y="701" type="line"/>
      <point x="783" y="628"/>
      <point x="729" y="576"/>
      <point x="635" y="576" type="curve" smooth="yes"/>
      <point x="534" y="576"/>
      <point x="483" y="632"/>
      <point x="483" y="747" type="curve" smooth="yes"/>
      <point x="483" y="897" type="line"/>
      <point x="130" y="897" type="line"/>
      <point x="130" y="702" type="line" smooth="yes"/>
      <point x="130" y="433"/>
      <point x="237" y="278"/>
    </contour>
    <contour>
      <point x="1069" y="-16" type="curve" smooth="yes"/>
      <point x="1136" y="-16"/>
      <point x="1190" y="-6"/>
      <point x="1238" y="10" type="curve"/>
      <point x="1259" y="266" type="line"/>
      <point x="1243" y="262"/>
      <point x="1224" y="259"/>
      <point x="1205" y="259" type="curve" smooth="yes"/>
      <point x="1159" y="259"/>
      <point x="1142" y="285"/>
      <point x="1142" y="334" type="curve" smooth="yes"/>
      <point x="1142" y="597" type="line"/>
      <point x="793" y="597" type="line"/>
      <point x="793" y="282" type="line" smooth="yes"/>
      <point x="793" y="77"/>
      <point x="883" y="-16"/>
    </contour>
    <contour>
      <point x="789" y="570" type="line"/>
      <point x="1142" y="570" type="line"/>
      <point x="1142" y="1207" type="line"/>
      <point x="789" y="1207" type="line"/>
    </contour>
    <contour>
      <point x="130" y="760" type="line"/>
      <point x="483" y="760" type="line"/>
      <point x="483" y="925" type="line" smooth="yes"/>
      <point x="483" y="1130"/>
      <point x="392" y="1223"/>
      <point x="205" y="1223" type="curve" smooth="yes"/>
      <point x="138" y="1223"/>
      <point x="84" y="1213"/>
      <point x="36" y="1197" type="curve"/>
      <point x="15" y="941" type="line"/>
      <point x="31" y="945"/>
      <point x="50" y="948"/>
      <point x="69" y="948" type="curve" smooth="yes"/>
      <point x="114" y="948"/>
      <point x="130" y="922"/>
      <point x="130" y="873" type="curve" smooth="yes"/>
    </contour>
  </outline>
</glyph>
<glyph name="Six.gj" format="2">
  <advance width="1143"/>
  <unicode hex="0AEC"/>
  <outline>
    <contour>
      <point x="524" y="-29" type="curve" smooth="yes"/>
      <point x="905" y="-29"/>
      <point x="1069" y="139"/>
      <point x="1069" y="435" type="curve" smooth="yes"/>
      <point x="1069" y="811" type="line"/>
      <point x="727" y="811" type="line"/>
      <point x="727" y="638" type="line"/>
      <point x="737" y="571" type="line"/>
      <point x="737" y="470" type="line" smooth="yes"/>
      <point x="737" y="320"/>
      <point x="668" y="246"/>
      <point x="463" y="246" type="curve" smooth="yes"/>
      <point x="351" y="246"/>
      <point x="243" y="269"/>
      <point x="127" y="313" type="curve"/>
      <point x="151" y="35" type="line"/>
      <point x="243" y="-2"/>
      <point x="381" y="-29"/>
    </contour>
    <contour>
      <point x="437" y="360" type="curve" smooth="yes"/>
      <point x="599" y="360"/>
      <point x="700" y="427"/>
      <point x="726" y="534" type="curve"/>
      <point x="751" y="534" type="line"/>
      <point x="740" y="715" type="line"/>
      <point x="720" y="673"/>
      <point x="652" y="645"/>
      <point x="580" y="645" type="curve" smooth="yes"/>
      <point x="468" y="645"/>
      <point x="423" y="686"/>
      <point x="423" y="770" type="curve" smooth="yes"/>
      <point x="423" y="782" type="line"/>
      <point x="60" y="780" type="line"/>
      <point x="60" y="750" type="line" smooth="yes"/>
      <point x="60" y="507"/>
      <point x="178" y="360"/>
    </contour>
    <contour>
      <point x="60" y="775" type="line"/>
      <point x="423" y="776" type="line"/>
      <point x="423" y="789" type="line" smooth="yes"/>
      <point x="423" y="892"/>
      <point x="488" y="955"/>
      <point x="677" y="955" type="curve" smooth="yes"/>
      <point x="802" y="955"/>
      <point x="905" y="936"/>
      <point x="1002" y="912" type="curve"/>
      <point x="980" y="1181" type="line"/>
      <point x="889" y="1213"/>
      <point x="752" y="1239"/>
      <point x="595" y="1239" type="curve" smooth="yes"/>
      <point x="244" y="1239"/>
      <point x="60" y="1091"/>
      <point x="60" y="804" type="curve" smooth="yes"/>
    </contour>
  </outline>
</glyph>
<glyph name="Seven.gj" format="2">
  <advance width="1444"/>
  <unicode hex="0AED"/>
  <outline>
    <contour>
      <point x="704" y="-29" type="curve" smooth="yes"/>
      <point x="1124" y="-29"/>
      <point x="1367" y="183"/>
      <point x="1367" y="581" type="curve" smooth="yes"/>
      <point x="1367" y="630" type="line"/>
      <point x="1007" y="631" type="line"/>
      <point x="1007" y="569" type="line" smooth="yes"/>
      <point x="1007" y="384"/>
      <point x="927" y="261"/>
      <point x="705" y="261" type="curve" smooth="yes"/>
      <point x="513" y="261"/>
      <point x="391" y="349"/>
      <point x="391" y="573" type="curve" smooth="yes"/>
      <point x="391" y="616"/>
      <point x="391" y="649"/>
      <point x="391" y="685" type="curve"/>
      <point x="71" y="685" type="line"/>
      <point x="64" y="633"/>
      <point x="60" y="583"/>
      <point x="60" y="538" type="curve" smooth="yes"/>
      <point x="60" y="157"/>
      <point x="267" y="-29"/>
    </contour>
    <contour>
      <point x="769" y="399" type="curve" smooth="yes"/>
      <point x="898" y="399"/>
      <point x="976" y="465"/>
      <point x="996" y="571" type="curve"/>
      <point x="1032" y="571" type="line"/>
      <point x="1022" y="776" type="line"/>
      <point x="1013" y="718"/>
      <point x="974" y="677"/>
      <point x="907" y="677" type="curve" smooth="yes"/>
      <point x="840" y="677"/>
      <point x="807" y="711"/>
      <point x="807" y="782" type="curve" smooth="yes"/>
      <point x="807" y="839" type="line" smooth="yes"/>
      <point x="807" y="920"/>
      <point x="840" y="956"/>
      <point x="910" y="956" type="curve" smooth="yes"/>
      <point x="980" y="956"/>
      <point x="1014" y="913"/>
      <point x="1014" y="820" type="curve" smooth="yes"/>
      <point x="1014" y="611" type="line"/>
      <point x="1367" y="611" type="line"/>
      <point x="1367" y="755" type="line" smooth="yes"/>
      <point x="1367" y="1080"/>
      <point x="1217" y="1239"/>
      <point x="907" y="1239" type="curve" smooth="yes"/>
      <point x="607" y="1239"/>
      <point x="461" y="1107"/>
      <point x="461" y="843" type="curve" smooth="yes"/>
      <point x="461" y="758" type="line" smooth="yes"/>
      <point x="461" y="530"/>
      <point x="555" y="399"/>
    </contour>
  </outline>
</glyph>
<glyph name="Eight.gj" format="2">
  <advance width="1064"/>
  <unicode hex="0AEE"/>
  <outline>
    <contour>
      <point x="614" y="-29" type="curve" smooth="yes"/>
      <point x="749" y="-29"/>
      <point x="879" y="6"/>
      <point x="977" y="56" type="curve"/>
      <point x="1007" y="360" type="line"/>
      <point x="911" y="308"/>
      <point x="776" y="268"/>
      <point x="653" y="268" type="curve" smooth="yes"/>
      <point x="502" y="268"/>
      <point x="428" y="329"/>
      <point x="428" y="428" type="curve" smooth="yes"/>
      <point x="428" y="430" type="line" smooth="yes"/>
      <point x="428" y="528"/>
      <point x="505" y="657"/>
      <point x="664" y="846" type="curve" smooth="yes"/>
      <point x="968" y="1207" type="line"/>
      <point x="549" y="1207" type="line"/>
      <point x="355" y="983" type="line" smooth="yes"/>
      <point x="172" y="772"/>
      <point x="63" y="587"/>
      <point x="63" y="410" type="curve" smooth="yes"/>
      <point x="63" y="398" type="line" smooth="yes"/>
      <point x="63" y="120"/>
      <point x="250" y="-29"/>
    </contour>
  </outline>
</glyph>
<glyph name="Nine.gj" format="2">
  <advance width="1188"/>
  <unicode hex="0AEF"/>
  <outline>
    <contour>
      <point x="655" y="-29" type="curve" smooth="yes"/>
      <point x="799" y="-29"/>
      <point x="937" y="2"/>
      <point x="1041" y="46" type="curve"/>
      <point x="1071" y="346" type="line"/>
      <point x="965" y="299"/>
      <point x="815" y="264"/>
      <point x="694" y="264" type="curve" smooth="yes"/>
      <point x="515" y="264"/>
      <point x="428" y="333"/>
      <point x="428" y="448" type="curve" smooth="yes"/>
      <point x="428" y="451" type="line" smooth="yes"/>
      <point x="428" y="552"/>
      <point x="495" y="670"/>
      <point x="686" y="899" type="curve" smooth="yes"/>
      <point x="943" y="1207" type="line"/>
      <point x="519" y="1207" type="line"/>
      <point x="342" y="1002" type="line" smooth="yes"/>
      <point x="148" y="777"/>
      <point x="63" y="614"/>
      <point x="63" y="430" type="curve" smooth="yes"/>
      <point x="63" y="418" type="line" smooth="yes"/>
      <point x="63" y="140"/>
      <point x="264" y="-29"/>
    </contour>
    <contour>
      <point x="638" y="380" type="line"/>
      <point x="669" y="380" type="line"/>
      <point x="1141" y="645" type="line"/>
      <point x="1127" y="954" type="line"/>
      <point x="624" y="664" type="line"/>
    </contour>
  </outline>
</glyph>
<glyph name="AbbreviationSign.gj" format="2">
  <advance width="1089"/>
  <unicode hex="0AF0"/>
  <outline>
    <contour>
      <point x="545" y="762" type="curve" smooth="yes"/>
      <point x="265" y="762"/>
      <point x="102" y="619"/>
      <point x="102" y="376" type="curve" smooth="yes"/>
      <point x="102" y="364" type="line"/>
      <point x="425" y="364" type="line"/>
      <point x="425" y="373" type="line" smooth="yes"/>
      <point x="425" y="463"/>
      <point x="467" y="508"/>
      <point x="545" y="508" type="curve" smooth="yes"/>
      <point x="620" y="508"/>
      <point x="665" y="463"/>
      <point x="665" y="373" type="curve" smooth="yes"/>
      <point x="665" y="364" type="line"/>
      <point x="988" y="364" type="line"/>
      <point x="988" y="376" type="line" smooth="yes"/>
      <point x="988" y="619"/>
      <point x="825" y="762"/>
    </contour>
    <contour>
      <point x="545" y="-29" type="curve" smooth="yes"/>
      <point x="825" y="-29"/>
      <point x="988" y="114"/>
      <point x="988" y="354" type="curve" smooth="yes"/>
      <point x="988" y="369" type="line"/>
      <point x="665" y="369" type="line"/>
      <point x="665" y="359" type="line" smooth="yes"/>
      <point x="665" y="271"/>
      <point x="620" y="225"/>
      <point x="545" y="225" type="curve" smooth="yes"/>
      <point x="467" y="225"/>
      <point x="425" y="271"/>
      <point x="425" y="359" type="curve" smooth="yes"/>
      <point x="425" y="370" type="line"/>
      <point x="102" y="370" type="line"/>
      <point x="102" y="354" type="line" smooth="yes"/>
      <point x="102" y="114"/>
      <point x="265" y="-29"/>
    </contour>
  </outline>
</glyph>
<glyph name="RupeeSign.gj" format="2">
  <advance width="2020"/>
  <unicode hex="0AF1"/>
  <anchor x="574" y="-376" name="Bottom"/>
  <anchor x="492" y="1277" name="Top"/>
  <anchor x="502" y="1277" name="Top2"/>
  <outline>
    <contour>
      <point x="1476" y="762" type="curve" smooth="yes"/>
      <point x="1196" y="762"/>
      <point x="1033" y="619"/>
      <point x="1033" y="376" type="curve" smooth="yes"/>
      <point x="1033" y="364" type="line"/>
      <point x="1356" y="364" type="line"/>
      <point x="1356" y="373" type="line" smooth="yes"/>
      <point x="1356" y="463"/>
      <point x="1398" y="508"/>
      <point x="1476" y="508" type="curve" smooth="yes"/>
      <point x="1551" y="508"/>
      <point x="1596" y="463"/>
      <point x="1596" y="373" type="curve" smooth="yes"/>
      <point x="1596" y="364" type="line"/>
      <point x="1919" y="364" type="line"/>
      <point x="1919" y="376" type="line" smooth="yes"/>
      <point x="1919" y="619"/>
      <point x="1756" y="762"/>
    </contour>
    <contour>
      <point x="1476" y="-29" type="curve" smooth="yes"/>
      <point x="1756" y="-29"/>
      <point x="1919" y="114"/>
      <point x="1919" y="354" type="curve" smooth="yes"/>
      <point x="1919" y="369" type="line"/>
      <point x="1596" y="369" type="line"/>
      <point x="1596" y="359" type="line" smooth="yes"/>
      <point x="1596" y="271"/>
      <point x="1551" y="225"/>
      <point x="1476" y="225" type="curve" smooth="yes"/>
      <point x="1398" y="225"/>
      <point x="1356" y="271"/>
      <point x="1356" y="359" type="curve" smooth="yes"/>
      <point x="1356" y="370" type="line"/>
      <point x="1033" y="370" type="line"/>
      <point x="1033" y="354" type="line" smooth="yes"/>
      <point x="1033" y="114"/>
      <point x="1196" y="-29"/>
    </contour>
    <contour>
      <point x="428" y="-29" type="curve" smooth="yes"/>
      <point x="756" y="-29"/>
      <point x="934" y="92"/>
      <point x="934" y="309" type="curve" smooth="yes"/>
      <point x="934" y="318" type="line" smooth="yes"/>
      <point x="934" y="486"/>
      <point x="848" y="585"/>
      <point x="666" y="610" type="curve"/>
      <point x="666" y="617" type="line"/>
      <point x="841" y="635"/>
      <point x="922" y="726"/>
      <point x="922" y="895" type="curve" smooth="yes"/>
      <point x="922" y="905" type="line" smooth="yes"/>
      <point x="922" y="1129"/>
      <point x="742" y="1239"/>
      <point x="440" y="1239" type="curve" smooth="yes"/>
      <point x="305" y="1239"/>
      <point x="190" y="1212"/>
      <point x="112" y="1179" type="curve"/>
      <point x="82" y="894" type="line"/>
      <point x="166" y="927"/>
      <point x="272" y="949"/>
      <point x="372" y="949" type="curve" smooth="yes"/>
      <point x="494" y="949"/>
      <point x="557" y="916"/>
      <point x="557" y="853" type="curve" smooth="yes"/>
      <point x="557" y="849" type="line" smooth="yes"/>
      <point x="557" y="796"/>
      <point x="517" y="761"/>
      <point x="426" y="759" type="curve" smooth="yes"/>
      <point x="174" y="753" type="line"/>
      <point x="174" y="477" type="line"/>
      <point x="424" y="468" type="line" smooth="yes"/>
      <point x="525" y="464"/>
      <point x="569" y="433"/>
      <point x="569" y="367" type="curve" smooth="yes"/>
      <point x="569" y="362" type="line" smooth="yes"/>
      <point x="569" y="297"/>
      <point x="503" y="265"/>
      <point x="370" y="265" type="curve" smooth="yes"/>
      <point x="252" y="265"/>
      <point x="159" y="292"/>
      <point x="61" y="331" type="curve"/>
      <point x="89" y="37" type="line"/>
      <point x="171" y="-2"/>
      <point x="294" y="-29"/>
    </contour>
    <contour>
      <point x="373" y="-330" type="line"/>
      <point x="806" y="-330" type="line"/>
      <point x="806" y="-321" type="line"/>
      <point x="693" y="-189" type="line" smooth="yes"/>
      <point x="636" y="-117"/>
      <point x="545" y="-33"/>
      <point x="384" y="48" type="curve"/>
      <point x="166" y="43" type="line"/>
    </contour>
  </outline>
</glyph>
<glyph name="Zha.gj" format="2">
  <advance width="1581"/>
  <unicode hex="0AF9"/>
  <anchor x="985" y="-64" name="Bottom"/>
  <anchor x="1189" y="1277" name="Top"/>
  <anchor x="1393" y="1277" name="Top2"/>
  <outline>
    <contour>
      <point x="1115" y="656" type="line"/>
      <point x="1600" y="1181" type="line"/>
      <point x="1600" y="1207" type="line"/>
      <point x="1192" y="1207" type="line"/>
      <point x="886" y="821" type="line"/>
    </contour>
    <contour>
      <point x="437" y="409" type="line"/>
      <point x="437" y="863" type="line" smooth="yes"/>
      <point x="437" y="926"/>
      <point x="458" y="959"/>
      <point x="505" y="959" type="curve" smooth="yes"/>
      <point x="541" y="959"/>
      <point x="566" y="940"/>
      <point x="613" y="886" type="curve" smooth="yes"/>
      <point x="871" y="588" type="line"/>
      <point x="1134" y="764" type="line"/>
      <point x="884" y="1048" type="line" smooth="yes"/>
      <point x="778" y="1169"/>
      <point x="669" y="1239"/>
      <point x="484" y="1239" type="curve" smooth="yes"/>
      <point x="228" y="1239"/>
      <point x="95" y="1102"/>
      <point x="95" y="844" type="curve" smooth="yes"/>
      <point x="95" y="463" type="line"/>
    </contour>
    <contour>
      <point x="970" y="-29" type="curve" smooth="yes"/>
      <point x="1269" y="-29"/>
      <point x="1430" y="91"/>
      <point x="1430" y="324" type="curve" smooth="yes"/>
      <point x="1430" y="333" type="line" smooth="yes"/>
      <point x="1430" y="477"/>
      <point x="1347" y="579"/>
      <point x="1232" y="702" type="curve" smooth="yes"/>
      <point x="1115" y="827" type="line"/>
      <point x="880" y="642" type="line"/>
      <point x="973" y="538" type="line" smooth="yes"/>
      <point x="1030" y="474"/>
      <point x="1077" y="420"/>
      <point x="1077" y="360" type="curve" smooth="yes"/>
      <point x="1077" y="352" type="line" smooth="yes"/>
      <point x="1077" y="284"/>
      <point x="1040" y="252"/>
      <point x="970" y="252" type="curve" smooth="yes"/>
      <point x="897" y="252"/>
      <point x="860" y="284"/>
      <point x="860" y="352" type="curve" smooth="yes"/>
      <point x="860" y="360" type="line" smooth="yes"/>
      <point x="860" y="426"/>
      <point x="897" y="472"/>
      <point x="960" y="539" type="curve" smooth="yes"/>
      <point x="1069" y="660" type="line"/>
      <point x="829" y="830" type="line"/>
      <point x="708" y="708" type="line" smooth="yes"/>
      <point x="585" y="570"/>
      <point x="507" y="483"/>
      <point x="507" y="333" type="curve" smooth="yes"/>
      <point x="507" y="324" type="line" smooth="yes"/>
      <point x="507" y="91"/>
      <point x="669" y="-29"/>
    </contour>
    <contour>
      <point x="562" y="-348" type="curve" smooth="yes"/>
      <point x="670" y="-348"/>
      <point x="718" y="-291"/>
      <point x="718" y="-201" type="curve" smooth="yes"/>
      <point x="718" y="-193" type="line" smooth="yes"/>
      <point x="718" y="-103"/>
      <point x="667" y="-46"/>
      <point x="562" y="-46" type="curve" smooth="yes"/>
      <point x="457" y="-46"/>
      <point x="406" y="-105"/>
      <point x="406" y="-193" type="curve" smooth="yes"/>
      <point x="406" y="-201" type="line" smooth="yes"/>
      <point x="406" y="-291"/>
      <point x="455" y="-348"/>
    </contour>
    <contour>
      <point x="216" y="-141" type="curve" smooth="yes"/>
      <point x="324" y="-141"/>
      <point x="372" y="-84"/>
      <point x="372" y="6" type="curve" smooth="yes"/>
      <point x="372" y="14" type="line" smooth="yes"/>
      <point x="372" y="104"/>
      <point x="321" y="161"/>
      <point x="216" y="161" type="curve" smooth="yes"/>
      <point x="111" y="161"/>
      <point x="60" y="102"/>
      <point x="60" y="14" type="curve" smooth="yes"/>
      <point x="60" y="6" type="line" smooth="yes"/>
      <point x="60" y="-84"/>
      <point x="109" y="-141"/>
    </contour>
    <contour>
      <point x="212" y="-575" type="curve" smooth="yes"/>
      <point x="320" y="-575"/>
      <point x="368" y="-518"/>
      <point x="368" y="-428" type="curve" smooth="yes"/>
      <point x="368" y="-420" type="line" smooth="yes"/>
      <point x="368" y="-330"/>
      <point x="317" y="-273"/>
      <point x="212" y="-273" type="curve" smooth="yes"/>
      <point x="107" y="-273"/>
      <point x="56" y="-332"/>
      <point x="56" y="-420" type="curve" smooth="yes"/>
      <point x="56" y="-428" type="line" smooth="yes"/>
      <point x="56" y="-518"/>
      <point x="105" y="-575"/>
    </contour>
  </outline>
</glyph>
<glyph name="BaBa.gj" format="2">
  <advance width="2747"/>
  <anchor x="2443" y="-64" name="Bottom"/>
  <anchor x="2422" y="1277" name="Top"/>
  <anchor x="2474" y="1277" name="Top2"/>
  <outline>
    <contour>
      <point x="850" y="489" type="line"/>
      <point x="1401" y="489" type="line"/>
      <point x="1377" y="776" type="line"/>
      <point x="850" y="776" type="line"/>
    </contour>
    <contour>
      <point x="536" y="103" type="curve" smooth="yes"/>
      <point x="835" y="103"/>
      <point x="989" y="244"/>
      <point x="989" y="537" type="curve" smooth="yes"/>
      <point x="989" y="1024" type="line"/>
      <point x="642" y="1024" type="line"/>
      <point x="642" y="526" type="line" smooth="yes"/>
      <point x="642" y="442"/>
      <point x="609" y="399"/>
      <point x="540" y="399" type="curve" smooth="yes"/>
      <point x="457" y="399"/>
      <point x="424" y="456"/>
      <point x="424" y="566" type="curve" smooth="yes"/>
      <point x="424" y="737" type="line" smooth="yes"/>
      <point x="424" y="917"/>
      <point x="469" y="1078"/>
      <point x="552" y="1207" type="curve"/>
      <point x="195" y="1207" type="line"/>
      <point x="104" y="1089"/>
      <point x="61" y="918"/>
      <point x="61" y="730" type="curve" smooth="yes"/>
      <point x="61" y="577" type="line" smooth="yes"/>
      <point x="61" y="254"/>
      <point x="218" y="103"/>
    </contour>
    <contour>
      <point x="2298" y="450" type="line"/>
      <point x="2651" y="450" type="line"/>
      <point x="2651" y="1207" type="line"/>
      <point x="2298" y="1207" type="line"/>
    </contour>
    <contour>
      <point x="2298" y="0" type="line"/>
      <point x="2651" y="0" type="line"/>
      <point x="2651" y="546" type="line"/>
      <point x="2298" y="546" type="line"/>
    </contour>
    <contour>
      <point x="1961" y="489" type="line"/>
      <point x="2516" y="489" type="line"/>
      <point x="2492" y="776" type="line"/>
      <point x="1961" y="776" type="line"/>
    </contour>
    <contour>
      <point x="1647" y="103" type="curve" smooth="yes"/>
      <point x="1946" y="103"/>
      <point x="2100" y="244"/>
      <point x="2100" y="537" type="curve" smooth="yes"/>
      <point x="2100" y="1024" type="line"/>
      <point x="1753" y="1024" type="line"/>
      <point x="1753" y="526" type="line" smooth="yes"/>
      <point x="1753" y="442"/>
      <point x="1720" y="399"/>
      <point x="1651" y="399" type="curve" smooth="yes"/>
      <point x="1568" y="399"/>
      <point x="1535" y="456"/>
      <point x="1535" y="566" type="curve" smooth="yes"/>
      <point x="1535" y="737" type="line" smooth="yes"/>
      <point x="1535" y="917"/>
      <point x="1580" y="1078"/>
      <point x="1663" y="1207" type="curve"/>
      <point x="1306" y="1207" type="line"/>
      <point x="1215" y="1089"/>
      <point x="1172" y="918"/>
      <point x="1172" y="730" type="curve" smooth="yes"/>
      <point x="1172" y="577" type="line" smooth="yes"/>
      <point x="1172" y="254"/>
      <point x="1329" y="103"/>
    </contour>
  </outline>
</glyph>
<glyph name="BaBha.gj" format="2">
  <advance width="2829"/>
  <anchor x="2525" y="-64" name="Bottom"/>
  <anchor x="2504" y="1277" name="Top"/>
  <anchor x="2556" y="1277" name="Top2"/>
  <outline>
    <contour>
      <point x="850" y="489" type="line"/>
      <point x="1374" y="489" type="line"/>
      <point x="1350" y="776" type="line"/>
      <point x="850" y="776" type="line"/>
    </contour>
    <contour>
      <point x="536" y="103" type="curve" smooth="yes"/>
      <point x="835" y="103"/>
      <point x="989" y="244"/>
      <point x="989" y="537" type="curve" smooth="yes"/>
      <point x="989" y="1024" type="line"/>
      <point x="642" y="1024" type="line"/>
      <point x="642" y="526" type="line" smooth="yes"/>
      <point x="642" y="442"/>
      <point x="609" y="399"/>
      <point x="540" y="399" type="curve" smooth="yes"/>
      <point x="457" y="399"/>
      <point x="424" y="456"/>
      <point x="424" y="566" type="curve" smooth="yes"/>
      <point x="424" y="737" type="line" smooth="yes"/>
      <point x="424" y="917"/>
      <point x="469" y="1078"/>
      <point x="552" y="1207" type="curve"/>
      <point x="195" y="1207" type="line"/>
      <point x="104" y="1089"/>
      <point x="61" y="918"/>
      <point x="61" y="730" type="curve" smooth="yes"/>
      <point x="61" y="577" type="line" smooth="yes"/>
      <point x="61" y="254"/>
      <point x="218" y="103"/>
    </contour>
    <contour>
      <point x="2380" y="450" type="line"/>
      <point x="2733" y="450" type="line"/>
      <point x="2733" y="1207" type="line"/>
      <point x="2380" y="1207" type="line"/>
    </contour>
    <contour>
      <point x="2380" y="0" type="line"/>
      <point x="2733" y="0" type="line"/>
      <point x="2733" y="546" type="line"/>
      <point x="2380" y="546" type="line"/>
    </contour>
    <contour>
      <point x="2018" y="427" type="line"/>
      <point x="2530" y="427" type="line"/>
      <point x="2506" y="714" type="line"/>
      <point x="2018" y="714" type="line"/>
    </contour>
    <contour>
      <point x="1322" y="0" type="curve"/>
      <point x="1695" y="0" type="line"/>
      <point x="1582" y="159"/>
      <point x="1523" y="339"/>
      <point x="1523" y="543" type="curve" smooth="yes"/>
      <point x="1523" y="672" type="line" smooth="yes"/>
      <point x="1523" y="855"/>
      <point x="1603" y="943"/>
      <point x="1751" y="943" type="curve" smooth="yes"/>
      <point x="1782" y="943"/>
      <point x="1820" y="937"/>
      <point x="1855" y="919" type="curve"/>
      <point x="1799" y="1020" type="line"/>
      <point x="1799" y="587" type="line"/>
      <point x="2147" y="587" type="line"/>
      <point x="2147" y="1163" type="line"/>
      <point x="2022" y="1216"/>
      <point x="1892" y="1239"/>
      <point x="1752" y="1239" type="curve" smooth="yes"/>
      <point x="1352" y="1239"/>
      <point x="1160" y="1046"/>
      <point x="1160" y="673" type="curve" smooth="yes"/>
      <point x="1160" y="547" type="line" smooth="yes"/>
      <point x="1160" y="339"/>
      <point x="1218" y="130"/>
    </contour>
    <contour>
      <point x="1832" y="161" type="curve"/>
      <point x="2142" y="161" type="line"/>
      <point x="2142" y="701" type="line"/>
      <point x="1818" y="701" type="line"/>
      <point x="1672" y="611" type="line"/>
      <point x="1682" y="434"/>
      <point x="1743" y="278"/>
    </contour>
  </outline>
</glyph>
<glyph name="BaDa.gj" format="2">
  <advance width="2097"/>
  <anchor x="1686" y="-64" name="Bottom"/>
  <anchor x="1775" y="1277" name="Top"/>
  <anchor x="1657" y="1277" name="Top2"/>
  <outline>
    <contour>
      <point x="850" y="410" type="line"/>
      <point x="1499" y="410" type="line"/>
      <point x="1475" y="697" type="line"/>
      <point x="850" y="697" type="line"/>
    </contour>
    <contour>
      <point x="536" y="103" type="curve" smooth="yes"/>
      <point x="835" y="103"/>
      <point x="989" y="244"/>
      <point x="989" y="537" type="curve" smooth="yes"/>
      <point x="989" y="1024" type="line"/>
      <point x="642" y="1024" type="line"/>
      <point x="642" y="526" type="line" smooth="yes"/>
      <point x="642" y="442"/>
      <point x="609" y="399"/>
      <point x="540" y="399" type="curve" smooth="yes"/>
      <point x="457" y="399"/>
      <point x="424" y="456"/>
      <point x="424" y="566" type="curve" smooth="yes"/>
      <point x="424" y="737" type="line" smooth="yes"/>
      <point x="424" y="917"/>
      <point x="469" y="1078"/>
      <point x="552" y="1207" type="curve"/>
      <point x="195" y="1207" type="line"/>
      <point x="104" y="1089"/>
      <point x="61" y="918"/>
      <point x="61" y="730" type="curve" smooth="yes"/>
      <point x="61" y="577" type="line" smooth="yes"/>
      <point x="61" y="254"/>
      <point x="218" y="103"/>
    </contour>
    <contour>
      <point x="1668" y="-29" type="curve" smooth="yes"/>
      <point x="1806" y="-29"/>
      <point x="1931" y="-2"/>
      <point x="2016" y="37" type="curve"/>
      <point x="2044" y="331" type="line"/>
      <point x="1944" y="292"/>
      <point x="1847" y="265"/>
      <point x="1725" y="265" type="curve" smooth="yes"/>
      <point x="1599" y="265"/>
      <point x="1536" y="298"/>
      <point x="1536" y="365" type="curve" smooth="yes"/>
      <point x="1536" y="370" type="line" smooth="yes"/>
      <point x="1536" y="434"/>
      <point x="1582" y="464"/>
      <point x="1687" y="468" type="curve" smooth="yes"/>
      <point x="1932" y="477" type="line"/>
      <point x="1932" y="753" type="line"/>
      <point x="1684" y="759" type="line" smooth="yes"/>
      <point x="1591" y="761"/>
      <point x="1549" y="795"/>
      <point x="1549" y="848" type="curve" smooth="yes"/>
      <point x="1549" y="852" type="line" smooth="yes"/>
      <point x="1549" y="915"/>
      <point x="1609" y="949"/>
      <point x="1724" y="949" type="curve" smooth="yes"/>
      <point x="1828" y="949"/>
      <point x="1937" y="927"/>
      <point x="2024" y="894" type="curve"/>
      <point x="1994" y="1179" type="line"/>
      <point x="1913" y="1212"/>
      <point x="1795" y="1239"/>
      <point x="1656" y="1239" type="curve" smooth="yes"/>
      <point x="1359" y="1239"/>
      <point x="1184" y="1127"/>
      <point x="1184" y="901" type="curve" smooth="yes"/>
      <point x="1184" y="891" type="line" smooth="yes"/>
      <point x="1184" y="724"/>
      <point x="1265" y="635"/>
      <point x="1442" y="617" type="curve"/>
      <point x="1442" y="610" type="line"/>
      <point x="1259" y="585"/>
      <point x="1171" y="488"/>
      <point x="1171" y="323" type="curve" smooth="yes"/>
      <point x="1171" y="311" type="line" smooth="yes"/>
      <point x="1171" y="93"/>
      <point x="1345" y="-29"/>
    </contour>
  </outline>
</glyph>
<glyph name="BaDda.gj" format="2">
  <advance width="2189"/>
  <anchor x="1683" y="-64" name="Bottom"/>
  <anchor x="1786" y="1277" name="Top"/>
  <anchor x="1655" y="1277" name="Top2"/>
  <outline>
    <contour>
      <point x="850" y="533" type="line"/>
      <point x="1495" y="533" type="line"/>
      <point x="1471" y="820" type="line"/>
      <point x="850" y="820" type="line"/>
    </contour>
    <contour>
      <point x="536" y="103" type="curve" smooth="yes"/>
      <point x="835" y="103"/>
      <point x="989" y="244"/>
      <point x="989" y="537" type="curve" smooth="yes"/>
      <point x="989" y="1024" type="line"/>
      <point x="642" y="1024" type="line"/>
      <point x="642" y="526" type="line" smooth="yes"/>
      <point x="642" y="442"/>
      <point x="609" y="399"/>
      <point x="540" y="399" type="curve" smooth="yes"/>
      <point x="457" y="399"/>
      <point x="424" y="456"/>
      <point x="424" y="566" type="curve" smooth="yes"/>
      <point x="424" y="737" type="line" smooth="yes"/>
      <point x="424" y="917"/>
      <point x="469" y="1078"/>
      <point x="552" y="1207" type="curve"/>
      <point x="195" y="1207" type="line"/>
      <point x="104" y="1089"/>
      <point x="61" y="918"/>
      <point x="61" y="730" type="curve" smooth="yes"/>
      <point x="61" y="577" type="line" smooth="yes"/>
      <point x="61" y="254"/>
      <point x="218" y="103"/>
    </contour>
    <contour>
      <point x="1625" y="-29" type="curve" smooth="yes"/>
      <point x="1941" y="-29"/>
      <point x="2130" y="88"/>
      <point x="2130" y="350" type="curve" smooth="yes"/>
      <point x="2130" y="366" type="line" smooth="yes"/>
      <point x="2130" y="578"/>
      <point x="2026" y="676"/>
      <point x="1771" y="735" type="curve" smooth="yes"/>
      <point x="1672" y="758" type="line" smooth="yes"/>
      <point x="1584" y="778"/>
      <point x="1545" y="807"/>
      <point x="1545" y="853" type="curve" smooth="yes"/>
      <point x="1545" y="857" type="line" smooth="yes"/>
      <point x="1545" y="914"/>
      <point x="1593" y="946"/>
      <point x="1734" y="946" type="curve" smooth="yes"/>
      <point x="1846" y="946"/>
      <point x="1962" y="920"/>
      <point x="2056" y="883" type="curve"/>
      <point x="2026" y="1171" type="line"/>
      <point x="1940" y="1208"/>
      <point x="1814" y="1239"/>
      <point x="1666" y="1239" type="curve" smooth="yes"/>
      <point x="1344" y="1239"/>
      <point x="1182" y="1115"/>
      <point x="1182" y="871" type="curve" smooth="yes"/>
      <point x="1182" y="859" type="line" smooth="yes"/>
      <point x="1182" y="672"/>
      <point x="1281" y="551"/>
      <point x="1537" y="498" type="curve" smooth="yes"/>
      <point x="1624" y="480" type="line" smooth="yes"/>
      <point x="1736" y="457"/>
      <point x="1767" y="427"/>
      <point x="1767" y="374" type="curve" smooth="yes"/>
      <point x="1767" y="370" type="line" smooth="yes"/>
      <point x="1767" y="305"/>
      <point x="1706" y="268"/>
      <point x="1567" y="268" type="curve" smooth="yes"/>
      <point x="1422" y="268"/>
      <point x="1288" y="313"/>
      <point x="1182" y="359" type="curve"/>
      <point x="1212" y="53" type="line"/>
      <point x="1315" y="9"/>
      <point x="1459" y="-29"/>
    </contour>
  </outline>
</glyph>
<glyph name="BaDha.gj" format="2">
  <advance width="2412"/>
  <anchor x="2108" y="-64" name="Bottom"/>
  <anchor x="2087" y="1277" name="Top"/>
  <anchor x="2139" y="1277" name="Top2"/>
  <outline>
    <contour>
      <point x="850" y="450" type="line"/>
      <point x="1488" y="450" type="line"/>
      <point x="1464" y="737" type="line"/>
      <point x="850" y="737" type="line"/>
    </contour>
    <contour>
      <point x="536" y="103" type="curve" smooth="yes"/>
      <point x="835" y="103"/>
      <point x="989" y="244"/>
      <point x="989" y="537" type="curve" smooth="yes"/>
      <point x="989" y="1024" type="line"/>
      <point x="642" y="1024" type="line"/>
      <point x="642" y="526" type="line" smooth="yes"/>
      <point x="642" y="442"/>
      <point x="609" y="399"/>
      <point x="540" y="399" type="curve" smooth="yes"/>
      <point x="457" y="399"/>
      <point x="424" y="456"/>
      <point x="424" y="566" type="curve" smooth="yes"/>
      <point x="424" y="737" type="line" smooth="yes"/>
      <point x="424" y="917"/>
      <point x="469" y="1078"/>
      <point x="552" y="1207" type="curve"/>
      <point x="195" y="1207" type="line"/>
      <point x="104" y="1089"/>
      <point x="61" y="918"/>
      <point x="61" y="730" type="curve" smooth="yes"/>
      <point x="61" y="577" type="line" smooth="yes"/>
      <point x="61" y="254"/>
      <point x="218" y="103"/>
    </contour>
    <contour>
      <point x="1595" y="58" type="curve" smooth="yes"/>
      <point x="1812" y="58"/>
      <point x="1911" y="141"/>
      <point x="1951" y="261" type="curve"/>
      <point x="1987" y="261" type="line"/>
      <point x="1968" y="480" type="line"/>
      <point x="1950" y="406"/>
      <point x="1863" y="349"/>
      <point x="1725" y="349" type="curve" smooth="yes"/>
      <point x="1596" y="349"/>
      <point x="1547" y="383"/>
      <point x="1547" y="455" type="curve" smooth="yes"/>
      <point x="1547" y="458" type="line" smooth="yes"/>
      <point x="1547" y="520"/>
      <point x="1583" y="554"/>
      <point x="1670" y="557" type="curve" smooth="yes"/>
      <point x="1834" y="563" type="line"/>
      <point x="1834" y="830" type="line"/>
      <point x="1670" y="836" type="line" smooth="yes"/>
      <point x="1583" y="839"/>
      <point x="1545" y="875"/>
      <point x="1545" y="937" type="curve" smooth="yes"/>
      <point x="1545" y="941" type="line" smooth="yes"/>
      <point x="1545" y="1042"/>
      <point x="1619" y="1143"/>
      <point x="1731" y="1271" type="curve"/>
      <point x="1731" y="1284" type="line"/>
      <point x="1333" y="1284" type="line"/>
      <point x="1227" y="1168"/>
      <point x="1181" y="1071"/>
      <point x="1181" y="954" type="curve" smooth="yes"/>
      <point x="1181" y="948" type="line" smooth="yes"/>
      <point x="1181" y="799"/>
      <point x="1255" y="718"/>
      <point x="1431" y="700" type="curve"/>
      <point x="1431" y="692" type="line"/>
      <point x="1259" y="671"/>
      <point x="1182" y="574"/>
      <point x="1182" y="411" type="curve" smooth="yes"/>
      <point x="1182" y="401" type="line" smooth="yes"/>
      <point x="1182" y="191"/>
      <point x="1315" y="58"/>
    </contour>
    <contour>
      <point x="1963" y="450" type="line"/>
      <point x="2316" y="450" type="line"/>
      <point x="2316" y="1207" type="line"/>
      <point x="1963" y="1207" type="line"/>
    </contour>
    <contour>
      <point x="1963" y="0" type="line"/>
      <point x="2316" y="0" type="line"/>
      <point x="2316" y="546" type="line"/>
      <point x="1963" y="546" type="line"/>
    </contour>
  </outline>
</glyph>
<glyph name="BaDhaVa.gj" format="2">
  <advance width="3138"/>
  <anchor x="2834" y="-64" name="Bottom"/>
  <anchor x="2813" y="1277" name="Top"/>
  <anchor x="2865" y="1277" name="Top2"/>
  <outline>
    <contour>
      <point x="850" y="444" type="line"/>
      <point x="1504" y="444" type="line"/>
      <point x="1480" y="731" type="line"/>
      <point x="850" y="731" type="line"/>
    </contour>
    <contour>
      <point x="536" y="103" type="curve" smooth="yes"/>
      <point x="835" y="103"/>
      <point x="989" y="244"/>
      <point x="989" y="537" type="curve" smooth="yes"/>
      <point x="989" y="1024" type="line"/>
      <point x="642" y="1024" type="line"/>
      <point x="642" y="526" type="line" smooth="yes"/>
      <point x="642" y="442"/>
      <point x="609" y="399"/>
      <point x="540" y="399" type="curve" smooth="yes"/>
      <point x="457" y="399"/>
      <point x="424" y="456"/>
      <point x="424" y="566" type="curve" smooth="yes"/>
      <point x="424" y="737" type="line" smooth="yes"/>
      <point x="424" y="917"/>
      <point x="469" y="1078"/>
      <point x="552" y="1207" type="curve"/>
      <point x="195" y="1207" type="line"/>
      <point x="104" y="1089"/>
      <point x="61" y="918"/>
      <point x="61" y="730" type="curve" smooth="yes"/>
      <point x="61" y="577" type="line" smooth="yes"/>
      <point x="61" y="254"/>
      <point x="218" y="103"/>
    </contour>
    <contour>
      <point x="1639" y="58" type="curve" smooth="yes"/>
      <point x="1945" y="58"/>
      <point x="2051" y="192"/>
      <point x="2085" y="373" type="curve"/>
      <point x="2006" y="458" type="line"/>
      <point x="1962" y="394"/>
      <point x="1878" y="349"/>
      <point x="1747" y="349" type="curve" smooth="yes"/>
      <point x="1608" y="349"/>
      <point x="1559" y="383"/>
      <point x="1559" y="455" type="curve" smooth="yes"/>
      <point x="1559" y="458" type="line" smooth="yes"/>
      <point x="1559" y="520"/>
      <point x="1595" y="554"/>
      <point x="1682" y="557" type="curve" smooth="yes"/>
      <point x="1846" y="563" type="line"/>
      <point x="1846" y="830" type="line"/>
      <point x="1682" y="836" type="line" smooth="yes"/>
      <point x="1595" y="839"/>
      <point x="1557" y="875"/>
      <point x="1557" y="937" type="curve" smooth="yes"/>
      <point x="1557" y="941" type="line" smooth="yes"/>
      <point x="1557" y="1042"/>
      <point x="1631" y="1143"/>
      <point x="1743" y="1271" type="curve"/>
      <point x="1743" y="1284" type="line"/>
      <point x="1345" y="1284" type="line"/>
      <point x="1239" y="1168"/>
      <point x="1193" y="1071"/>
      <point x="1193" y="954" type="curve" smooth="yes"/>
      <point x="1193" y="948" type="line" smooth="yes"/>
      <point x="1193" y="799"/>
      <point x="1267" y="718"/>
      <point x="1443" y="700" type="curve"/>
      <point x="1443" y="692" type="line"/>
      <point x="1271" y="671"/>
      <point x="1194" y="574"/>
      <point x="1194" y="411" type="curve" smooth="yes"/>
      <point x="1194" y="401" type="line" smooth="yes"/>
      <point x="1194" y="191"/>
      <point x="1333" y="58"/>
    </contour>
    <contour>
      <point x="2369" y="148" type="curve" smooth="yes"/>
      <point x="2552" y="148"/>
      <point x="2649" y="226"/>
      <point x="2677" y="350" type="curve"/>
      <point x="2704" y="350" type="line"/>
      <point x="2694" y="575" type="line"/>
      <point x="2680" y="499"/>
      <point x="2616" y="446"/>
      <point x="2503" y="446" type="curve" smooth="yes"/>
      <point x="2381" y="446"/>
      <point x="2321" y="507"/>
      <point x="2321" y="640" type="curve" smooth="yes"/>
      <point x="2321" y="721" type="line" smooth="yes"/>
      <point x="2321" y="853"/>
      <point x="2371" y="915"/>
      <point x="2486" y="915" type="curve" smooth="yes"/>
      <point x="2529" y="915"/>
      <point x="2564" y="909"/>
      <point x="2596" y="901" type="curve"/>
      <point x="2570" y="1171" type="line"/>
      <point x="2523" y="1193"/>
      <point x="2451" y="1207"/>
      <point x="2375" y="1207" type="curve" smooth="yes"/>
      <point x="2098" y="1207"/>
      <point x="1958" y="1055"/>
      <point x="1958" y="743" type="curve" smooth="yes"/>
      <point x="1958" y="608" type="line" smooth="yes"/>
      <point x="1958" y="317"/>
      <point x="2084" y="148"/>
    </contour>
    <contour>
      <point x="2689" y="450" type="line"/>
      <point x="3042" y="450" type="line"/>
      <point x="3042" y="1207" type="line"/>
      <point x="2689" y="1207" type="line"/>
    </contour>
    <contour>
      <point x="2689" y="0" type="line"/>
      <point x="3042" y="0" type="line"/>
      <point x="3042" y="546" type="line"/>
      <point x="2689" y="546" type="line"/>
    </contour>
  </outline>
</glyph>
<glyph name="BaHa.gj" format="2">
  <advance width="2269"/>
  <anchor x="1790" y="-106" name="Bottom"/>
  <anchor x="1837" y="1277" name="Top"/>
  <anchor x="1719" y="1277" name="Top2"/>
  <outline>
    <contour>
      <point x="850" y="585" type="line"/>
      <point x="1481" y="585" type="line"/>
      <point x="1457" y="872" type="line"/>
      <point x="850" y="872" type="line"/>
    </contour>
    <contour>
      <point x="536" y="103" type="curve" smooth="yes"/>
      <point x="835" y="103"/>
      <point x="989" y="244"/>
      <point x="989" y="537" type="curve" smooth="yes"/>
      <point x="989" y="1024" type="line"/>
      <point x="642" y="1024" type="line"/>
      <point x="642" y="526" type="line" smooth="yes"/>
      <point x="642" y="442"/>
      <point x="609" y="399"/>
      <point x="540" y="399" type="curve" smooth="yes"/>
      <point x="457" y="399"/>
      <point x="424" y="456"/>
      <point x="424" y="566" type="curve" smooth="yes"/>
      <point x="424" y="737" type="line" smooth="yes"/>
      <point x="424" y="917"/>
      <point x="469" y="1078"/>
      <point x="552" y="1207" type="curve"/>
      <point x="195" y="1207" type="line"/>
      <point x="104" y="1089"/>
      <point x="61" y="918"/>
      <point x="61" y="730" type="curve" smooth="yes"/>
      <point x="61" y="577" type="line" smooth="yes"/>
      <point x="61" y="254"/>
      <point x="218" y="103"/>
    </contour>
    <contour>
      <point x="1793" y="-71" type="curve" smooth="yes"/>
      <point x="1934" y="-71"/>
      <point x="2064" y="-49"/>
      <point x="2172" y="-16" type="curve"/>
      <point x="2200" y="277" type="line"/>
      <point x="2092" y="247"/>
      <point x="1974" y="226"/>
      <point x="1851" y="226" type="curve" smooth="yes"/>
      <point x="1661" y="226"/>
      <point x="1552" y="287"/>
      <point x="1552" y="420" type="curve" smooth="yes"/>
      <point x="1552" y="448"/>
      <point x="1552" y="478"/>
      <point x="1552" y="503" type="curve"/>
      <point x="1206" y="503" type="line"/>
      <point x="1194" y="454"/>
      <point x="1187" y="399"/>
      <point x="1187" y="349" type="curve" smooth="yes"/>
      <point x="1187" y="69"/>
      <point x="1398" y="-71"/>
    </contour>
    <contour>
      <point x="1851" y="341" type="curve"/>
      <point x="2180" y="341" type="line"/>
      <point x="2204" y="398"/>
      <point x="2217" y="460"/>
      <point x="2217" y="521" type="curve" smooth="yes"/>
      <point x="2217" y="692"/>
      <point x="2130" y="784"/>
      <point x="1914" y="795" type="curve" smooth="yes"/>
      <point x="1715" y="805" type="line" smooth="yes"/>
      <point x="1628" y="809"/>
      <point x="1592" y="833"/>
      <point x="1592" y="871" type="curve" smooth="yes"/>
      <point x="1592" y="875" type="line" smooth="yes"/>
      <point x="1592" y="919"/>
      <point x="1643" y="948"/>
      <point x="1778" y="948" type="curve" smooth="yes"/>
      <point x="1901" y="948"/>
      <point x="2023" y="925"/>
      <point x="2119" y="892" type="curve"/>
      <point x="2089" y="1175" type="line"/>
      <point x="2000" y="1210"/>
      <point x="1869" y="1239"/>
      <point x="1714" y="1239" type="curve" smooth="yes"/>
      <point x="1391" y="1239"/>
      <point x="1229" y="1119"/>
      <point x="1229" y="882" type="curve" smooth="yes"/>
      <point x="1229" y="871" type="line" smooth="yes"/>
      <point x="1229" y="665"/>
      <point x="1359" y="561"/>
      <point x="1577" y="553" type="curve" smooth="yes"/>
      <point x="1727" y="547" type="line" smooth="yes"/>
      <point x="1828" y="543"/>
      <point x="1860" y="504"/>
      <point x="1860" y="421" type="curve" smooth="yes"/>
      <point x="1860" y="394"/>
      <point x="1856" y="369"/>
    </contour>
  </outline>
</glyph>
<glyph name="BaHalf_alt.gj" format="2">
  <advance width="1101"/>
  <outline>
    <contour>
      <point x="850" y="549" type="line"/>
      <point x="1269" y="549" type="line"/>
      <point x="1245" y="836" type="line"/>
      <point x="850" y="836" type="line"/>
    </contour>
    <contour>
      <point x="536" y="168" type="curve" smooth="yes"/>
      <point x="835" y="168"/>
      <point x="989" y="309"/>
      <point x="989" y="602" type="curve" smooth="yes"/>
      <point x="989" y="1034" type="line"/>
      <point x="642" y="1034" type="line"/>
      <point x="642" y="591" type="line" smooth="yes"/>
      <point x="642" y="507"/>
      <point x="609" y="464"/>
      <point x="540" y="464" type="curve" smooth="yes"/>
      <point x="457" y="464"/>
      <point x="424" y="521"/>
      <point x="424" y="631" type="curve" smooth="yes"/>
      <point x="424" y="750" type="line" smooth="yes"/>
      <point x="424" y="925"/>
      <point x="469" y="1081"/>
      <point x="552" y="1207" type="curve"/>
      <point x="195" y="1207" type="line"/>
      <point x="104" y="1092"/>
      <point x="61" y="926"/>
      <point x="61" y="743" type="curve" smooth="yes"/>
      <point x="61" y="642" type="line" smooth="yes"/>
      <point x="61" y="319"/>
      <point x="218" y="168"/>
    </contour>
  </outline>
</glyph>
<glyph name="BaJaYa.gj" format="2">
  <advance width="3882"/>
  <anchor x="3578" y="-64" name="Bottom"/>
  <anchor x="3557" y="1277" name="Top"/>
  <anchor x="3609" y="1277" name="Top2"/>
  <outline>
    <contour>
      <point x="850" y="563" type="line"/>
      <point x="1346" y="563" type="line"/>
      <point x="1322" y="850" type="line"/>
      <point x="850" y="850" type="line"/>
    </contour>
    <contour>
      <point x="536" y="103" type="curve" smooth="yes"/>
      <point x="835" y="103"/>
      <point x="989" y="244"/>
      <point x="989" y="537" type="curve" smooth="yes"/>
      <point x="989" y="1024" type="line"/>
      <point x="642" y="1024" type="line"/>
      <point x="642" y="526" type="line" smooth="yes"/>
      <point x="642" y="442"/>
      <point x="609" y="399"/>
      <point x="540" y="399" type="curve" smooth="yes"/>
      <point x="457" y="399"/>
      <point x="424" y="456"/>
      <point x="424" y="566" type="curve" smooth="yes"/>
      <point x="424" y="737" type="line" smooth="yes"/>
      <point x="424" y="917"/>
      <point x="469" y="1078"/>
      <point x="552" y="1207" type="curve"/>
      <point x="195" y="1207" type="line"/>
      <point x="104" y="1089"/>
      <point x="61" y="918"/>
      <point x="61" y="730" type="curve" smooth="yes"/>
      <point x="61" y="577" type="line" smooth="yes"/>
      <point x="61" y="254"/>
      <point x="218" y="103"/>
    </contour>
    <contour>
      <point x="1505" y="409" type="line"/>
      <point x="1505" y="863" type="line" smooth="yes"/>
      <point x="1505" y="926"/>
      <point x="1526" y="959"/>
      <point x="1573" y="959" type="curve" smooth="yes"/>
      <point x="1609" y="959"/>
      <point x="1634" y="940"/>
      <point x="1681" y="886" type="curve" smooth="yes"/>
      <point x="1939" y="588" type="line"/>
      <point x="2202" y="764" type="line"/>
      <point x="1952" y="1048" type="line" smooth="yes"/>
      <point x="1846" y="1169"/>
      <point x="1737" y="1239"/>
      <point x="1552" y="1239" type="curve" smooth="yes"/>
      <point x="1296" y="1239"/>
      <point x="1163" y="1102"/>
      <point x="1163" y="844" type="curve" smooth="yes"/>
      <point x="1163" y="463" type="line"/>
    </contour>
    <contour>
      <point x="2038" y="-29" type="curve" smooth="yes"/>
      <point x="2337" y="-29"/>
      <point x="2498" y="91"/>
      <point x="2498" y="324" type="curve" smooth="yes"/>
      <point x="2498" y="333" type="line" smooth="yes"/>
      <point x="2498" y="477"/>
      <point x="2415" y="579"/>
      <point x="2300" y="702" type="curve" smooth="yes"/>
      <point x="2183" y="827" type="line"/>
      <point x="1948" y="642" type="line"/>
      <point x="2041" y="538" type="line" smooth="yes"/>
      <point x="2098" y="474"/>
      <point x="2145" y="420"/>
      <point x="2145" y="360" type="curve" smooth="yes"/>
      <point x="2145" y="352" type="line" smooth="yes"/>
      <point x="2145" y="284"/>
      <point x="2108" y="252"/>
      <point x="2038" y="252" type="curve" smooth="yes"/>
      <point x="1965" y="252"/>
      <point x="1928" y="284"/>
      <point x="1928" y="352" type="curve" smooth="yes"/>
      <point x="1928" y="360" type="line" smooth="yes"/>
      <point x="1928" y="426"/>
      <point x="1965" y="472"/>
      <point x="2028" y="539" type="curve" smooth="yes"/>
      <point x="2137" y="660" type="line"/>
      <point x="1897" y="830" type="line"/>
      <point x="1776" y="708" type="line" smooth="yes"/>
      <point x="1653" y="570"/>
      <point x="1575" y="483"/>
      <point x="1575" y="333" type="curve" smooth="yes"/>
      <point x="1575" y="324" type="line" smooth="yes"/>
      <point x="1575" y="91"/>
      <point x="1737" y="-29"/>
    </contour>
    <contour>
      <point x="2202" y="589" type="line"/>
      <point x="2681" y="587" type="line"/>
      <point x="2659" y="854" type="line"/>
      <point x="2364" y="854" type="line"/>
      <point x="1824" y="816" type="line"/>
      <point x="1824" y="606" type="line"/>
    </contour>
    <contour>
      <point x="3068" y="65" type="curve" smooth="yes"/>
      <point x="3295" y="65"/>
      <point x="3391" y="158"/>
      <point x="3421" y="279" type="curve"/>
      <point x="3452" y="279" type="line"/>
      <point x="3441" y="499" type="line"/>
      <point x="3411" y="422"/>
      <point x="3335" y="362"/>
      <point x="3184" y="362" type="curve" smooth="yes"/>
      <point x="3024" y="362"/>
      <point x="2940" y="433"/>
      <point x="2940" y="559" type="curve" smooth="yes"/>
      <point x="2940" y="601"/>
      <point x="2941" y="619"/>
      <point x="2943" y="661" type="curve"/>
      <point x="2802" y="481" type="line"/>
      <point x="2939" y="481" type="line" smooth="yes"/>
      <point x="3150" y="481"/>
      <point x="3276" y="609"/>
      <point x="3276" y="832" type="curve" smooth="yes"/>
      <point x="3276" y="855" type="line" smooth="yes"/>
      <point x="3276" y="1117"/>
      <point x="3128" y="1239"/>
      <point x="2877" y="1239" type="curve" smooth="yes"/>
      <point x="2777" y="1239"/>
      <point x="2693" y="1221"/>
      <point x="2633" y="1195" type="curve"/>
      <point x="2609" y="923" type="line"/>
      <point x="2662" y="940"/>
      <point x="2719" y="953"/>
      <point x="2786" y="953" type="curve" smooth="yes"/>
      <point x="2872" y="953"/>
      <point x="2920" y="919"/>
      <point x="2920" y="841" type="curve" smooth="yes"/>
      <point x="2920" y="829" type="line" smooth="yes"/>
      <point x="2920" y="752"/>
      <point x="2864" y="719"/>
      <point x="2766" y="718" type="curve" smooth="yes"/>
      <point x="2593" y="717" type="line"/>
      <point x="2586" y="670"/>
      <point x="2583" y="624"/>
      <point x="2583" y="561" type="curve" smooth="yes"/>
      <point x="2583" y="254"/>
      <point x="2750" y="65"/>
    </contour>
    <contour>
      <point x="3433" y="450" type="line"/>
      <point x="3786" y="450" type="line"/>
      <point x="3786" y="1207" type="line"/>
      <point x="3433" y="1207" type="line"/>
    </contour>
    <contour>
      <point x="3433" y="0" type="line"/>
      <point x="3786" y="0" type="line"/>
      <point x="3786" y="546" type="line"/>
      <point x="3433" y="546" type="line"/>
    </contour>
  </outline>
</glyph>
<glyph name="BaJha.gj" format="2">
  <advance width="2609"/>
  <anchor x="2160" y="-64" name="Bottom"/>
  <anchor x="2169" y="1277" name="Top"/>
  <anchor x="2353" y="1277" name="Top2"/>
  <outline>
    <contour>
      <point x="850" y="499" type="line"/>
      <point x="1240" y="499" type="line"/>
      <point x="1216" y="786" type="line"/>
      <point x="850" y="786" type="line"/>
    </contour>
    <contour>
      <point x="536" y="103" type="curve" smooth="yes"/>
      <point x="835" y="103"/>
      <point x="989" y="244"/>
      <point x="989" y="537" type="curve" smooth="yes"/>
      <point x="989" y="1024" type="line"/>
      <point x="642" y="1024" type="line"/>
      <point x="642" y="526" type="line" smooth="yes"/>
      <point x="642" y="442"/>
      <point x="609" y="399"/>
      <point x="540" y="399" type="curve" smooth="yes"/>
      <point x="457" y="399"/>
      <point x="424" y="456"/>
      <point x="424" y="566" type="curve" smooth="yes"/>
      <point x="424" y="737" type="line" smooth="yes"/>
      <point x="424" y="917"/>
      <point x="469" y="1078"/>
      <point x="552" y="1207" type="curve"/>
      <point x="195" y="1207" type="line"/>
      <point x="104" y="1089"/>
      <point x="61" y="918"/>
      <point x="61" y="730" type="curve" smooth="yes"/>
      <point x="61" y="577" type="line" smooth="yes"/>
      <point x="61" y="254"/>
      <point x="218" y="103"/>
    </contour>
    <contour>
      <point x="1466" y="105" type="curve" smooth="yes"/>
      <point x="1754" y="105"/>
      <point x="1927" y="254"/>
      <point x="1927" y="596" type="curve" smooth="yes"/>
      <point x="1927" y="756" type="line" smooth="yes"/>
      <point x="1927" y="1091"/>
      <point x="1756" y="1239"/>
      <point x="1472" y="1239" type="curve" smooth="yes"/>
      <point x="1378" y="1239"/>
      <point x="1285" y="1219"/>
      <point x="1215" y="1185" type="curve"/>
      <point x="1190" y="901" type="line"/>
      <point x="1249" y="927"/>
      <point x="1312" y="944"/>
      <point x="1382" y="944" type="curve" smooth="yes"/>
      <point x="1502" y="944"/>
      <point x="1564" y="880"/>
      <point x="1564" y="744" type="curve" smooth="yes"/>
      <point x="1564" y="608" type="line" smooth="yes"/>
      <point x="1564" y="470"/>
      <point x="1503" y="402"/>
      <point x="1378" y="402" type="curve" smooth="yes"/>
      <point x="1300" y="402"/>
      <point x="1238" y="417"/>
      <point x="1172" y="444" type="curve"/>
      <point x="1198" y="166" type="line"/>
      <point x="1265" y="127"/>
      <point x="1361" y="105"/>
    </contour>
    <contour>
      <point x="2150" y="-29" type="curve" smooth="yes"/>
      <point x="2424" y="-29"/>
      <point x="2548" y="101"/>
      <point x="2548" y="370" type="curve" smooth="yes"/>
      <point x="2548" y="409" type="line" smooth="yes"/>
      <point x="2548" y="654"/>
      <point x="2398" y="777"/>
      <point x="2161" y="782" type="curve"/>
      <point x="2143" y="802" type="line"/>
      <point x="1888" y="802" type="line"/>
      <point x="1888" y="545" type="line"/>
      <point x="2033" y="545" type="line" smooth="yes"/>
      <point x="2143" y="545"/>
      <point x="2196" y="507"/>
      <point x="2196" y="408" type="curve" smooth="yes"/>
      <point x="2196" y="386" type="line" smooth="yes"/>
      <point x="2196" y="298"/>
      <point x="2155" y="254"/>
      <point x="2064" y="254" type="curve" smooth="yes"/>
      <point x="2012" y="254"/>
      <point x="1964" y="263"/>
      <point x="1919" y="279" type="curve"/>
      <point x="1945" y="8" type="line"/>
      <point x="2003" y="-15"/>
      <point x="2074" y="-29"/>
    </contour>
    <contour>
      <point x="2218" y="692" type="line"/>
      <point x="2289" y="765"/>
      <point x="2345" y="837"/>
      <point x="2393" y="923" type="curve" smooth="yes"/>
      <point x="2557" y="1192" type="line"/>
      <point x="2557" y="1207" type="line"/>
      <point x="2149" y="1207" type="line"/>
      <point x="1957" y="750" type="line"/>
    </contour>
  </outline>
</glyph>
<glyph name="BaLa.gj" format="2">
  <advance width="2601"/>
  <anchor x="2297" y="-64" name="Bottom"/>
  <anchor x="2276" y="1277" name="Top"/>
  <anchor x="2328" y="1277" name="Top2"/>
  <outline>
    <contour>
      <point x="850" y="489" type="line"/>
      <point x="1391" y="489" type="line"/>
      <point x="1367" y="776" type="line"/>
      <point x="850" y="776" type="line"/>
    </contour>
    <contour>
      <point x="536" y="103" type="curve" smooth="yes"/>
      <point x="835" y="103"/>
      <point x="989" y="244"/>
      <point x="989" y="537" type="curve" smooth="yes"/>
      <point x="989" y="1024" type="line"/>
      <point x="642" y="1024" type="line"/>
      <point x="642" y="526" type="line" smooth="yes"/>
      <point x="642" y="442"/>
      <point x="609" y="399"/>
      <point x="540" y="399" type="curve" smooth="yes"/>
      <point x="457" y="399"/>
      <point x="424" y="456"/>
      <point x="424" y="566" type="curve" smooth="yes"/>
      <point x="424" y="737" type="line" smooth="yes"/>
      <point x="424" y="917"/>
      <point x="469" y="1078"/>
      <point x="552" y="1207" type="curve"/>
      <point x="195" y="1207" type="line"/>
      <point x="104" y="1089"/>
      <point x="61" y="918"/>
      <point x="61" y="730" type="curve" smooth="yes"/>
      <point x="61" y="577" type="line" smooth="yes"/>
      <point x="61" y="254"/>
      <point x="218" y="103"/>
    </contour>
    <contour>
      <point x="2152" y="450" type="line"/>
      <point x="2505" y="450" type="line"/>
      <point x="2505" y="1207" type="line"/>
      <point x="2152" y="1207" type="line"/>
    </contour>
    <contour>
      <point x="2152" y="0" type="line"/>
      <point x="2505" y="0" type="line"/>
      <point x="2505" y="546" type="line"/>
      <point x="2152" y="546" type="line"/>
    </contour>
    <contour>
      <point x="1711" y="-3" type="curve" smooth="yes"/>
      <point x="1815" y="-3"/>
      <point x="1894" y="11"/>
      <point x="1967" y="35" type="curve"/>
      <point x="1994" y="327" type="line"/>
      <point x="1937" y="306"/>
      <point x="1870" y="292"/>
      <point x="1795" y="292" type="curve" smooth="yes"/>
      <point x="1632" y="292"/>
      <point x="1551" y="372"/>
      <point x="1551" y="546" type="curve" smooth="yes"/>
      <point x="1551" y="671" type="line" smooth="yes"/>
      <point x="1551" y="846"/>
      <point x="1632" y="925"/>
      <point x="1799" y="925" type="curve" smooth="yes"/>
      <point x="1875" y="925"/>
      <point x="1937" y="915"/>
      <point x="1990" y="902" type="curve"/>
      <point x="1963" y="1180" type="line"/>
      <point x="1892" y="1203"/>
      <point x="1800" y="1218"/>
      <point x="1698" y="1218" type="curve" smooth="yes"/>
      <point x="1365" y="1218"/>
      <point x="1188" y="1040"/>
      <point x="1188" y="691" type="curve" smooth="yes"/>
      <point x="1188" y="527" type="line" smooth="yes"/>
      <point x="1188" y="177"/>
      <point x="1369" y="-3"/>
    </contour>
    <contour>
      <point x="1712" y="429" type="line"/>
      <point x="2344" y="584" type="line"/>
      <point x="2347" y="891" type="line"/>
      <point x="1727" y="738" type="line"/>
    </contour>
  </outline>
</glyph>
<glyph name="BaLaYa.gj" format="2">
  <advance width="3436"/>
  <anchor x="3132" y="-64" name="Bottom"/>
  <anchor x="3111" y="1277" name="Top"/>
  <anchor x="3163" y="1277" name="Top2"/>
  <outline>
    <contour>
      <point x="850" y="489" type="line"/>
      <point x="1324" y="489" type="line"/>
      <point x="1300" y="776" type="line"/>
      <point x="850" y="776" type="line"/>
    </contour>
    <contour>
      <point x="536" y="103" type="curve" smooth="yes"/>
      <point x="835" y="103"/>
      <point x="989" y="244"/>
      <point x="989" y="537" type="curve" smooth="yes"/>
      <point x="989" y="1024" type="line"/>
      <point x="642" y="1024" type="line"/>
      <point x="642" y="526" type="line" smooth="yes"/>
      <point x="642" y="442"/>
      <point x="609" y="399"/>
      <point x="540" y="399" type="curve" smooth="yes"/>
      <point x="457" y="399"/>
      <point x="424" y="456"/>
      <point x="424" y="566" type="curve" smooth="yes"/>
      <point x="424" y="737" type="line" smooth="yes"/>
      <point x="424" y="917"/>
      <point x="469" y="1078"/>
      <point x="552" y="1207" type="curve"/>
      <point x="195" y="1207" type="line"/>
      <point x="104" y="1089"/>
      <point x="61" y="918"/>
      <point x="61" y="730" type="curve" smooth="yes"/>
      <point x="61" y="577" type="line" smooth="yes"/>
      <point x="61" y="254"/>
      <point x="218" y="103"/>
    </contour>
    <contour>
      <point x="1716" y="-3" type="curve" smooth="yes"/>
      <point x="1820" y="-3"/>
      <point x="1899" y="11"/>
      <point x="1972" y="35" type="curve"/>
      <point x="1999" y="327" type="line"/>
      <point x="1942" y="306"/>
      <point x="1875" y="292"/>
      <point x="1800" y="292" type="curve" smooth="yes"/>
      <point x="1637" y="292"/>
      <point x="1556" y="372"/>
      <point x="1556" y="546" type="curve" smooth="yes"/>
      <point x="1556" y="671" type="line" smooth="yes"/>
      <point x="1556" y="846"/>
      <point x="1637" y="925"/>
      <point x="1804" y="925" type="curve" smooth="yes"/>
      <point x="1880" y="925"/>
      <point x="1942" y="915"/>
      <point x="1995" y="902" type="curve"/>
      <point x="1968" y="1180" type="line"/>
      <point x="1897" y="1203"/>
      <point x="1805" y="1218"/>
      <point x="1703" y="1218" type="curve" smooth="yes"/>
      <point x="1370" y="1218"/>
      <point x="1193" y="1040"/>
      <point x="1193" y="691" type="curve" smooth="yes"/>
      <point x="1193" y="527" type="line" smooth="yes"/>
      <point x="1193" y="177"/>
      <point x="1374" y="-3"/>
    </contour>
    <contour>
      <point x="1724" y="461" type="line"/>
      <point x="2315" y="461" type="line"/>
      <point x="2303" y="685" type="line"/>
      <point x="2201" y="718"/>
      <point x="2111" y="737"/>
      <point x="1989" y="737" type="curve" smooth="yes"/>
      <point x="1724" y="737" type="line"/>
    </contour>
    <contour>
      <point x="2622" y="65" type="curve" smooth="yes"/>
      <point x="2849" y="65"/>
      <point x="2945" y="158"/>
      <point x="2975" y="279" type="curve"/>
      <point x="3006" y="279" type="line"/>
      <point x="2995" y="499" type="line"/>
      <point x="2965" y="422"/>
      <point x="2889" y="362"/>
      <point x="2738" y="362" type="curve" smooth="yes"/>
      <point x="2578" y="362"/>
      <point x="2494" y="433"/>
      <point x="2494" y="559" type="curve" smooth="yes"/>
      <point x="2494" y="601"/>
      <point x="2495" y="619"/>
      <point x="2497" y="661" type="curve"/>
      <point x="2356" y="481" type="line"/>
      <point x="2493" y="481" type="line" smooth="yes"/>
      <point x="2704" y="481"/>
      <point x="2830" y="609"/>
      <point x="2830" y="832" type="curve" smooth="yes"/>
      <point x="2830" y="855" type="line" smooth="yes"/>
      <point x="2830" y="1117"/>
      <point x="2682" y="1239"/>
      <point x="2431" y="1239" type="curve" smooth="yes"/>
      <point x="2331" y="1239"/>
      <point x="2247" y="1221"/>
      <point x="2187" y="1195" type="curve"/>
      <point x="2163" y="923" type="line"/>
      <point x="2216" y="940"/>
      <point x="2273" y="953"/>
      <point x="2340" y="953" type="curve" smooth="yes"/>
      <point x="2426" y="953"/>
      <point x="2474" y="919"/>
      <point x="2474" y="841" type="curve" smooth="yes"/>
      <point x="2474" y="829" type="line" smooth="yes"/>
      <point x="2474" y="752"/>
      <point x="2418" y="719"/>
      <point x="2320" y="718" type="curve" smooth="yes"/>
      <point x="2147" y="717" type="line"/>
      <point x="2140" y="670"/>
      <point x="2137" y="624"/>
      <point x="2137" y="561" type="curve" smooth="yes"/>
      <point x="2137" y="254"/>
      <point x="2304" y="65"/>
    </contour>
    <contour>
      <point x="2987" y="450" type="line"/>
      <point x="3340" y="450" type="line"/>
      <point x="3340" y="1207" type="line"/>
      <point x="2987" y="1207" type="line"/>
    </contour>
    <contour>
      <point x="2987" y="0" type="line"/>
      <point x="3340" y="0" type="line"/>
      <point x="3340" y="546" type="line"/>
      <point x="2987" y="546" type="line"/>
    </contour>
  </outline>
</glyph>
<glyph name="BaNa.gj" format="2">
  <advance width="1655"/>
  <anchor x="1351" y="-94" name="Bottom"/>
  <anchor x="1330" y="1277" name="Top"/>
  <anchor x="1382" y="1277" name="Top2"/>
  <outline>
    <contour>
      <point x="850" y="583" type="line"/>
      <point x="1371" y="583" type="line"/>
      <point x="1347" y="870" type="line"/>
      <point x="850" y="870" type="line"/>
    </contour>
    <contour>
      <point x="536" y="269" type="curve" smooth="yes"/>
      <point x="835" y="269"/>
      <point x="989" y="410"/>
      <point x="989" y="703" type="curve" smooth="yes"/>
      <point x="989" y="1048" type="line"/>
      <point x="642" y="1048" type="line"/>
      <point x="642" y="692" type="line" smooth="yes"/>
      <point x="642" y="608"/>
      <point x="609" y="565"/>
      <point x="540" y="565" type="curve" smooth="yes"/>
      <point x="457" y="565"/>
      <point x="424" y="622"/>
      <point x="424" y="732" type="curve" smooth="yes"/>
      <point x="424" y="770" type="line" smooth="yes"/>
      <point x="424" y="937"/>
      <point x="469" y="1086"/>
      <point x="552" y="1207" type="curve"/>
      <point x="195" y="1207" type="line"/>
      <point x="104" y="1097"/>
      <point x="61" y="938"/>
      <point x="61" y="763" type="curve" smooth="yes"/>
      <point x="61" y="743" type="line" smooth="yes"/>
      <point x="61" y="420"/>
      <point x="218" y="269"/>
    </contour>
    <contour>
      <point x="840" y="-245" type="curve"/>
      <point x="1068" y="-134" type="line"/>
      <point x="963" y="95" type="line"/>
      <point x="929" y="-6" type="line"/>
      <point x="1399" y="212" type="line"/>
      <point x="1327" y="392" type="line"/>
      <point x="1160" y="360"/>
      <point x="1042" y="324"/>
      <point x="924" y="271" type="curve" smooth="yes"/>
      <point x="682" y="163" type="line"/>
      <point x="595" y="-3" type="line"/>
      <point x="654" y="-116"/>
      <point x="726" y="-185"/>
    </contour>
    <contour>
      <point x="1221" y="-30" type="line"/>
      <point x="1559" y="-30" type="line"/>
      <point x="1559" y="316" type="line"/>
      <point x="1221" y="316" type="line"/>
    </contour>
    <contour>
      <point x="1206" y="250" type="line"/>
      <point x="1559" y="250" type="line"/>
      <point x="1559" y="1207" type="line"/>
      <point x="1206" y="1207" type="line"/>
    </contour>
  </outline>
</glyph>
